<?xml version="1.0" standalone="no"?>
<!DOCTYPE svg PUBLIC "-//W3C//DTD SVG 1.1//EN" "http://www.w3.org/Graphics/SVG/1.1/DTD/svg11.dtd" >
<!--
2013-9-13: Created.
-->
<svg xmlns="http://www.w3.org/2000/svg" xmlns:xlink="http://www.w3.org/1999/xlink" version="1.1">
<metadata>
Created by FontForge 20150928 at Thu Oct 29 15:04:47 2015
 By Jordan Klassen
Created by Jany Belluz with FontForge 2.0 (http://fontforge.sf.net)
</metadata>
<defs>
<font id="FantasqueSans" horiz-adv-x="0" >
  <font-face 
    font-family="FantasqueSans"
    font-weight="400"
    font-stretch="normal"
    units-per-em="2048"
    panose-1="2 11 5 3 0 0 0 0 0 0"
    ascent="1650"
    descent="-398"
    x-height="1020"
    cap-height="1334"
    bbox="-84.7998 -433 1758 1725"
    underline-thickness="96"
    underline-position="-192"
    unicode-range="U+0020-FB04"
  />
    <missing-glyph />
    <glyph glyph-name="f_f" unicode="ff" horiz-adv-x="1316" 
d="M258 1022l456 2v35c0 52 -2 25 -2 52c2 47 12 92 27 129c-42 35 -121 43 -166 45h-32c-55 0 -139 -8 -201 -45c-42 -27 -80 -66 -82 -160v-58zM273 1329c79 60 226 65 295 65c52 0 166 -15 228 -60c10 12 23 20 35 30c67 50 146 65 213 65h10c77 0 168 -28 228 -127
l-97 -55c-37 64 -86 70 -143 70c-45 0 -102 -12 -142 -42c-40 -32 -76 -90 -76 -179c0 -7 2 -24 2 -69h191c87 -2 146 -18 146 -18l-25 -109s-57 10 -69 10c-34 2 -84 2 -131 2c-46 0 -88 0 -107 -2c0 -92 5 -657 5 -850c0 -27 -3 -48 -3 -58h-111v139c0 243 -1 729 -3 769
c-27 0 -436 -3 -461 -5c0 -92 5 -655 5 -848v-57h-114v139c0 162 1 430 1 604c0 87 0 148 -1 162h-99v114h94v66c7 129 62 194 129 244z" />
    <glyph glyph-name="f_i" unicode="fi" horiz-adv-x="987" 
d="M330 1272c-40 -32 -77 -89 -77 -178v-70h322l288 3s5 -37 5 -92v-159c0 -171 -3 -392 -5 -568c5 -42 10 -62 22 -79c12 -15 35 -32 70 -57l-60 -77c-35 15 -79 34 -104 69s-37 80 -42 137v2c2 104 2 271 2 427v280c-15 0 -64 3 -126 3c-114 0 -268 -3 -288 -3
c-27 0 -54 -3 -79 -5c0 -92 5 -655 5 -848v-57h-114v139v605v161h-99v114h94c0 45 -3 60 -3 67v23c5 117 52 203 119 253s147 64 214 64h31c27 0 64 -1 88 -7l-13 -112c-32 5 -62 7 -89 7c-77 0 -131 -20 -161 -42zM744 1328h129v-129l-129 -3v132z" />
    <glyph glyph-name="f_l" unicode="fl" horiz-adv-x="962" 
d="M260 1362c62 50 164 64 303 64c74 0 159 -5 253 -10c7 -42 10 -74 10 -129v-250c0 -273 -1 -665 -3 -834c2 -40 10 -60 20 -77c12 -15 35 -32 70 -57l-57 -74c-40 15 -80 32 -105 67s-37 79 -42 136v3c2 169 3 565 3 838c0 112 -3 235 -3 280c-45 2 -84 5 -119 5
c-171 0 -228 -27 -260 -52c-40 -32 -77 -89 -77 -178v-72h260l-2 -117c-40 2 -144 5 -174 5c-27 0 -54 -3 -79 -5c0 -92 5 -655 5 -848v-57h-114v139c0 162 1 430 1 604c0 87 0 148 -1 162h-99v114h94c0 45 -3 60 -3 67v23c5 117 55 201 119 253z" />
    <glyph glyph-name="f_f_i" unicode="ffi" horiz-adv-x="1547" 
d="M910 1275c-40 -32 -77 -90 -77 -179v-69h194l397 -8s2 -36 2 -91v-159c0 -171 0 -392 -2 -568c5 -42 7 -62 19 -79c12 -15 35 -33 70 -58l-60 -76c-35 15 -79 34 -104 69s-35 79 -40 136v3c1 35 2 77 2 123c0 93 -2 202 -2 306v280c-40 2 -262 8 -292 8
c-15 0 -30 2 -42 2h-57c-27 0 -55 -3 -80 -5c0 -92 5 -657 5 -850v-58h-114v139c0 162 1 433 1 607c0 87 0 148 -1 162c-27 0 -446 -3 -471 -5c0 -92 5 -655 5 -848v-57h-114v139c0 162 1 430 1 604c0 87 0 148 -1 162h-99v114h94v67c7 129 62 193 129 243s201 63 268 63h10
c55 0 193 -13 255 -58c10 12 23 20 35 30c50 37 113 57 215 57c35 0 72 -2 117 -7l-12 -105c-35 2 -65 5 -90 5c-89 0 -131 -17 -161 -39zM1304 1242h129v-128l-129 -3v131zM258 1022l466 2c0 45 -2 58 -2 65v22c2 47 9 92 24 129c-42 35 -160 40 -205 40s-159 -10 -199 -40
c-40 -32 -82 -65 -84 -159v-59z" />
    <glyph glyph-name="f_f_l" unicode="ffl" horiz-adv-x="1525" 
d="M258 1022l461 2v65v22c2 47 10 92 25 129c-42 35 -163 40 -208 40s-154 -10 -194 -40c-40 -32 -82 -67 -84 -161v-57zM836 1362c67 50 146 64 213 64h67c79 0 193 0 275 -10c7 -42 10 -74 10 -129v-250c0 -273 0 -665 -2 -834c2 -40 10 -60 20 -77c12 -15 34 -32 69 -57
l-57 -74c-40 15 -79 32 -104 67s-37 79 -42 136v3c2 169 2 565 2 838c0 112 -2 235 -2 280c-45 2 -84 5 -119 5c-171 0 -229 -27 -261 -52c-40 -32 -74 -87 -74 -176c0 -7 2 -24 2 -69h271l-3 -117c-40 2 -153 5 -183 5c-27 0 -55 -3 -80 -5c0 -92 3 -657 3 -850v-58h-114
v139c0 243 -1 729 -3 769c-27 0 -441 -3 -466 -5c0 -92 5 -655 5 -848v-57h-114v139c0 162 1 430 1 604c0 87 0 148 -1 162h-99v114h94v65c7 129 62 195 129 245s196 63 263 63h10c55 0 196 -13 258 -58c10 12 20 18 32 28z" />
    <glyph glyph-name="t_t" unicode="tt" horiz-adv-x="1520" 
d="M824 1020c0 67 2 136 2 205l116 -2c0 -64 -2 -136 -2 -203h164c151 0 282 -3 282 -3l-2 -114s-131 2 -280 2c-55 0 -113 -2 -168 -2v-8c-10 -216 -9 -359 -14 -463v-43c0 -79 9 -131 34 -183c30 -60 78 -87 162 -94c15 0 27 -2 42 -2c69 0 96 2 128 19c67 32 94 97 94 97
l106 -42s-39 -102 -148 -157c-57 -30 -89 -34 -176 -34c-17 0 -39 0 -56 2c-107 10 -206 52 -258 161c-35 72 -42 144 -42 233v45c5 112 7 253 14 466c0 0 -234 5 -383 5c-55 0 -114 -2 -169 -2v-8c-10 -216 -7 -359 -12 -463v-43c0 -79 7 -131 32 -183
c30 -60 80 -87 164 -94c15 0 27 -2 42 -2c69 0 179 14 211 31c25 -50 52 -101 52 -101c-57 -30 -174 -47 -261 -47c-17 0 -37 0 -54 2c-107 10 -206 52 -258 161c-35 72 -42 144 -42 233v45c5 112 5 253 12 466c-45 -2 -81 -8 -106 -10l-15 114c32 5 74 8 124 10
c0 67 2 142 2 211l117 -2c0 -64 -3 -136 -3 -203h549z" />
    <glyph glyph-name="f_t" unicode="ft" horiz-adv-x="1466" 
d="M580 1307c-32 5 -62 7 -89 7c-77 0 -131 -20 -161 -42c-40 -32 -77 -89 -77 -178v-72c55 0 107 -3 191 -3c64 0 288 0 330 -2c0 67 2 139 2 208l115 -2v-204h163c151 0 282 -2 282 -2l-4 -114s-129 2 -278 2c-55 0 -117 -2 -172 -2v-8c-10 -216 -7 -359 -12 -463v-43
c0 -79 9 -131 34 -183c30 -60 80 -87 164 -94c15 0 25 -2 40 -2c69 0 92 7 124 24c67 32 94 97 94 97l106 -43s-39 -101 -148 -156c-57 -30 -85 -39 -172 -39c-17 0 -37 0 -54 2c-107 10 -206 52 -258 161c-35 72 -44 144 -44 233v45c5 112 3 256 10 469
c-22 0 -357 5 -466 5c-22 0 -37 -3 -42 -3c0 -92 5 -655 5 -848v-57h-114v139c0 162 1 430 1 604c0 87 0 148 -1 162h-99v114h94c0 45 -3 60 -3 67v23c5 117 52 203 119 253s147 64 214 64h31c27 0 64 -1 88 -7z" />
    <glyph glyph-name="a" unicode="a" horiz-adv-x="1010" 
d="M564 637c70 -5 119 -19 169 -44v62c0 111 -28 171 -75 208c-47 35 -111 52 -171 52c-141 -2 -219 -42 -308 -193l-94 57c102 174 231 246 400 248h14c72 0 157 -17 226 -72c77 -57 122 -151 122 -293v-447c0 -35 10 -62 22 -77c10 -12 35 -32 70 -57l-70 -91
c-32 25 -64 47 -91 79c-17 27 -33 62 -38 102c-42 -45 -79 -98 -156 -133c-55 -25 -130 -45 -204 -45c-64 0 -128 13 -188 50c-84 55 -132 152 -132 251c0 74 28 154 90 214c102 97 233 132 352 132c20 0 42 -1 62 -3zM733 459c-15 7 -39 22 -64 32c-40 15 -63 27 -118 32
c-15 2 -34 3 -49 3c-97 0 -196 -30 -273 -104c-40 -37 -57 -85 -57 -130c0 -62 30 -125 77 -155c32 -20 79 -30 124 -30c60 0 124 15 161 32c134 64 179 145 199 180v140z" />
    <glyph glyph-name="b" unicode="b" horiz-adv-x="948" 
d="M194 1424c0 0 3 -45 5 -117c2 -89 5 -223 5 -367c55 42 127 80 224 82c124 0 238 -27 322 -104c84 -74 134 -192 149 -343c2 -37 5 -76 5 -111c0 -94 -13 -181 -45 -258c-42 -104 -133 -184 -255 -201c-32 -5 -63 -7 -95 -7c-64 0 -124 9 -186 34c-42 17 -84 45 -121 80
c-2 -74 -10 -114 -10 -114l-112 22s5 32 10 104v134v2c0 94 3 228 3 372c0 246 -3 523 -8 672c0 67 -5 110 -5 110zM204 764v-474c47 -82 102 -129 164 -154c42 -17 94 -26 141 -26c27 0 53 2 80 7c87 12 134 54 166 133c22 57 35 130 35 214c0 30 -3 64 -5 99
c-12 134 -52 220 -112 270s-136 75 -243 75c-82 0 -139 -35 -176 -72c-17 -17 -30 -37 -40 -52c-2 -7 -8 -15 -10 -20z" />
    <glyph glyph-name="c" unicode="c" horiz-adv-x="967" 
d="M541 1047c45 0 89 -10 131 -20c109 -25 171 -97 208 -191l-109 -47c-30 82 -47 104 -126 124c-40 7 -82 17 -124 17c-107 0 -216 -37 -288 -124c-35 -45 -79 -126 -79 -280c0 -45 8 -94 15 -156c7 -52 71 -159 121 -196c74 -50 144 -67 233 -67h23c149 2 253 59 310 143
l99 -64c-77 -119 -223 -194 -402 -196h-22c-109 0 -208 20 -310 87c-92 67 -156 176 -171 273c-10 64 -13 123 -13 173c0 184 52 293 102 360c102 122 245 164 379 164h23z" />
    <glyph glyph-name="d" unicode="d" horiz-adv-x="990" 
d="M769 771c-2 2 -5 8 -10 15c-7 15 -20 35 -40 52c-35 37 -91 72 -173 72c-107 0 -186 -24 -243 -74c-60 -50 -97 -137 -112 -271c-2 -32 -5 -66 -5 -96c0 -84 13 -157 35 -214c32 -79 81 -121 168 -133c27 -5 52 -8 77 -8c47 0 100 10 142 27c60 25 113 73 163 152v96
c0 151 3 370 3 370s-3 7 -5 12zM863 1424c0 0 10 -60 15 -110c7 -102 10 -205 10 -327v-119c-2 -114 -3 -228 -3 -332v-273v-3v-131v-3c2 -67 10 -101 10 -101l-111 -23s-8 43 -13 115c-37 -32 -79 -63 -121 -80c-62 -25 -124 -35 -191 -35c-30 0 -57 0 -87 5
c-122 17 -210 100 -255 204c-30 74 -45 158 -45 250c0 37 2 77 7 114c15 151 63 268 147 345c84 74 196 104 320 104c99 -2 173 -42 228 -87v102c0 97 -3 181 -8 268c-5 42 -12 99 -12 99z" />
    <glyph glyph-name="e" unicode="e" horiz-adv-x="1051" 
d="M543 1042c256 0 394 -162 427 -382c2 -37 5 -75 5 -97v-22l-5 -52l-55 -2s-169 -8 -345 -13c-151 -7 -292 -14 -376 -19c12 -112 49 -214 111 -274c67 -62 149 -81 233 -81c37 0 85 5 122 12c139 30 218 131 218 131l94 -74s-106 -129 -290 -169c-47 -7 -94 -14 -146 -14
c-104 0 -218 27 -310 114c-107 102 -157 257 -157 426c0 17 1 33 3 50c13 249 189 466 471 466zM192 579c89 7 234 16 388 21c144 5 236 8 276 8c0 17 -1 20 -3 45c-22 167 -145 275 -310 275c-215 0 -345 -163 -351 -349z" />
    <glyph glyph-name="f" unicode="f" horiz-adv-x="744" 
d="M570 898c-52 10 -124 12 -186 12s-114 -5 -126 -5c0 -92 5 -655 5 -848v-57h-114v139v605v161h-99v114h94c0 45 -3 60 -3 67v23c5 117 52 203 119 253s147 64 214 64h10c77 0 168 -27 228 -126l-97 -55c-37 64 -87 69 -144 69c-45 0 -101 -12 -141 -42
c-40 -32 -77 -89 -77 -178v-72h193c87 -2 144 -18 144 -18z" />
    <glyph glyph-name="g" unicode="g" horiz-adv-x="1063" 
d="M636 179h8c169 0 350 -52 350 -243c0 -273 -264 -328 -539 -328c-213 0 -374 87 -374 288v12c0 102 49 151 116 201c-72 30 -96 114 -96 191c0 82 29 129 54 159c5 7 13 15 18 22c-45 47 -75 107 -75 179c0 201 184 367 417 367c109 0 201 -25 275 -75
c35 35 95 65 159 70c25 5 52 5 52 5l5 -122c-20 0 -87 -7 -99 -17c-10 -5 -23 -15 -35 -27c22 -42 35 -89 35 -144c0 -92 -18 -172 -75 -236c-64 -74 -195 -126 -339 -126c-79 0 -154 20 -221 52l-27 -28c-15 -17 -22 -36 -22 -76c0 -109 54 -127 218 -127c52 0 118 3 195 3
zM788 717c0 141 -119 188 -273 188c-179 0 -295 -119 -295 -245c0 -119 149 -181 280 -181c112 0 211 44 243 81c30 35 45 83 45 157zM331 60c-99 -50 -129 -82 -131 -154c0 -57 13 -92 40 -117c35 -32 114 -59 218 -59c166 0 387 22 409 146c2 20 5 40 5 57
c-2 112 -116 129 -290 129c-74 0 -159 0 -251 -2z" />
    <glyph glyph-name="p" unicode="p" horiz-adv-x="1009" 
d="M218 1025c0 0 5 -28 10 -83c55 45 131 83 228 83h15c119 0 226 -30 308 -102c84 -77 131 -194 146 -345c5 -37 8 -77 8 -114c0 -92 -15 -177 -45 -251c-42 -104 -131 -186 -255 -203c-32 -5 -68 -8 -100 -8c-62 0 -121 10 -181 35c-42 17 -87 48 -124 85
c-2 -156 -2 -303 -2 -397c0 -62 15 -104 15 -104l-109 -35s-20 59 -20 136c0 258 5 888 5 1104v69v8c-2 67 -10 96 -10 96zM231 769c0 -114 -3 -278 -3 -469c50 -84 105 -134 169 -159c45 -20 94 -27 149 -27c22 0 44 3 69 5c87 12 137 59 169 136c22 57 35 132 35 214
c0 32 -3 67 -5 99c-15 134 -55 218 -112 268c-60 55 -137 77 -246 77c-79 -2 -136 -35 -173 -72c-17 -17 -33 -37 -40 -52c-5 -7 -10 -15 -12 -20z" />
    <glyph glyph-name="h" unicode="h" horiz-adv-x="954" 
d="M87 -5c5 161 7 313 7 454c0 275 -7 528 -7 828c0 55 0 99 -5 134h121v-479c57 45 134 87 233 87c124 0 224 -22 293 -99c67 -74 89 -184 89 -335c2 -171 3 -250 3 -367c0 -42 12 -62 22 -74c10 -15 32 -32 67 -57l-67 -92c-32 25 -67 47 -92 79c-27 35 -44 79 -44 139
v102c0 74 -1 148 -3 270c0 139 -22 218 -59 258c-37 42 -100 62 -209 62c-114 0 -193 -74 -230 -151v-60c5 -92 5 -245 5 -384s-1 -260 -8 -315h-116z" />
    <glyph glyph-name="i" unicode="i" horiz-adv-x="419" 
d="M260 1027c0 0 5 -37 5 -92v-159c0 -171 -3 -417 -5 -593c5 -42 11 -62 23 -79c12 -15 34 -32 69 -57l-60 -77c-35 15 -79 34 -104 69s-37 80 -42 137v2c2 176 5 427 5 598v159c0 50 -2 87 -2 87zM144 1326h129v-128l-129 -3v131z" />
    <glyph glyph-name="j" unicode="j" horiz-adv-x="655" 
d="M420 1328h129v-129l-129 -3v132zM537 1029c0 0 10 -59 10 -101c0 -109 -3 -216 -3 -325s3 -224 3 -343c0 -146 2 -255 2 -342v-57c-5 -89 -17 -158 -67 -203c-47 -37 -106 -60 -166 -60c-32 0 -67 8 -99 18c-89 30 -171 98 -213 200l109 45c30 -72 84 -119 141 -139
c22 -7 45 -10 62 -10c35 0 65 13 87 33c15 12 25 39 30 121v50c0 82 -3 193 -5 344c0 238 0 447 2 668c0 20 -10 84 -10 84z" />
    <glyph glyph-name="k" unicode="k" horiz-adv-x="1007" 
d="M881 141c10 -12 37 -37 72 -64l-57 -77c-40 20 -81 39 -106 74c-47 67 -55 136 -72 181c-74 196 -351 227 -477 239v-149v-144c0 -35 1 -171 3 -201h-114c0 15 -3 124 -3 176v27c2 223 5 497 5 725c0 169 0 312 -5 396c-2 20 -14 82 -14 82l111 25s15 -60 15 -102
c5 -89 7 -221 7 -377v-79c37 25 109 70 221 112c55 20 116 39 156 39c134 0 231 -79 246 -193c2 -22 5 -50 5 -77c0 -35 -3 -72 -8 -99c-7 -35 -35 -149 -171 -189c25 -15 79 -67 109 -139c22 -50 55 -149 77 -186zM524 890c-119 -40 -193 -96 -280 -148v-134
c134 -20 195 -38 250 -50c32 -7 60 -10 85 -10c40 0 74 7 109 22c60 30 74 102 74 164c0 32 -2 62 -7 82c-10 45 -45 94 -127 94c-30 0 -62 -5 -104 -20z" />
    <glyph glyph-name="l" unicode="l" horiz-adv-x="417" 
d="M251 1426c10 -37 12 -84 12 -139v-250c0 -273 0 -693 -2 -862c2 -40 10 -60 20 -77c12 -15 34 -32 69 -57l-57 -74c-40 15 -79 32 -104 67s-37 79 -42 136v3c2 169 2 593 2 866v248s-5 104 -7 109z" />
    <glyph glyph-name="m" unicode="m" horiz-adv-x="1376" 
d="M645 -5c-7 92 -10 253 -10 417c0 161 2 318 2 392c0 2 -14 32 -39 57c-25 22 -60 42 -82 44h-13c-22 0 -39 -9 -79 -39c-42 -32 -101 -95 -188 -189c0 -236 0 -578 -5 -677l-114 2c5 79 5 340 5 563v330s-8 107 -10 114l109 30c15 -50 13 -124 15 -196
c45 47 84 87 116 114c50 37 97 62 154 62h17c77 -7 141 -56 181 -106c102 57 179 94 256 96h22c74 0 129 -35 171 -72c37 -37 70 -81 70 -138c0 -40 -2 -84 -2 -124c0 -164 7 -325 7 -489c2 -40 12 -59 22 -74c12 -15 32 -35 67 -62l-47 -68c-30 5 -87 28 -112 63
s-39 79 -44 139v2v67c0 154 -5 315 -5 476v70c0 2 -10 32 -35 54c-22 22 -60 40 -82 42h-12c-55 0 -120 -27 -229 -87v-4c0 -84 -2 -276 -2 -457c0 -136 0 -268 7 -345z" />
    <glyph glyph-name="o" unicode="o" horiz-adv-x="1056" 
d="M513 1030c196 0 318 -85 395 -219c45 -79 70 -173 70 -270c0 -37 -4 -77 -11 -114c-42 -226 -184 -435 -454 -435c-203 0 -335 100 -399 234c-32 69 -47 149 -47 233c0 211 74 377 196 476c69 57 156 95 250 95zM590 908c-22 2 -42 5 -62 5c-77 0 -143 -28 -193 -70
c-89 -72 -151 -213 -151 -384c0 -69 12 -133 37 -183c45 -97 141 -170 297 -170c82 0 145 27 200 72c79 69 143 202 143 363c0 193 -107 340 -271 367z" />
    <glyph glyph-name="n" unicode="n" horiz-adv-x="1016" 
d="M228 1034c7 -32 10 -69 10 -119c126 62 221 102 313 107h44c67 -5 126 -35 171 -72c45 -35 82 -78 82 -142v-2c-2 -84 -2 -169 -2 -253c0 -122 2 -243 7 -360c2 -42 10 -59 22 -74c12 -17 35 -32 70 -59l-51 -74c-40 7 -85 31 -110 66c-27 37 -40 82 -45 139
c-5 114 -7 235 -7 357c0 87 0 173 2 260c0 0 -10 35 -40 60s-76 45 -111 47h-13c-77 0 -166 -47 -332 -124c0 -226 0 -674 -5 -793l-114 4c2 94 5 466 5 707v191c0 47 -8 105 -10 112z" />
    <glyph glyph-name="q" unicode="q" horiz-adv-x="1011" 
d="M466 1024h13c60 0 119 -9 176 -34c42 -17 84 -47 121 -82c5 74 13 116 13 116l111 -25s-8 -32 -10 -101c0 -64 5 -873 5 -1178c0 -77 -17 -137 -17 -137l-109 33s12 44 12 104v362c-55 -45 -131 -84 -230 -84c-126 0 -239 30 -323 104s-134 188 -149 342
c-5 42 -7 81 -7 121c0 92 13 176 45 248c45 104 133 187 257 204c30 5 60 7 92 7zM781 263c0 181 -2 337 -2 466c-50 82 -107 127 -169 154c-45 20 -94 27 -146 27c-25 0 -50 -3 -75 -5c-87 -12 -136 -59 -168 -136c-22 -55 -35 -129 -35 -213c0 -32 3 -65 5 -100
c15 -134 55 -218 112 -270s139 -74 248 -74c82 0 136 35 173 72c20 17 47 64 57 79z" />
    <glyph glyph-name="r" unicode="r" horiz-adv-x="891" 
d="M651 1032c35 0 69 -8 96 -23c37 -20 62 -54 77 -86c25 -55 28 -114 28 -159v-22h-117c0 47 -2 101 -17 133c-7 15 -13 26 -25 33c-9 5 -23 8 -44 8c-7 0 -15 -1 -23 -1c-144 -15 -246 -77 -380 -295v-531c0 -40 -8 -74 -10 -94l-116 12c2 32 12 60 12 85v151v444v129
c-2 42 -12 62 -24 77c-12 17 -35 32 -70 59l70 95c35 -27 69 -50 94 -85s42 -82 44 -139v-2c114 134 233 196 367 211c12 2 26 0 38 0z" />
    <glyph glyph-name="s" unicode="s" horiz-adv-x="836" 
d="M111 796c0 141 111 213 230 228c15 0 30 3 45 3c109 0 213 -35 295 -124l-82 -77c-60 62 -124 84 -201 84c-89 0 -173 -25 -173 -109c0 -52 9 -62 64 -94c169 -112 464 -129 464 -412c0 -151 -109 -255 -221 -285c-35 -7 -71 -12 -111 -12c-146 0 -258 54 -313 173
c-32 72 -35 144 -35 169v10l117 -8v-2c0 -15 3 -67 25 -122c32 -72 107 -106 206 -106c89 0 151 22 191 89c15 25 27 55 27 92c0 79 -28 116 -92 158c-84 60 -228 97 -317 154c-67 40 -119 87 -119 191z" />
    <glyph glyph-name="t" unicode="t" horiz-adv-x="844" 
d="M161 1225l117 -2c0 -64 -3 -136 -3 -203h164c151 0 283 -3 283 -3l-3 -114s-131 2 -280 2c-55 0 -114 -2 -169 -2v-8c-10 -216 -7 -359 -12 -463v-43c0 -79 7 -131 32 -183c30 -60 80 -87 164 -94c15 0 27 -2 42 -2c69 0 92 7 124 24c67 32 94 97 94 97l104 -43
s-39 -101 -148 -156c-57 -30 -85 -39 -172 -39c-17 0 -37 0 -54 2c-107 10 -206 52 -258 161c-35 72 -42 144 -42 233v45c5 112 5 253 12 466c-45 -2 -81 -8 -106 -10l-15 114c32 5 74 8 124 10c0 67 2 142 2 211z" />
    <glyph glyph-name="u" unicode="u" horiz-adv-x="997" 
d="M222 1027c7 -32 13 -87 15 -112v-40v-79c0 -62 -3 -141 -3 -223v-233c0 -32 3 -62 3 -84v-37c7 -45 27 -70 52 -87s57 -22 89 -22c69 2 116 12 171 47c52 32 112 92 189 181v575v109l116 -5c0 -25 -2 -67 -2 -104v-521v-178c2 -45 10 -62 20 -77c12 -15 35 -32 72 -59
l-70 -92c-35 25 -67 44 -94 79c-20 27 -33 65 -40 107c-45 -47 -87 -85 -129 -112c-69 -45 -144 -65 -228 -67h-12c-47 0 -100 15 -147 45c-50 32 -87 89 -99 161c-2 17 -5 32 -5 54v87v233s3 164 3 226v76v30c-2 17 -11 87 -13 99z" />
    <glyph glyph-name="v" unicode="v" horiz-adv-x="949" 
d="M157 1037c25 -42 47 -89 57 -124c2 -10 8 -22 13 -47s12 -57 22 -97c20 -79 47 -186 72 -290c45 -186 79 -330 89 -367c10 0 20 2 30 7c-7 -2 6 2 18 17s29 33 44 55c30 42 58 92 75 119c112 191 169 444 171 526c2 40 2 71 2 96c0 52 -2 80 -2 80l114 12s5 -39 5 -111
c0 -22 -3 -50 -3 -82c-5 -117 -64 -367 -188 -578c-17 -30 -50 -80 -82 -127c-17 -22 -33 -46 -50 -66s-32 -36 -62 -48c-32 -12 -61 -17 -86 -17s-43 5 -43 5l-37 7l-7 35s-49 204 -99 412c-25 104 -52 209 -72 288c-10 40 -18 71 -23 96s-10 44 -10 42
c-5 15 -27 67 -44 97z" />
    <glyph glyph-name="w" unicode="w" horiz-adv-x="1344" 
d="M145 1047c25 -42 47 -89 57 -124c2 -10 7 -22 12 -47s13 -59 23 -99c20 -82 47 -186 72 -290c45 -188 84 -339 91 -374c2 0 6 2 8 2c104 228 149 404 169 523c12 82 14 131 14 156v20l114 12v-2s18 -208 122 -719c7 2 17 3 27 8c-7 -2 8 4 20 19s27 32 42 54
c30 42 60 93 77 120c112 191 172 446 174 528c2 30 2 57 2 77c0 69 -5 101 -5 101l114 13s5 -40 5 -112c0 -22 0 -52 -2 -82c-5 -119 -63 -372 -189 -585c-17 -30 -46 -79 -81 -126c-17 -22 -36 -47 -53 -67s-29 -36 -59 -48c-35 -15 -67 -17 -92 -17s-42 3 -42 3l-35 7
l-7 37c-32 161 -55 286 -75 395c-30 -107 -74 -236 -143 -385l-10 -17l-18 -10c-32 -17 -64 -22 -89 -22c-32 0 -52 7 -52 7l-32 10l-8 30s-49 208 -99 416c-25 104 -52 208 -72 290c-10 40 -20 75 -25 100s-10 44 -10 42c-5 15 -27 67 -44 97z" />
    <glyph glyph-name="x" unicode="x" horiz-adv-x="1014" 
d="M134 1042c146 -179 258 -318 345 -437c45 55 92 109 129 159c67 89 119 163 129 178h2v5c15 25 30 70 32 80l114 -15c-5 -35 -22 -79 -47 -124h-2v-5c-22 -40 -72 -100 -139 -189c-45 -55 -97 -119 -149 -188c40 -55 74 -104 104 -144c97 -144 142 -213 174 -238
c10 -7 34 -12 69 -12c12 0 25 0 40 2l2 -114c-17 -2 -35 -2 -52 -2c-42 0 -86 7 -126 37c-64 45 -104 119 -201 263c-25 35 -52 74 -84 119c-5 -10 -10 -15 -15 -20c-169 -208 -328 -402 -328 -402l-86 74s159 194 325 397c12 15 25 30 37 45c-89 124 -206 273 -362 461z
" />
    <glyph glyph-name="y" unicode="y" horiz-adv-x="1080" 
d="M7 1027c30 0 57 0 82 -5s48 -15 70 -35c84 -74 183 -228 282 -407c74 -134 144 -278 201 -404c104 238 209 484 271 707c2 10 7 39 9 64s3 55 3 55l112 15v-23c0 -20 -1 -37 -3 -57c-2 -30 -5 -59 -12 -84c-92 -332 -269 -702 -410 -1022c-30 -67 -64 -124 -116 -166
c-45 -35 -101 -59 -161 -59c-10 0 -23 0 -33 2c-74 10 -138 47 -183 107s-72 139 -92 238l109 20c17 -89 42 -151 72 -191s59 -55 109 -62h20c32 0 60 10 87 32c32 27 62 71 87 126c22 52 44 104 69 159c-57 139 -146 323 -238 489c-97 174 -203 330 -255 377
c-5 5 -13 8 -23 10c-12 2 -30 0 -57 2v112z" />
    <glyph glyph-name="z" unicode="z" horiz-adv-x="1061" 
d="M40 913l22 107c31 -2 105 -3 197 -3c185 0 445 3 584 3h97l27 -100s-216 -204 -429 -412c-107 -104 -211 -208 -285 -295c-30 -35 -57 -79 -74 -104l647 3c57 0 99 -5 166 -25l-32 -104c-57 17 -77 20 -132 20l-721 -3h-60v25c0 30 3 68 8 80c7 17 15 42 27 59
c22 37 54 76 94 121c79 92 186 201 293 305c129 126 241 241 325 318h-162c-107 0 -245 -2 -363 -2c-102 0 -189 1 -229 7z" />
    <glyph glyph-name="A" unicode="A" horiz-adv-x="1195" 
d="M556 1332h109l481 -1320l-109 -39l-194 525c-45 0 -129 0 -221 -2c-67 -2 -135 -5 -190 -10c-30 -2 -58 -7 -75 -12l-186 -496l-109 39zM608 1141l-201 -538h12c60 5 134 10 201 12h64h117z" />
    <glyph glyph-name="B" unicode="B" horiz-adv-x="1060" 
d="M361 1332h15c77 0 157 -7 226 -37c84 -37 166 -112 176 -221c0 -12 3 -23 3 -35c0 -37 -8 -76 -18 -116c-15 -52 -45 -107 -97 -139c79 -22 147 -55 204 -102c77 -64 116 -151 126 -233c2 -17 3 -35 3 -52c0 -64 -13 -127 -35 -179v-2l-3 -3
c-62 -129 -188 -196 -292 -208c-40 -5 -82 -7 -122 -7c-87 0 -181 7 -300 7h-64l-70 -5s1 37 3 114v3c0 55 7 422 7 734c0 126 -3 242 -5 329c-2 67 -7 137 -7 137l87 5c32 2 94 10 163 10zM361 1218c-50 0 -97 -6 -129 -8c0 -10 3 -17 3 -27c2 -94 2 -226 2 -362
c89 7 159 7 214 12c62 5 106 17 153 47c22 15 40 40 50 75c7 27 10 57 10 84v25c-5 52 -52 104 -107 126c-40 17 -114 28 -183 28h-13zM237 704c-2 -270 -7 -535 -7 -585c129 0 225 -7 307 -7c42 0 80 2 117 7c64 7 161 60 203 144c15 40 28 86 28 136c0 10 -1 23 -3 35
c-7 60 -29 114 -84 159c-57 47 -115 72 -204 89c-84 15 -196 22 -357 22z" />
    <glyph glyph-name="C" unicode="C" horiz-adv-x="1096" 
d="M613 1339c129 -2 263 -67 357 -221l-100 -59c-77 124 -166 161 -255 161c-12 0 -27 0 -42 -2c-104 -12 -208 -80 -258 -144v-3c-50 -69 -124 -193 -124 -424c0 -52 5 -109 12 -171c10 -74 90 -221 147 -273c77 -69 148 -86 240 -86h20c146 5 253 74 310 191l104 -53
c-77 -151 -225 -250 -411 -255h-15c-114 0 -229 28 -328 117c-89 82 -166 225 -183 344c-10 64 -13 124 -13 179c0 263 92 422 147 501c69 94 193 176 337 193c17 2 38 5 55 5z" />
    <glyph glyph-name="D" unicode="D" horiz-adv-x="1168" 
d="M332 1337c280 0 462 -82 593 -266c92 -126 144 -307 144 -491c0 -69 -7 -139 -22 -206c-52 -241 -251 -357 -432 -374c-57 -5 -109 -7 -166 -7c-74 0 -156 2 -275 7h-70s1 37 3 114c0 57 7 467 7 799v148v124c-2 69 -10 139 -10 139l89 8c35 2 82 5 139 5zM228 1218
c2 -47 3 -107 3 -171v-134c0 -332 -8 -739 -8 -796c107 -2 181 -7 248 -7c45 0 87 2 132 7c146 15 287 91 329 282c12 55 18 114 18 171c0 166 -45 332 -119 434c-119 164 -238 216 -474 216c-47 0 -94 0 -129 -2z" />
    <glyph glyph-name="E" unicode="E" horiz-adv-x="1048" 
d="M428 1330h114c154 0 301 -3 385 -3v-114h-447h-245c-2 -22 -2 -43 -2 -65v-5v-158v-167h252h229l2 -114h-231h-252v-52c0 -236 -3 -476 -3 -538h317h278c62 2 82 8 124 20l32 -109c-42 -12 -81 -23 -153 -25h-281h-325l-109 -5s1 37 3 114v3v540c0 122 2 243 2 335v164
c2 69 8 131 10 173v3c77 2 186 3 300 3z" />
    <glyph glyph-name="F" unicode="F" horiz-adv-x="1036" 
d="M227 174c2 -64 13 -124 15 -169l-116 -10c-2 42 -13 107 -13 176v501c0 246 -2 499 -2 546v64v50l107 -5h610c72 -2 111 -13 153 -25l-32 -109c-42 12 -62 20 -124 20h-598v-395c119 0 177 3 281 3h87c89 0 148 -15 148 -15l-24 -112s-45 10 -124 10h-368v-32v-498z" />
    <glyph glyph-name="G" unicode="G" horiz-adv-x="1113" 
d="M578 1335h22c186 -5 335 -103 412 -254l-104 -52c-57 114 -164 189 -320 189c-99 0 -169 -13 -251 -87c-57 -52 -136 -196 -146 -270c-12 -92 -17 -167 -17 -234c0 -191 50 -297 149 -414c45 -55 155 -99 267 -99c30 0 58 3 85 10c131 32 245 131 245 399h-292
c-82 0 -127 -10 -127 -10l-25 114s60 13 152 13h263h146l2 -117h-2c0 -305 -156 -468 -332 -513c-42 -10 -84 -15 -124 -15c-139 0 -268 54 -345 141c-117 134 -179 281 -179 509c0 69 6 146 18 230c17 119 94 264 183 343c99 89 208 117 320 117z" />
    <glyph glyph-name="H" unicode="H" horiz-adv-x="1179" 
d="M941 1339l114 -7s1 -30 3 -104v-548c0 -124 3 -246 3 -338v-124v-37c2 -64 7 -129 9 -174l-114 -5c-2 42 -10 108 -12 177v163v338v19h-176h-162c-87 -2 -176 -5 -250 -10c-47 -2 -92 -7 -119 -12v-20c0 -246 2 -500 2 -545v-65v-52l-114 7s0 31 -2 105v2v548
c0 124 -3 238 -3 330v119v50c-2 64 -8 126 -10 171l114 7c2 -42 8 -107 10 -176c0 -17 3 -74 3 -166v-189c32 5 69 6 111 8c77 5 169 8 258 10h87h149h102c0 191 -3 365 -3 402v2v65v49z" />
    <glyph glyph-name="K" unicode="K" horiz-adv-x="1079" 
d="M236 999v-372c92 124 216 256 333 375c184 184 349 330 349 330l80 -92s-164 -144 -343 -325c-57 -60 -118 -121 -173 -183c0 -2 116 -127 240 -276c126 -149 261 -312 313 -414l-109 -57c-37 69 -174 246 -298 392c-107 126 -201 230 -226 260
c-79 -94 -141 -184 -168 -248v-272c-2 -69 -8 -124 -8 -124l-116 12s5 50 7 114c0 52 1 300 3 546v342c-2 64 -8 285 -10 330l116 7c2 -42 8 -276 10 -345z" />
    <glyph glyph-name="L" unicode="L" horiz-adv-x="1051" 
d="M109 1332l114 -8v-12c0 -30 6 -81 6 -136v-25v-161v-335c0 -238 -3 -479 -3 -541h320h278c62 2 82 10 124 22l34 -111c-42 -12 -84 -23 -156 -25h-280h-327l-110 -7v52v64v3c0 47 3 297 3 543v335s2 149 2 166v20c0 47 -5 94 -5 136v20z" />
    <glyph glyph-name="M" unicode="M" horiz-adv-x="1279" 
d="M219 1337c27 -30 62 -82 107 -154s99 -159 151 -243c77 -126 116 -194 146 -246c32 52 74 120 156 246c55 84 110 171 157 243c47 69 79 121 106 151h3v3l2 -3l112 -7v-45v-59v-3c0 -50 2 -299 2 -545v-338c0 -89 3 -161 3 -161c2 -64 8 -129 10 -174l-117 -7
c-2 42 -8 110 -10 179v163v338c0 174 -2 346 -2 453c-2 -5 -6 -7 -8 -12c-47 -69 -101 -157 -156 -241c-107 -169 -203 -324 -203 -324l-18 -30h-34h-5h-35l-17 30s-94 158 -196 327c-47 79 -100 161 -142 228v-112v-334c0 -246 3 -499 3 -546v-64v-52l-114 7s-1 30 -3 104
v3v548v334c0 89 -2 162 -2 162c-2 64 -8 128 -10 173l112 8h2z" />
    <glyph glyph-name="N" unicode="N" horiz-adv-x="1231" 
d="M123 1158c-2 64 -8 129 -10 174l112 7l2 3c15 -17 32 -45 62 -85s65 -91 107 -153c84 -122 188 -278 290 -432c114 -174 223 -337 300 -451v441c0 124 3 243 3 335v166c2 69 8 134 10 176l116 -7c-2 -45 -10 -110 -12 -174v-161v-337c0 -246 -3 -496 -3 -546v-2v-60v-45
l-116 -7v5c-2 2 -194 297 -397 600c-102 154 -206 307 -290 429c-20 30 -40 59 -57 84v-121v-335c0 -246 2 -500 2 -545v-65v-52l-114 7s0 31 -2 105v2v548c0 124 -3 404 -3 496z" />
    <glyph glyph-name="O" unicode="O" horiz-adv-x="1263" 
d="M652 1334h23c149 0 307 -71 409 -245c72 -124 101 -256 101 -405v-49c-5 -117 -15 -261 -109 -417c-87 -144 -255 -223 -446 -223h-25c-129 5 -255 37 -364 139c-92 87 -169 236 -176 360c-2 32 -3 62 -3 89c0 322 132 499 206 583l2 2c84 89 226 159 382 166zM657 1215
c-122 -5 -242 -67 -302 -129c-67 -74 -176 -210 -176 -498c0 -27 0 -57 2 -87c5 -72 81 -223 141 -280c84 -79 174 -104 288 -109h27c154 0 274 61 338 168c79 131 89 246 94 360c0 17 2 37 2 54c0 126 -24 236 -86 338c-82 141 -194 183 -308 183h-20z" />
    <glyph glyph-name="P" unicode="P" horiz-adv-x="1053" 
d="M119 987v310v27l117 8v-3c50 0 99 3 151 3h22c55 0 114 -3 169 -8c126 -12 248 -47 332 -144c55 -64 77 -151 77 -243s-25 -185 -82 -257c-74 -92 -176 -139 -295 -164c-87 -17 -179 -25 -283 -25c-30 0 -62 3 -94 3c0 -184 -3 -345 -3 -380v-2c-2 -69 -7 -122 -7 -122
l-114 12s5 48 7 112c0 52 1 298 3 541v332zM411 1218c-57 0 -115 -5 -175 -5v-62v-52v-112c0 -92 -3 -210 -3 -332v-45c40 -2 76 -2 111 -2c92 0 174 4 243 19c102 20 177 57 229 124c35 45 57 117 57 186s-23 137 -50 169c-57 64 -146 92 -258 104c-50 5 -99 8 -154 8z" />
    <glyph glyph-name="Q" unicode="Q" horiz-adv-x="1252" 
d="M622 1335h10c188 0 352 -80 439 -224c94 -156 107 -297 112 -414c0 -17 3 -38 3 -55c0 -144 -30 -277 -102 -401c-52 -89 -122 -151 -199 -191c2 -15 8 -23 20 -33c15 -12 45 -24 80 -29c20 -2 40 -5 57 -5c47 0 86 7 86 7l18 -116s-40 -5 -92 -5c-27 0 -57 0 -87 5
c-45 7 -92 20 -134 52c-25 20 -47 49 -57 84c-40 -7 -79 -12 -119 -12h-25c-164 7 -317 77 -404 166l-2 2c-104 126 -171 276 -171 494c0 55 2 117 12 181c20 146 87 272 174 354c107 102 233 135 362 140h19zM640 1218h-32c-114 -5 -204 -30 -288 -109
c-64 -60 -122 -167 -139 -286c-10 -64 -12 -123 -12 -173c0 -186 54 -295 146 -407c17 -17 39 -38 69 -55c0 62 20 114 50 154c47 60 114 89 174 89c87 0 166 -44 213 -111c30 -40 47 -89 57 -141c40 27 77 67 107 119c60 102 84 213 84 339c0 17 -3 38 -3 55
c-5 114 -15 226 -94 357c-62 104 -178 167 -332 169zM610 312c-22 0 -62 -12 -84 -42c-12 -17 -25 -39 -25 -74c0 -17 3 -38 10 -60c40 -12 84 -19 126 -21h23c37 0 71 4 106 11c-5 50 -20 95 -42 127c-30 40 -64 59 -114 59z" />
    <glyph glyph-name="R" unicode="R" horiz-adv-x="1102" 
d="M337 1335c263 0 453 -30 577 -184c57 -72 88 -144 93 -238v-33c0 -84 -28 -165 -75 -225c-67 -84 -156 -122 -263 -139c92 -117 248 -310 320 -387c5 -5 65 -50 77 -50l-45 -114c-40 17 -89 47 -119 82c-104 109 -320 380 -382 459c-92 7 -188 22 -285 37v-421
c2 -64 7 -112 7 -112l-114 -15s-5 55 -7 124v3c0 45 -3 295 -3 538s-2 479 -2 496c0 64 0 106 -5 166c37 2 171 11 226 13zM890 905c-20 241 -238 313 -548 313c-35 0 -70 -3 -110 -3v-59c0 -15 3 -251 3 -494v-2c114 -17 216 -45 315 -45c17 0 37 1 54 3
c129 15 286 78 286 262v25z" />
    <glyph glyph-name="S" unicode="S" horiz-adv-x="1086" 
d="M536 1334c77 0 159 -10 233 -37c99 -37 186 -109 208 -228l-114 -22c-15 74 -60 116 -134 143c-57 20 -127 30 -196 30c-20 0 -42 0 -62 -2c-79 -7 -154 -38 -196 -80c-30 -30 -47 -64 -47 -106c0 -20 3 -40 10 -62c17 -60 52 -89 112 -114s136 -40 220 -55
s174 -30 253 -67s154 -96 189 -193c20 -52 28 -102 28 -149c0 -79 -23 -151 -63 -208c-62 -92 -156 -152 -253 -174c-50 -12 -107 -17 -164 -17c-55 0 -113 4 -168 19c-114 30 -228 92 -285 211c-52 104 -55 196 -55 221v5l114 -10v-5c0 -20 2 -80 42 -159
c40 -82 117 -129 211 -151c47 -10 96 -14 146 -14c47 0 94 5 134 12c67 15 139 62 184 126c27 40 45 87 45 139c0 35 -8 72 -23 114c-25 64 -67 102 -129 129s-141 44 -225 59s-169 27 -246 62s-146 92 -176 184c-10 30 -15 59 -15 89c0 77 32 147 79 194
c67 67 166 107 268 114c25 2 50 2 75 2z" />
    <glyph glyph-name="T" unicode="T" horiz-adv-x="1212" 
d="M526 1213c-203 0 -402 2 -466 2v122c126 0 756 -5 947 -5c62 0 139 -13 139 -13l-20 -121s-79 12 -119 12h-367c0 -20 2 -37 2 -57c0 -17 3 -71 3 -163v-338v-545c2 -77 2 -114 2 -114l-114 7s0 30 -2 104v538s0 524 -5 571z" />
    <glyph glyph-name="U" unicode="U" horiz-adv-x="1223" 
d="M1013 1344l111 -17c-10 -62 -15 -84 -15 -139c0 -154 3 -287 3 -404c0 -97 -3 -184 -8 -261c-12 -169 -44 -297 -131 -389c-89 -94 -226 -136 -357 -141h-27c-122 0 -243 30 -320 109c-89 92 -135 208 -152 362s-13 354 -15 642v109c0 40 1 80 3 127l114 -5
c-2 -47 -3 -85 -3 -122v-109c2 -288 -2 -489 15 -630s47 -220 119 -292c45 -45 139 -77 241 -77h20c109 5 220 42 280 106c60 62 87 159 99 318c5 62 8 131 8 208c0 126 -5 275 -5 449c0 64 10 96 20 156z" />
    <glyph glyph-name="V" unicode="V" horiz-adv-x="1118" 
d="M143 1354c25 -47 59 -139 104 -265s97 -280 149 -429c74 -218 115 -328 147 -425c35 97 75 209 152 425c55 149 109 300 156 426c48 129 71 192 107 266l103 -57c-12 -27 -52 -127 -99 -251s-101 -277 -156 -426c-107 -298 -206 -578 -206 -578l-12 -40h-45h-5h-44
l-13 40s-94 282 -196 580c-52 149 -104 303 -149 427s-87 228 -99 253z" />
    <glyph glyph-name="W" unicode="W" horiz-adv-x="1683" 
d="M148 1354c25 -47 59 -139 104 -265s100 -283 152 -432c72 -206 102 -299 137 -401c25 87 37 136 77 280c64 241 136 506 148 573l10 49l50 -2h7h52l8 -52c2 -27 25 -112 52 -216s62 -228 97 -350c42 -151 60 -205 85 -292c35 99 72 200 146 411c55 149 109 303 156 429
s85 218 107 263l103 -54c-12 -27 -52 -129 -99 -253s-101 -278 -156 -427c-107 -298 -204 -578 -204 -578l-14 -39h-43h-5h-47l-12 42s-65 229 -134 470c-35 119 -70 246 -97 350c-27 -104 -62 -231 -94 -353c-64 -241 -126 -465 -126 -465l-13 -44h-44h-8h-42l-15 42
s-94 280 -196 578c-52 149 -104 305 -149 429s-84 225 -96 250z" />
    <glyph glyph-name="X" unicode="X" horiz-adv-x="1257" 
d="M1056 1366l95 -69l-471 -622c181 -250 362 -479 518 -615l-77 -92c-164 144 -342 366 -518 607l-454 -597l-94 72l476 625c-149 208 -293 424 -427 612l97 70c126 -181 265 -387 404 -583z" />
    <glyph glyph-name="Y" unicode="Y" horiz-adv-x="1125" 
d="M145 1359c32 -62 146 -235 250 -389c79 -117 126 -176 156 -221c32 42 78 101 162 218c109 151 229 330 261 390l105 -57c-45 -84 -159 -251 -268 -405c-104 -146 -196 -270 -206 -282c0 -50 -2 -104 -2 -164c-2 -139 -5 -287 -5 -332v-3v-64v-52l-117 4v45v62v3
c0 52 3 198 5 339c2 62 3 121 3 171c-20 27 -99 144 -191 278c-104 154 -219 320 -261 402z" />
    <glyph glyph-name="Z" unicode="Z" horiz-adv-x="1197" 
d="M55 77l892 1136c-203 0 -671 -3 -793 -3v122c124 0 625 3 816 3c62 0 136 -13 136 -13c-2 -25 -15 -110 -17 -122l-848 -1078c129 0 436 -3 590 -3h62c89 0 117 2 186 22l35 -116c-40 -12 -82 -23 -154 -25h-261h-555z" />
    <glyph glyph-name="I" unicode="I" horiz-adv-x="414" 
d="M142 1334l114 -7s0 -30 2 -104c0 -50 3 -302 3 -548v-303c0 -146 0 -231 10 -370l-114 -4c-2 42 -8 107 -10 176v163s-3 214 -3 338v339s0 226 -2 320z" />
    <glyph glyph-name="J" unicode="J" horiz-adv-x="1128" 
d="M1091 1329c0 -20 3 -40 3 -57c0 -20 -1 -40 -3 -57h-275h-5c20 -191 28 -421 28 -555c0 -263 -20 -407 -102 -531c-64 -92 -172 -132 -276 -134h-10c-102 0 -203 37 -263 114c-99 124 -107 238 -114 290l112 20c10 -67 10 -139 89 -238c32 -42 107 -72 184 -72
s146 29 181 84c57 84 87 161 87 392c0 30 -3 60 -3 95c0 107 -12 389 -27 535c-32 0 -163 3 -208 3c-87 -2 -137 -13 -137 -13l-30 109s65 16 164 18c37 0 159 -3 191 -3h3h4h407z" />
    <glyph glyph-name="zero" unicode="0" horiz-adv-x="907" 
d="M459 1295c114 0 213 -74 280 -186s107 -263 107 -442s-38 -340 -102 -459c-67 -119 -164 -203 -283 -203c-112 0 -215 67 -282 176s-107 260 -107 439c0 181 37 342 104 464c64 124 164 211 283 211zM459 1183c-62 0 -129 -49 -184 -151s-91 -248 -91 -412
c0 -161 39 -293 91 -377c55 -87 119 -126 186 -126c64 0 129 47 184 146c52 99 87 240 87 404c0 161 -38 296 -90 385s-116 131 -183 131z" />
    <glyph glyph-name="period" unicode="." horiz-adv-x="443" 
d="M141 151l152 -2l-3 -149h-149v151z" />
    <glyph glyph-name="comma" unicode="," horiz-adv-x="421" 
d="M124 152h148v-152c0 -52 -7 -111 -29 -151c-27 -47 -77 -92 -119 -109c-5 12 -35 66 -50 91c42 22 55 47 67 67c15 30 18 57 18 82v20h-33z" />
    <glyph glyph-name="eacute" unicode="&#xe9;" horiz-adv-x="1051" 
d="M726 1468.4l62 -90c-117 -97 -295 -158 -444 -200l-34 94c144 45 292 99 416 196zM543 1042c256 0 394 -162 427 -382c2 -37 5 -75 5 -97v-22l-5 -52l-55 -2s-169 -8 -345 -13c-151 -7 -292 -14 -376 -19c12 -112 49 -214 111 -274c67 -62 149 -81 233 -81
c37 0 85 5 122 12c139 30 218 131 218 131l94 -74s-106 -129 -290 -169c-47 -7 -94 -14 -146 -14c-104 0 -218 27 -310 114c-107 102 -157 257 -157 426c0 17 1 33 3 50c13 249 189 466 471 466zM192 579c89 7 234 16 388 21c144 5 236 8 276 8c0 17 -1 20 -3 45
c-22 167 -145 275 -310 275c-215 0 -345 -163 -351 -349z" />
    <glyph glyph-name="egrave" unicode="&#xe8;" horiz-adv-x="1051" 
d="M357 1453.4c124 -97 273 -151 417 -196l-36 -94c-149 42 -326 103 -443 200zM543 1042c256 0 394 -162 427 -382c2 -37 5 -75 5 -97v-22l-5 -52l-55 -2s-169 -8 -345 -13c-151 -7 -292 -14 -376 -19c12 -112 49 -214 111 -274c67 -62 149 -81 233 -81c37 0 85 5 122 12
c139 30 218 131 218 131l94 -74s-106 -129 -290 -169c-47 -7 -94 -14 -146 -14c-104 0 -218 27 -310 114c-107 102 -157 257 -157 426c0 17 1 33 3 50c13 249 189 466 471 466zM192 579c89 7 234 16 388 21c144 5 236 8 276 8c0 17 -1 20 -3 45c-22 167 -145 275 -310 275
c-215 0 -345 -163 -351 -349z" />
    <glyph glyph-name="ecircumflex" unicode="&#xea;" horiz-adv-x="1051" 
d="M533 1462.1l294 -213l-56 -87l-238 159l-238 -159l-58 87zM543 1042c256 0 394 -162 427 -382c2 -37 5 -75 5 -97v-22l-5 -52l-55 -2s-169 -8 -345 -13c-151 -7 -292 -14 -376 -19c12 -112 49 -214 111 -274c67 -62 149 -81 233 -81c37 0 85 5 122 12
c139 30 218 131 218 131l94 -74s-106 -129 -290 -169c-47 -7 -94 -14 -146 -14c-104 0 -218 27 -310 114c-107 102 -157 257 -157 426c0 17 1 33 3 50c13 249 189 466 471 466zM192 579c89 7 234 16 388 21c144 5 236 8 276 8c0 17 -1 20 -3 45c-22 167 -145 275 -310 275
c-215 0 -345 -163 -351 -349z" />
    <glyph glyph-name="edieresis" unicode="&#xeb;" horiz-adv-x="1051" 
d="M627.5 1329.8h129v-129l-129 -2v131zM285.5 1327.8h130v-129l-130 -3v132zM543 1042c256 0 394 -162 427 -382c2 -37 5 -75 5 -97v-22l-5 -52l-55 -2s-169 -8 -345 -13c-151 -7 -292 -14 -376 -19c12 -112 49 -214 111 -274c67 -62 149 -81 233 -81c37 0 85 5 122 12
c139 30 218 131 218 131l94 -74s-106 -129 -290 -169c-47 -7 -94 -14 -146 -14c-104 0 -218 27 -310 114c-107 102 -157 257 -157 426c0 17 1 33 3 50c13 249 189 466 471 466zM192 579c89 7 234 16 388 21c144 5 236 8 276 8c0 17 -1 20 -3 45c-22 167 -145 275 -310 275
c-215 0 -345 -163 -351 -349z" />
    <glyph glyph-name="agrave" unicode="&#xe0;" horiz-adv-x="1010" 
d="M303 1447.53c124 -97 273 -151 417 -196l-36 -94c-149 42 -326 103 -443 200zM564 637c70 -5 119 -19 169 -44v62c0 111 -28 171 -75 208c-47 35 -111 52 -171 52c-141 -2 -219 -42 -308 -193l-94 57c102 174 231 246 400 248h14c72 0 157 -17 226 -72
c77 -57 122 -151 122 -293v-447c0 -35 10 -62 22 -77c10 -12 35 -32 70 -57l-70 -91c-32 25 -64 47 -91 79c-17 27 -33 62 -38 102c-42 -45 -79 -98 -156 -133c-55 -25 -130 -45 -204 -45c-64 0 -128 13 -188 50c-84 55 -132 152 -132 251c0 74 28 154 90 214
c102 97 233 132 352 132c20 0 42 -1 62 -3zM733 459c-15 7 -39 22 -64 32c-40 15 -63 27 -118 32c-15 2 -34 3 -49 3c-97 0 -196 -30 -273 -104c-40 -37 -57 -85 -57 -130c0 -62 30 -125 77 -155c32 -20 79 -30 124 -30c60 0 124 15 161 32c134 64 179 145 199 180v140z" />
    <glyph glyph-name="aacute" unicode="&#xe1;" horiz-adv-x="1010" 
d="M672 1462.53l62 -90c-117 -97 -295 -158 -444 -200l-34 94c144 45 292 99 416 196zM564 637c70 -5 119 -19 169 -44v62c0 111 -28 171 -75 208c-47 35 -111 52 -171 52c-141 -2 -219 -42 -308 -193l-94 57c102 174 231 246 400 248h14c72 0 157 -17 226 -72
c77 -57 122 -151 122 -293v-447c0 -35 10 -62 22 -77c10 -12 35 -32 70 -57l-70 -91c-32 25 -64 47 -91 79c-17 27 -33 62 -38 102c-42 -45 -79 -98 -156 -133c-55 -25 -130 -45 -204 -45c-64 0 -128 13 -188 50c-84 55 -132 152 -132 251c0 74 28 154 90 214
c102 97 233 132 352 132c20 0 42 -1 62 -3zM733 459c-15 7 -39 22 -64 32c-40 15 -63 27 -118 32c-15 2 -34 3 -49 3c-97 0 -196 -30 -273 -104c-40 -37 -57 -85 -57 -130c0 -62 30 -125 77 -155c32 -20 79 -30 124 -30c60 0 124 15 161 32c134 64 179 145 199 180v140z" />
    <glyph glyph-name="acircumflex" unicode="&#xe2;" horiz-adv-x="1010" 
d="M476.56 1450.6l294 -213l-56 -87l-238 159l-238 -159l-58 87zM564 637c70 -5 119 -19 169 -44v62c0 111 -28 171 -75 208c-47 35 -111 52 -171 52c-141 -2 -219 -42 -308 -193l-94 57c102 174 231 246 400 248h14c72 0 157 -17 226 -72c77 -57 122 -151 122 -293v-447
c0 -35 10 -62 22 -77c10 -12 35 -32 70 -57l-70 -91c-32 25 -64 47 -91 79c-17 27 -33 62 -38 102c-42 -45 -79 -98 -156 -133c-55 -25 -130 -45 -204 -45c-64 0 -128 13 -188 50c-84 55 -132 152 -132 251c0 74 28 154 90 214c102 97 233 132 352 132c20 0 42 -1 62 -3z
M733 459c-15 7 -39 22 -64 32c-40 15 -63 27 -118 32c-15 2 -34 3 -49 3c-97 0 -196 -30 -273 -104c-40 -37 -57 -85 -57 -130c0 -62 30 -125 77 -155c32 -20 79 -30 124 -30c60 0 124 15 161 32c134 64 179 145 199 180v140z" />
    <glyph glyph-name="atilde" unicode="&#xe3;" horiz-adv-x="1010" 
d="M160.84 1262.24c57 102 114 137 174 137c102 0 199 -95 273 -95c37 0 69 23 94 87l81 -70c-60 -97 -120 -126 -180 -126c-97 0 -189 92 -263 92c-32 0 -59 -22 -84 -82zM564 637c70 -5 119 -19 169 -44v62c0 111 -28 171 -75 208c-47 35 -111 52 -171 52
c-141 -2 -219 -42 -308 -193l-94 57c102 174 231 246 400 248h14c72 0 157 -17 226 -72c77 -57 122 -151 122 -293v-447c0 -35 10 -62 22 -77c10 -12 35 -32 70 -57l-70 -91c-32 25 -64 47 -91 79c-17 27 -33 62 -38 102c-42 -45 -79 -98 -156 -133
c-55 -25 -130 -45 -204 -45c-64 0 -128 13 -188 50c-84 55 -132 152 -132 251c0 74 28 154 90 214c102 97 233 132 352 132c20 0 42 -1 62 -3zM733 459c-15 7 -39 22 -64 32c-40 15 -63 27 -118 32c-15 2 -34 3 -49 3c-97 0 -196 -30 -273 -104c-40 -37 -57 -85 -57 -130
c0 -62 30 -125 77 -155c32 -20 79 -30 124 -30c60 0 124 15 161 32c134 64 179 145 199 180v140z" />
    <glyph glyph-name="adieresis" unicode="&#xe4;" horiz-adv-x="1010" 
d="M592.76 1332h129v-129l-129 -2v131zM250.76 1330h130v-129l-130 -3v132zM564 637c70 -5 119 -19 169 -44v62c0 111 -28 171 -75 208c-47 35 -111 52 -171 52c-141 -2 -219 -42 -308 -193l-94 57c102 174 231 246 400 248h14c72 0 157 -17 226 -72
c77 -57 122 -151 122 -293v-447c0 -35 10 -62 22 -77c10 -12 35 -32 70 -57l-70 -91c-32 25 -64 47 -91 79c-17 27 -33 62 -38 102c-42 -45 -79 -98 -156 -133c-55 -25 -130 -45 -204 -45c-64 0 -128 13 -188 50c-84 55 -132 152 -132 251c0 74 28 154 90 214
c102 97 233 132 352 132c20 0 42 -1 62 -3zM733 459c-15 7 -39 22 -64 32c-40 15 -63 27 -118 32c-15 2 -34 3 -49 3c-97 0 -196 -30 -273 -104c-40 -37 -57 -85 -57 -130c0 -62 30 -125 77 -155c32 -20 79 -30 124 -30c60 0 124 15 161 32c134 64 179 145 199 180v140z" />
    <glyph glyph-name="aring" unicode="&#xe5;" horiz-adv-x="989" 
d="M144 295c0 -114 82 -181 201 -181c60 0 121 15 158 32c131 64 201 166 221 201c0 35 3 72 3 112c-15 7 -37 22 -62 32c-52 20 -120 35 -194 35c-129 0 -327 -75 -327 -231zM471 638c92 0 174 -18 238 -43c2 0 8 -3 13 -5c0 17 -3 38 -3 60c-15 179 -99 260 -263 260
c-139 0 -216 -42 -305 -191l-94 57c79 134 173 206 290 233c-64 30 -106 85 -106 149c0 94 99 174 223 174s223 -80 223 -174c0 -64 -45 -121 -112 -151c151 -40 244 -159 256 -350c5 -62 8 -159 8 -196c0 -79 -3 -106 -3 -151c0 -22 1 -49 3 -89c2 -45 10 -62 22 -77
c10 -12 34 -30 69 -55l-69 -91c-32 25 -67 44 -92 79c-20 25 -32 59 -37 99c-77 -82 -211 -176 -382 -176c-64 0 -126 13 -186 50c-84 55 -132 149 -132 248c0 74 28 150 90 210c102 97 230 130 349 130zM345 1156c0 -50 52 -92 116 -92s117 42 117 92s-53 89 -117 89
s-116 -39 -116 -89z" />
    <glyph glyph-name="ae" unicode="&#xe6;" horiz-adv-x="1495" 
d="M707 660c-12 186 -89 255 -253 255c-139 0 -213 -37 -305 -191l-99 57c104 176 238 246 404 248c77 0 163 -12 235 -69c25 -17 45 -43 62 -70c47 69 147 137 286 137c104 0 233 -43 327 -157c55 -64 72 -146 79 -210c2 -27 6 -52 6 -72c0 -25 -3 -42 -3 -42v-55h-55
s-122 0 -263 -2c-119 -2 -233 -8 -307 -13c0 -57 -3 -116 -3 -168c0 -42 3 -80 5 -107c2 -12 3 -25 5 -30c30 -40 85 -54 157 -54c55 0 111 9 161 19c134 30 213 122 213 122l87 -72s-99 -121 -275 -161c-55 -12 -119 -23 -186 -23h-35c-74 5 -149 33 -204 95l-2 -3l-7 8
l2 2c-12 15 -20 25 -22 37v3c-77 -67 -221 -151 -375 -151c-64 0 -131 15 -188 52c-84 55 -132 149 -132 248c0 77 31 153 95 215c104 99 235 135 354 135c89 0 174 -20 238 -45c0 20 -2 42 -2 62zM823 590c107 7 397 15 509 15c0 72 -20 146 -57 191
c-69 84 -169 114 -241 114h-17c-10 0 -20 0 -30 -2c-112 -20 -137 -55 -154 -107c-10 -30 -10 -69 -10 -114v-97zM707 471c-57 30 -132 55 -221 55h-12c-99 0 -202 -25 -281 -102c-40 -37 -57 -84 -57 -129c0 -62 32 -122 82 -154c32 -22 79 -29 124 -29c60 0 121 15 161 32
c87 40 137 84 169 116c15 17 27 31 32 38v7c0 52 3 109 3 166z" />
    <glyph glyph-name="colon" unicode=":" horiz-adv-x="562" 
d="M211 1019h151l-2 -151h-149v151zM203 151l149 -2v-149h-149v151z" />
    <glyph glyph-name="semicolon" unicode=";" horiz-adv-x="627" 
d="M263 1021l151 -2l-2 -149h-149v151zM260 151h146v-151c0 -52 -5 -111 -27 -151c-27 -47 -77 -92 -119 -109c-5 12 -34 66 -49 91c42 22 55 47 67 67c15 30 17 57 17 82v20h-35v151z" />
    <glyph glyph-name="exclam" unicode="!" horiz-adv-x="503" 
d="M179 151l151 -2l-2 -149h-149v151zM196 1337h129c-7 -347 -5 -677 -10 -1027l-117 2z" />
    <glyph glyph-name="space" unicode=" " horiz-adv-x="796" 
 />
    <glyph glyph-name="quotesingle" unicode="'" horiz-adv-x="466" 
d="M315 1413c5 -30 8 -59 8 -89c0 -79 -18 -161 -40 -230c-32 -99 -72 -177 -129 -224l-75 95c17 12 65 81 92 163c20 64 35 137 35 204c0 22 -3 42 -5 62z" />
    <glyph glyph-name="Agrave" unicode="&#xc0;" horiz-adv-x="1195" 
d="M427 1701.52c124 -97 273 -151 417 -196l-36 -94c-149 42 -326 103 -443 200zM556 1332h109l481 -1320l-109 -39l-194 525c-45 0 -129 0 -221 -2c-67 -2 -135 -5 -190 -10c-30 -2 -58 -7 -75 -12l-186 -496l-109 39zM608 1141l-201 -538h12c60 5 134 10 201 12h64h117z
" />
    <glyph glyph-name="Aacute" unicode="&#xc1;" horiz-adv-x="1195" 
d="M793.68 1701.52l62 -90c-117 -97 -295 -158 -444 -200l-35 94c144 45 293 99 417 196zM556 1332h109l481 -1320l-109 -39l-194 525c-45 0 -129 0 -221 -2c-67 -2 -135 -5 -190 -10c-30 -2 -58 -7 -75 -12l-186 -496l-109 39zM608 1141l-201 -538h12c60 5 134 10 201 12
h64h117z" />
    <glyph glyph-name="Acircumflex" unicode="&#xc2;" horiz-adv-x="1195" 
d="M615.44 1710.64l294 -213l-56 -87l-238 159l-238 -159l-58 87zM556 1332h109l481 -1320l-109 -39l-194 525c-45 0 -129 0 -221 -2c-67 -2 -135 -5 -190 -10c-30 -2 -58 -7 -75 -12l-186 -496l-109 39zM608 1141l-201 -538h12c60 5 134 10 201 12h64h117z" />
    <glyph glyph-name="Atilde" unicode="&#xc3;" horiz-adv-x="1195" 
d="M299.72 1478.32c57 102 114 137 174 137c102 0 199 -95 273 -95c37 0 69 23 94 87l81 -70c-60 -97 -120 -126 -180 -126c-97 0 -189 92 -263 92c-32 0 -59 -22 -84 -82zM556 1332h109l481 -1320l-109 -39l-194 525c-45 0 -129 0 -221 -2c-67 -2 -135 -5 -190 -10
c-30 -2 -58 -7 -75 -12l-186 -496l-109 39zM608 1141l-201 -538h12c60 5 134 10 201 12h64h117z" />
    <glyph glyph-name="Adieresis" unicode="&#xc4;" horiz-adv-x="1195" 
d="M713.8 1554.64h129v-129l-129 -2v131zM371.8 1552.64h130v-129l-130 -3v132zM556 1332h109l481 -1320l-109 -39l-194 525c-45 0 -129 0 -221 -2c-67 -2 -135 -5 -190 -10c-30 -2 -58 -7 -75 -12l-186 -496l-109 39zM608 1141l-201 -538h12c60 5 134 10 201 12h64h117z
" />
    <glyph glyph-name="Aring" unicode="&#xc5;" horiz-adv-x="1195" 
d="M489 1446c0 -50 52 -92 116 -92s117 42 117 92s-53 89 -117 89s-116 -39 -116 -89zM382 1446c0 97 99 176 223 176s226 -79 226 -176c0 -74 -63 -141 -147 -166l462 -1268l-109 -39l-194 525c-45 0 -129 0 -221 -2c-67 -2 -135 -5 -190 -10c-30 -2 -58 -7 -75 -12
l-186 -496l-109 39l474 1260c-89 22 -154 92 -154 169zM608 1141l-201 -538h12c60 5 134 10 201 12h64h117z" />
    <glyph glyph-name="igrave" unicode="&#xec;" horiz-adv-x="500" 
d="M66 1450.8c124 -97 273 -151 417 -196l-36 -94c-149 42 -326 103 -443 200zM298 1029c0 0 4 -37 4 -92v-158c0 -171 -2 -392 -4 -568c5 -42 12 -63 24 -80c12 -15 35 -32 70 -57l-60 -76c-35 15 -79 34 -104 69s-39 79 -44 136v3c2 176 4 402 4 573v158v87z" />
    <glyph glyph-name="iacute" unicode="&#xed;" horiz-adv-x="500" 
d="M435 1467.5l62 -90c-117 -97 -295 -158 -444 -200l-34 94c144 45 292 99 416 196zM298 1029c0 0 4 -37 4 -92v-158c0 -171 -2 -392 -4 -568c5 -42 12 -63 24 -80c12 -15 35 -32 70 -57l-60 -76c-35 15 -79 34 -104 69s-39 79 -44 136v3c2 176 4 402 4 573v158v87z" />
    <glyph glyph-name="icircumflex" unicode="&#xee;" horiz-adv-x="500" 
d="M242 1459.5l294 -213l-56 -87l-238 159l-238 -159l-58 87zM298 1029c0 0 4 -37 4 -92v-158c0 -171 -2 -392 -4 -568c5 -42 12 -63 24 -80c12 -15 35 -32 70 -57l-60 -76c-35 15 -79 34 -104 69s-39 79 -44 136v3c2 176 4 402 4 573v158v87z" />
    <glyph glyph-name="idieresis" unicode="&#xef;" horiz-adv-x="500" 
d="M304 1330h129v-129l-129 -2v131zM54 1330h129v-129l-129 -2v131zM298 1029c0 0 4 -37 4 -92v-158c0 -171 -2 -392 -4 -568c5 -42 12 -63 24 -80c12 -15 35 -32 70 -57l-60 -76c-35 15 -79 34 -104 69s-39 79 -44 136v3c2 176 4 402 4 573v158v87z" />
    <glyph glyph-name="ccedilla" unicode="&#xe7;" horiz-adv-x="994" 
d="M523 1020c42 0 87 -11 127 -21c104 -25 163 -91 198 -183l-104 -45c-30 79 -45 99 -122 119c-37 7 -79 18 -119 18c-102 0 -208 -35 -277 -119c-32 -42 -77 -122 -77 -271c0 -42 8 -91 15 -151c7 -50 69 -153 116 -188c72 -47 139 -65 226 -65h22c144 2 243 57 298 139
l94 -62c-69 -104 -194 -174 -345 -186c-2 -27 -2 -30 0 -50c17 0 57 0 82 -10c22 -12 75 -32 75 -126v-20c-7 -92 -75 -126 -157 -126c-57 0 -124 17 -176 49c10 30 18 50 23 70c27 -15 76 -32 121 -32c42 0 80 17 82 69v2c0 50 -55 62 -102 62c-30 0 -55 -5 -62 -10
c0 27 1 92 3 122c-87 5 -169 27 -251 82c-89 64 -148 169 -163 263c-10 62 -13 119 -13 166c0 176 52 281 99 345c97 117 236 159 365 159h22z" />
    <glyph glyph-name="AE" unicode="&#xc6;" horiz-adv-x="1401" 
d="M655 650c-12 124 -23 255 -30 347c-5 92 -10 137 -10 154l-208 -548c-2 -5 7 0 12 0c60 5 134 10 201 12h37zM667 494c0 0 -2 -1 -2 -3c-67 0 -178 0 -233 -5c-30 -2 -58 -7 -75 -12l-186 -496l-109 39l491 1310h72c74 2 184 3 298 3h114c154 0 174 -3 258 -3v-114h-353
h-213v-67c0 -27 20 -259 27 -333c57 0 127 5 226 5h99l3 -114h-102c-99 0 -158 -5 -213 -5c0 -20 5 -32 5 -49c30 -243 44 -472 49 -536h370c62 2 82 8 124 20l32 -109c-42 -12 -82 -23 -154 -25h-377l-109 -5l-10 109z" />
    <glyph glyph-name="Ccedilla" unicode="&#xc7;" horiz-adv-x="1096" 
d="M650 2c0 -25 0 -27 2 -47c17 0 57 0 82 -10c22 -12 75 -32 75 -126v-20c-7 -92 -75 -126 -157 -126c-57 0 -124 17 -176 49c10 30 17 50 22 70c27 -15 77 -32 122 -32c42 0 80 17 82 69v2c0 50 -55 62 -102 62c-30 0 -55 -5 -62 -10c0 27 1 89 3 119
c-94 7 -187 41 -271 115c-89 82 -166 225 -183 344c-10 64 -13 124 -13 179c0 263 92 422 147 501c69 94 193 176 337 193c17 2 38 5 55 5c129 -2 263 -67 357 -221l-100 -59c-77 124 -166 161 -255 161c-12 0 -27 0 -42 -2c-104 -12 -208 -80 -258 -144v-3
c-50 -69 -124 -193 -124 -424c0 -52 5 -109 12 -171c10 -74 90 -221 147 -273c77 -69 148 -86 240 -86h20c146 5 253 74 310 191l104 -53c-72 -141 -205 -236 -374 -253z" />
    <glyph glyph-name="Egrave" unicode="&#xc8;" horiz-adv-x="1048" 
d="M339.92 1691.6c124 -97 273 -151 417 -196l-36 -94c-149 42 -326 103 -443 200zM428 1330h114c154 0 301 -3 385 -3v-114h-447h-245c-2 -22 -2 -43 -2 -65v-5v-158v-167h252h229l2 -114h-231h-252v-52c0 -236 -3 -476 -3 -538h317h278c62 2 82 8 124 20l32 -109
c-42 -12 -81 -23 -153 -25h-281h-325l-109 -5s1 37 3 114v3v540c0 122 2 243 2 335v164c2 69 8 131 10 173v3c77 2 186 3 300 3z" />
    <glyph glyph-name="Eacute" unicode="&#xc9;" horiz-adv-x="1048" 
d="M684.28 1681.68l62 -90c-117 -97 -295 -158 -444 -200l-35 94c144 45 293 99 417 196zM428 1330h114c154 0 301 -3 385 -3v-114h-447h-245c-2 -22 -2 -43 -2 -65v-5v-158v-167h252h229l2 -114h-231h-252v-52c0 -236 -3 -476 -3 -538h317h278c62 2 82 8 124 20l32 -109
c-42 -12 -81 -23 -153 -25h-281h-325l-109 -5s1 37 3 114v3v540c0 122 2 243 2 335v164c2 69 8 131 10 173v3c77 2 186 3 300 3z" />
    <glyph glyph-name="Ecircumflex" unicode="&#xca;" horiz-adv-x="1048" 
d="M515.96 1710.64l294 -213l-56 -87l-238 159l-238 -159l-58 87zM428 1330h114c154 0 301 -3 385 -3v-114h-447h-245c-2 -22 -2 -43 -2 -65v-5v-158v-167h252h229l2 -114h-231h-252v-52c0 -236 -3 -476 -3 -538h317h278c62 2 82 8 124 20l32 -109c-42 -12 -81 -23 -153 -25
h-281h-325l-109 -5s1 37 3 114v3v540c0 122 2 243 2 335v164c2 69 8 131 10 173v3c77 2 186 3 300 3z" />
    <glyph glyph-name="Edieresis" unicode="&#xcb;" horiz-adv-x="1048" 
d="M601.92 1544.72h129v-129l-129 -2v131zM259.92 1542.72h130v-129l-130 -3v132zM428 1330h114c154 0 301 -3 385 -3v-114h-447h-245c-2 -22 -2 -43 -2 -65v-5v-158v-167h252h229l2 -114h-231h-252v-52c0 -236 -3 -476 -3 -538h317h278c62 2 82 8 124 20l32 -109
c-42 -12 -81 -23 -153 -25h-281h-325l-109 -5s1 37 3 114v3v540c0 122 2 243 2 335v164c2 69 8 131 10 173v3c77 2 186 3 300 3z" />
    <glyph glyph-name="Igrave" unicode="&#xcc;" horiz-adv-x="414" 
d="M37.6396 1691.6c124 -97 273 -151 417 -196l-36 -94c-149 42 -326 103 -443 200zM142 1334l114 -7s0 -30 2 -104c0 -50 3 -302 3 -548v-303c0 -146 0 -231 10 -370l-114 -4c-2 42 -8 107 -10 176v163s-3 214 -3 338v339s0 226 -2 320z" />
    <glyph glyph-name="Iacute" unicode="&#xcd;" horiz-adv-x="414" 
d="M396.88 1696.56l62 -90c-117 -97 -295 -158 -444 -200l-35 94c144 45 293 99 417 196zM142 1334l114 -7s0 -30 2 -104c0 -50 3 -302 3 -548v-303c0 -146 0 -231 10 -370l-114 -4c-2 42 -8 107 -10 176v163s-3 214 -3 338v339s0 226 -2 320z" />
    <glyph glyph-name="Icircumflex" unicode="&#xce;" horiz-adv-x="414" 
d="M211.2 1705.68l294 -213l-56 -87l-238 159l-238 -159l-58 87zM142 1334l114 -7s0 -30 2 -104c0 -50 3 -302 3 -548v-303c0 -146 0 -231 10 -370l-114 -4c-2 42 -8 107 -10 176v163s-3 214 -3 338v339s0 226 -2 320z" />
    <glyph glyph-name="Idieresis" unicode="&#xcf;" horiz-adv-x="414" 
d="M312.04 1544.72h129v-129l-129 -2v131zM-29.96 1542.72h130v-129l-130 -3v132zM142 1334l114 -7s0 -30 2 -104c0 -50 3 -302 3 -548v-303c0 -146 0 -231 10 -370l-114 -4c-2 42 -8 107 -10 176v163s-3 214 -3 338v339s0 226 -2 320z" />
    <glyph glyph-name="quotedbl" unicode="&#x22;" horiz-adv-x="714" 
d="M578 1413c0 0 8 -59 8 -89c0 -79 -18 -161 -40 -230c-32 -99 -72 -177 -129 -224l-75 95c17 12 65 81 92 163c20 64 35 137 35 204c0 22 -5 62 -5 62zM315 1413c0 0 8 -59 8 -89c0 -79 -18 -161 -40 -230c-32 -99 -72 -177 -129 -224l-75 95c17 12 65 81 92 163
c20 64 35 137 35 204c0 22 -5 62 -5 62z" />
    <glyph glyph-name="numbersign" unicode="#" horiz-adv-x="1056" 
d="M382 1156l112 -8c-2 -40 -3 -104 -10 -171c0 -15 -16 -144 -23 -201c42 2 84 3 129 3h147c7 57 24 189 24 201c7 67 21 131 28 171l111 -20c-10 -42 -18 -105 -25 -169c0 0 -17 -134 -24 -181h141v-121s-67 2 -156 2c-10 -79 -11 -92 -23 -186c-7 -50 -9 -62 -14 -109
h188v-121s-91 2 -203 2c-15 -119 -36 -278 -38 -305v-3c-12 -72 -14 -101 -14 -101l-112 7s3 38 15 112c2 25 22 179 37 288h-87c-67 0 -127 -3 -191 -5c-12 -109 -30 -261 -32 -286v-2c-5 -74 -12 -112 -12 -112l-112 20s5 30 10 104c2 25 20 172 32 271
c-37 0 -72 -3 -99 -5c-30 -5 -52 -10 -52 -10l-42 112c25 10 47 12 79 14c35 5 74 8 119 10h10c7 62 10 80 17 144c10 82 10 79 20 151h-37c-42 -2 -79 -5 -109 -7c-27 -2 -50 -10 -50 -10l-44 112c25 10 50 12 82 17c32 2 71 5 116 7c17 2 38 3 55 3c10 72 25 213 25 213
c7 62 10 127 12 169zM593 660c-52 0 -99 -3 -149 -3c-7 -77 -7 -82 -17 -171c-7 -55 -8 -69 -15 -124c57 2 113 3 173 3h99c7 55 11 69 18 124c10 92 10 94 20 171h-85h-44z" />
    <glyph glyph-name="dollar" unicode="$" horiz-adv-x="1041" 
d="M719 1304c17 -5 38 -10 55 -17c97 -35 183 -109 203 -226l-109 -19c-15 74 -62 114 -134 141c-5 0 -10 3 -15 5v-417c37 -10 74 -22 109 -37c79 -35 149 -97 186 -191c17 -50 28 -99 28 -144c0 -79 -25 -149 -62 -206c-62 -92 -157 -149 -251 -171h-5
c2 -64 6 -124 8 -166l-112 -7c-2 37 -5 94 -10 158c-15 -2 -30 -2 -45 -2s-29 0 -44 2c2 -55 5 -103 7 -143l-111 -8c-2 42 -8 102 -10 169h-5c-112 30 -223 91 -280 208c-50 102 -53 191 -53 213v8l114 -10v-10c0 -22 5 -77 40 -151c35 -72 102 -117 184 -142
c-2 32 -3 72 -3 124v402v55c-30 7 -60 17 -87 29c-77 32 -143 89 -173 181c-7 30 -13 57 -13 87c0 74 30 141 77 191c52 50 122 85 196 102v5v2c-2 45 -2 80 -2 102v35l112 -8v-29s0 -50 2 -95h30c20 0 39 -2 59 -2v69v57l112 -10v-34c0 -20 0 -55 2 -100zM546 1210h-30
v-399c22 -2 42 -7 64 -9c10 -2 18 -6 28 -8v32v382c-20 2 -42 2 -62 2zM404 1195c-47 -15 -86 -37 -116 -64c-27 -30 -45 -62 -45 -104c0 -17 3 -38 10 -60c17 -60 52 -89 109 -114c12 -5 27 -10 42 -15v357zM516 697c2 -10 2 -20 2 -30v-402v-143c20 -2 43 -3 65 -3h27
c0 35 -2 79 -2 136v402v23c-15 5 -33 7 -48 9s-29 6 -44 8zM722 655v-400v-119c60 17 123 62 163 119c27 40 45 84 45 139c0 32 -7 69 -22 109c-25 64 -65 102 -127 129c-17 7 -39 16 -59 23z" />
    <glyph glyph-name="oe" unicode="&#x153;" horiz-adv-x="1478" 
d="M687 67c-62 -37 -139 -62 -223 -62c-27 0 -55 2 -82 7c-146 27 -248 112 -300 221c-32 69 -47 146 -47 228c0 47 5 97 15 147c25 131 86 246 178 320c72 57 162 91 261 91c27 0 52 -2 79 -7c52 -10 106 -28 151 -65c15 -10 27 -22 37 -34c40 50 102 87 194 104
c12 2 27 5 44 5h25c107 0 234 -42 328 -154c52 -64 69 -144 79 -208c5 -40 5 -72 5 -92v-22l-3 -55h-54s-124 0 -263 -2c-119 -2 -213 -8 -287 -13v-168c0 -42 2 -80 4 -107c2 -12 5 -22 5 -27c27 -35 52 -52 112 -57h17c55 0 117 9 169 19c134 30 211 124 211 124l86 -74
s-98 -119 -272 -159c-55 -12 -120 -22 -184 -22h-35c-74 5 -153 32 -208 94c0 -2 -42 -32 -42 -32zM1017 905c-10 0 -23 -2 -30 -2c-112 -22 -136 -57 -151 -107c-12 -40 -12 -92 -12 -149v-62c82 5 185 11 302 13c109 2 166 2 206 2c0 17 -1 18 -3 40
c-7 52 -24 114 -54 151c-69 84 -169 114 -241 114h-17zM702 246c5 17 5 42 5 57v81c0 67 0 139 2 199v74c0 27 1 55 3 82c-5 32 -13 89 -45 114c-30 25 -62 37 -102 42c-25 5 -49 8 -71 8c-69 -2 -129 -28 -179 -70c-67 -52 -116 -138 -136 -250c-7 -42 -13 -84 -13 -124
c0 -67 13 -129 35 -181c37 -82 99 -136 216 -156c22 -2 44 -5 64 -5c62 0 114 15 161 42c17 15 50 47 60 87z" />
    <glyph glyph-name="bracketleft" unicode="[" horiz-adv-x="679" 
d="M590 1428l15 3l13 -114s-60 -5 -127 -5c-27 -2 -198 -6 -307 -8c0 -22 -3 -29 -3 -59v-67s3 -94 3 -161c0 -134 0 -310 2 -486v-623v-141v-3v-47c109 2 271 5 293 5h24c64 0 132 -7 132 -7l-13 -114s-64 7 -121 7h-20c-37 0 -265 -3 -352 -5l-57 -2l-3 59s0 35 5 107v2
c0 42 0 407 -2 762c0 176 -1 352 -3 483v162v71c0 57 3 112 3 112l2 57h52c92 0 333 8 363 8c62 2 101 4 101 4z" />
    <glyph glyph-name="bracketright" unicode="]" horiz-adv-x="684" 
d="M489 489v813c-109 -2 -273 -2 -293 -2h-32c-62 0 -124 4 -124 4l10 112v3s67 -7 124 -7h19c37 0 264 2 353 4l55 3l2 -60s0 -33 -2 -107v-2v-136v-623c2 -179 2 -352 4 -486v-164v-69c-2 -55 -4 -114 -4 -114v-52l-55 -3c-92 0 -330 -5 -360 -7c-62 0 -119 -8 -119 -8
l-10 114s58 6 127 8c25 0 196 3 305 5c2 22 2 29 2 59v67v164c0 131 -2 308 -2 484z" />
    <glyph glyph-name="parenleft" unicode="(" horiz-adv-x="744" 
d="M714 1411c2 -37 6 -77 8 -114c-144 -7 -268 -82 -362 -216s-159 -325 -164 -553v-32c0 -213 67 -399 164 -538c99 -144 233 -231 342 -236l-8 -114c-159 10 -315 119 -429 285c-109 156 -183 367 -183 605v33c7 248 74 461 183 615c112 156 268 255 449 265z" />
    <glyph glyph-name="parenright" unicode=")" horiz-adv-x="739" 
d="M30 1409c181 -7 337 -107 449 -263c109 -154 176 -367 183 -615v-33c0 -238 -74 -449 -183 -605c-117 -166 -268 -275 -429 -285l-5 112c109 7 240 91 342 235c94 139 161 328 161 541v32c-7 228 -67 419 -161 553s-218 209 -362 216z" />
    <glyph glyph-name="hyphen" unicode="-" horiz-adv-x="788" 
d="M25 516v49c184 5 290 6 372 6h62c92 0 176 -1 300 -3l-3 -114c-154 5 -221 5 -362 5c-79 0 -185 -3 -364 -8z" />
    <glyph glyph-name="plus" unicode="+" horiz-adv-x="1254" 
d="M672 1076c0 -35 8 -91 10 -148v-45v-97c0 -57 -2 -131 -2 -208h14c250 -2 482 -8 482 -8l-3 -116s-229 5 -479 7h-17c0 -191 -3 -374 -3 -411v-3v-52v-47l-111 12s2 10 2 35c0 12 0 30 -2 50v2c0 40 2 223 2 414c-211 0 -413 -5 -473 -12l-18 116c87 10 286 13 494 13
v211c0 40 2 69 2 94v40c-2 55 -8 109 -10 146z" />
    <glyph glyph-name="less" unicode="&#x3c;" horiz-adv-x="917" 
d="M828 1049l30 -117s-22 -10 -47 -22c-161 -89 -471 -310 -593 -399c129 -82 447 -285 581 -394c25 -22 42 -35 59 -57l-97 -70c-22 30 -82 69 -124 99c-102 74 -533 355 -558 370l-2 99s156 114 327 231c122 84 231 161 350 225c27 17 47 28 74 35z" />
    <glyph glyph-name="greater" unicode="&#x3e;" horiz-adv-x="902" 
d="M139 1032c0 0 15 -18 37 -35s52 -37 87 -62c67 -50 151 -109 233 -164c166 -109 325 -208 325 -208l2 -97s-156 -116 -327 -233c-84 -60 -174 -117 -248 -164c-37 -22 -72 -47 -102 -62s-49 -25 -74 -32l-30 114s22 8 47 23s58 35 95 57c72 45 159 104 243 161
c134 92 210 146 257 181c-50 32 -123 74 -252 161c-84 55 -172 116 -241 166c-35 25 -64 47 -89 67s-45 38 -60 60z" />
    <glyph glyph-name="slash" unicode="/" horiz-adv-x="843" 
d="M687 1354l104 -45c-17 -37 -42 -96 -72 -158c-5 -10 -32 -75 -79 -169s-109 -219 -171 -345c-124 -253 -249 -510 -271 -555c-30 -67 -49 -102 -49 -102l-97 60s12 24 42 91h3c20 40 149 303 273 556c62 126 121 251 168 345s80 164 82 166c27 57 50 116 67 156z" />
    <glyph glyph-name="one" unicode="1" horiz-adv-x="642" 
d="M461 1317l104 -27l-5 -1290h-114l5 1109c-72 -92 -176 -211 -320 -315l-67 89c255 191 397 434 397 434z" />
    <glyph glyph-name="two" unicode="2" horiz-adv-x="897" 
d="M429 1294h7c89 0 179 -30 248 -94c67 -60 112 -154 112 -268v-9c-2 -126 -75 -226 -164 -313s-178 -166 -287 -263c-104 -94 -131 -166 -141 -211c-2 -12 -1 -15 -3 -22h498c32 0 127 8 127 8l7 -115s-89 -5 -134 -5l-548 -2h-64s-1 47 -3 72c0 22 1 52 8 89
c17 72 59 164 178 268c112 102 207 184 286 263c79 77 124 144 126 233v10c0 87 -32 143 -74 183c-45 40 -108 62 -172 62c-74 0 -139 -29 -181 -81c-32 -40 -51 -90 -51 -157c0 -22 2 -47 7 -74l-112 -22c-7 37 -12 71 -12 106c0 87 25 162 72 219c67 79 168 123 270 123z
" />
    <glyph glyph-name="three" unicode="3" horiz-adv-x="920" 
d="M424 1307h15c87 0 166 -20 228 -67c62 -45 102 -119 102 -206s-27 -158 -72 -208c-32 -35 -72 -50 -112 -67c17 -7 25 -6 42 -13c156 -69 221 -225 221 -369c0 -82 -30 -179 -102 -253s-154 -124 -310 -124c-176 0 -270 77 -327 159c-55 79 -57 163 -57 163l114 3
s0 -49 37 -104c37 -52 89 -109 233 -109c131 0 182 39 229 91c50 50 69 117 69 174c0 114 -42 218 -154 268c-102 47 -186 52 -223 52h-22h-10l-3 112h8h5c20 0 94 2 166 27c42 15 82 34 109 64c27 32 47 72 47 134c0 55 -20 90 -57 117s-94 44 -161 44
c-181 0 -231 -143 -231 -143l-104 42s89 213 320 213z" />
    <glyph glyph-name="four" unicode="4" horiz-adv-x="930" 
d="M593 1277l12 35l112 -20l-3 -746l161 -3l-2 -111l-159 2l-2 -434h-112v436l-501 13l-42 92s333 407 422 543c94 139 114 193 114 193zM603 1024v47c-5 -12 -10 -20 -30 -52c-84 -129 -283 -367 -360 -461l387 -10z" />
    <glyph glyph-name="five" unicode="5" horiz-adv-x="907" 
d="M94 692l3 37l39 511l5 52h52l529 -5v-111l-476 2l-30 -374c52 32 124 69 216 69c55 0 111 -13 178 -45c119 -57 223 -189 223 -387c0 -151 -50 -265 -129 -339c-79 -72 -180 -102 -282 -102c-161 0 -290 102 -362 211l91 64c57 -84 159 -161 271 -161c79 0 150 20 205 72
c52 50 92 126 92 255c0 161 -72 243 -159 283c-45 22 -86 30 -126 30c-131 0 -231 -92 -243 -104z" />
    <glyph glyph-name="six" unicode="6" horiz-adv-x="932" 
d="M632 1322l15 -47l20 -62c-226 -64 -345 -203 -409 -357c-37 -84 -55 -171 -65 -253c22 22 45 45 77 67c57 42 130 62 204 62c77 0 158 -25 225 -72c92 -64 157 -159 157 -310c0 -124 -52 -218 -129 -273c-77 -57 -174 -77 -266 -77c-104 0 -199 35 -268 107
c-67 67 -106 168 -116 292h-3l3 3c0 2 -3 5 -3 7c-2 22 -2 45 -2 70c0 122 18 272 82 421c77 179 220 350 478 422zM479 615h-13c-50 0 -96 -12 -131 -37c-72 -50 -110 -102 -127 -137c-17 -30 -17 -37 -17 -42c10 -99 39 -168 84 -213c45 -50 107 -72 186 -72
c74 0 147 18 199 55c50 35 84 87 84 181c0 124 -32 163 -109 218c-42 32 -101 47 -156 47z" />
    <glyph glyph-name="seven" unicode="7" horiz-adv-x="917" 
d="M114 1282l10 15l32 -2c74 -2 145 -5 209 -5c156 0 292 7 451 7h27l18 -25l5 -5l24 -32l-24 -35c-335 -456 -563 -808 -563 -1200h-112c0 407 218 764 523 1183c-102 -2 -198 -5 -305 -5c-69 0 -141 3 -218 5c-20 -35 -35 -67 -50 -109l-104 44c17 42 38 92 70 152z" />
    <glyph glyph-name="eight" unicode="8" horiz-adv-x="895" 
d="M456 1295c208 0 336 -142 336 -291c0 -99 -63 -176 -130 -223c-25 -17 -50 -25 -77 -37c82 -35 146 -77 186 -134c50 -69 70 -152 70 -236c0 -92 -26 -185 -90 -257s-166 -117 -300 -117c-99 0 -195 30 -272 94c-74 62 -124 161 -124 283c0 119 43 214 112 278
c45 40 95 66 150 91c-30 15 -69 25 -94 45c-69 52 -114 126 -114 208c0 87 40 164 104 216s149 80 243 80zM456 1183c-72 0 -131 -22 -171 -57c-40 -32 -62 -72 -62 -127c0 -47 18 -79 70 -119c35 -27 101 -51 161 -76c50 20 102 39 144 69c50 35 82 74 82 131
c0 92 -60 179 -224 179zM454 682c-87 -35 -161 -70 -208 -112c-50 -47 -79 -99 -79 -193c0 -92 34 -154 86 -196c52 -45 124 -67 198 -67c109 0 174 32 216 79c42 45 62 109 62 181c0 69 -15 124 -47 169c-32 47 -87 84 -179 114c-20 7 -29 18 -49 25z" />
    <glyph glyph-name="nine" unicode="9" horiz-adv-x="868" 
d="M434 1292c94 0 181 -32 243 -99c60 -62 94 -152 104 -261c0 -5 3 -7 5 -12c2 -42 15 -152 15 -278c0 -69 -5 -143 -15 -215c-12 -104 -40 -206 -97 -288c-60 -82 -153 -139 -272 -139c-69 0 -149 15 -216 62c-69 45 -124 121 -154 233l109 30c22 -89 62 -139 107 -169
c45 -32 99 -42 154 -42c87 0 139 32 181 89c40 60 64 146 79 238c7 62 12 127 12 184c0 47 -3 89 -5 129c-20 -22 -44 -45 -74 -67c-55 -37 -119 -55 -186 -55c-72 0 -144 20 -206 65c-82 57 -141 144 -141 280c0 112 50 196 119 248c69 50 156 67 238 67zM434 1180
c-64 0 -126 -17 -171 -47c-42 -32 -72 -77 -72 -156c0 -109 27 -139 94 -186c40 -30 92 -42 142 -42c45 0 86 10 116 32c64 45 97 87 112 119c12 25 12 30 12 35c-10 82 -34 144 -69 181c-42 42 -95 64 -164 64z" />
    <glyph glyph-name="equal" unicode="=" horiz-adv-x="1344" 
d="M72 759l5 54c203 -7 360 -10 491 -10c265 0 434 10 704 10v-111c-265 0 -437 -13 -707 -13c-134 0 -290 3 -496 13zM74 273l-2 54c196 5 365 8 521 8c243 0 451 -6 679 -8l-2 -111c-236 2 -455 5 -705 5c-149 0 -307 0 -488 -5z" />
    <glyph glyph-name="backslash" unicode="\" horiz-adv-x="843" 
d="M689 -20c-17 40 -42 97 -69 154c0 2 -35 72 -82 169c-45 94 -106 218 -168 344c-124 253 -251 513 -271 553v3h-2c-30 67 -45 92 -45 92l97 59s19 -35 49 -102l3 -2c22 -42 146 -300 270 -553c62 -126 122 -251 169 -345c47 -97 77 -158 82 -168c27 -62 54 -122 69 -159z
" />
    <glyph glyph-name="asciicircum" unicode="^" horiz-adv-x="719" 
d="M360 984l294 -213l-56 -87l-238 159l-238 -159l-58 87z" />
    <glyph glyph-name="underscore" unicode="_" horiz-adv-x="1031" 
d="M114 0h318h448c62 2 107 0 152 5v-112c-42 -5 -77 -5 -149 -7h-451h-325h-107s0 37 2 114h112z" />
    <glyph glyph-name="grave" unicode="`" horiz-adv-x="466" 
d="M55 1580c124 -97 273 -151 417 -196l-36 -94c-149 42 -326 103 -443 200z" />
    <glyph glyph-name="question" unicode="?" horiz-adv-x="858" 
d="M305 151l151 -2l-2 -149h-149v151zM404 1325h38c47 -2 96 -10 141 -30c102 -50 204 -155 204 -301c0 -94 -30 -166 -75 -223s-99 -101 -156 -163c-72 -77 -114 -122 -114 -236v-17v-67h-117v82c0 151 55 220 144 317c64 69 119 114 151 156c35 42 50 77 50 151
c0 92 -65 161 -137 196c-17 7 -59 16 -99 18h-22c-32 0 -60 -3 -70 -5c-62 -20 -146 -77 -171 -159c-5 -22 -10 -42 -10 -59c0 -45 17 -82 42 -117l-94 -69c-40 52 -62 116 -62 188c0 30 3 59 13 89c40 134 153 211 250 238c27 7 59 11 94 11z" />
    <glyph glyph-name="asciitilde" unicode="~" horiz-adv-x="838" 
d="M79 836c57 102 114 137 174 137c102 0 199 -95 273 -95c37 0 69 23 94 87l81 -70c-60 -97 -120 -126 -180 -126c-97 0 -189 92 -263 92c-32 0 -59 -22 -84 -82z" />
    <glyph glyph-name="exclamdown" unicode="&#xa1;" horiz-adv-x="396" 
d="M151 -310l-2 1037h94c5 -350 5 -690 12 -1037h-104zM131 905l3 117h126l3 -117h-132z" />
    <glyph glyph-name="Ograve" unicode="&#xd2;" horiz-adv-x="1263" 
d="M466.68 1701.52c124 -97 273 -151 417 -196l-36 -94c-149 42 -326 103 -443 200zM652 1334h23c149 0 307 -71 409 -245c72 -124 101 -256 101 -405v-49c-5 -117 -15 -261 -109 -417c-87 -144 -255 -223 -446 -223h-25c-129 5 -255 37 -364 139c-92 87 -169 236 -176 360
c-2 32 -3 62 -3 89c0 322 132 499 206 583l2 2c84 89 226 159 382 166zM657 1215c-122 -5 -242 -67 -302 -129c-67 -74 -176 -210 -176 -498c0 -27 0 -57 2 -87c5 -72 81 -223 141 -280c84 -79 174 -104 288 -109h27c154 0 274 61 338 168c79 131 89 246 94 360
c0 17 2 37 2 54c0 126 -24 236 -86 338c-82 141 -194 183 -308 183h-20z" />
    <glyph glyph-name="Oacute" unicode="&#xd3;" horiz-adv-x="1263" 
d="M801.12 1701.52l62 -90c-117 -97 -295 -158 -444 -200l-35 94c144 45 293 99 417 196zM652 1334h23c149 0 307 -71 409 -245c72 -124 101 -256 101 -405v-49c-5 -117 -15 -261 -109 -417c-87 -144 -255 -223 -446 -223h-25c-129 5 -255 37 -364 139
c-92 87 -169 236 -176 360c-2 32 -3 62 -3 89c0 322 132 499 206 583l2 2c84 89 226 159 382 166zM657 1215c-122 -5 -242 -67 -302 -129c-67 -74 -176 -210 -176 -498c0 -27 0 -57 2 -87c5 -72 81 -223 141 -280c84 -79 174 -104 288 -109h27c154 0 274 61 338 168
c79 131 89 246 94 360c0 17 2 37 2 54c0 126 -24 236 -86 338c-82 141 -194 183 -308 183h-20z" />
    <glyph glyph-name="Ocircumflex" unicode="&#xd4;" horiz-adv-x="1263" 
d="M647.68 1715.6l294 -213l-56 -87l-238 159l-238 -159l-58 87zM652 1334h23c149 0 307 -71 409 -245c72 -124 101 -256 101 -405v-49c-5 -117 -15 -261 -109 -417c-87 -144 -255 -223 -446 -223h-25c-129 5 -255 37 -364 139c-92 87 -169 236 -176 360c-2 32 -3 62 -3 89
c0 322 132 499 206 583l2 2c84 89 226 159 382 166zM657 1215c-122 -5 -242 -67 -302 -129c-67 -74 -176 -210 -176 -498c0 -27 0 -57 2 -87c5 -72 81 -223 141 -280c84 -79 174 -104 288 -109h27c154 0 274 61 338 168c79 131 89 246 94 360c0 17 2 37 2 54
c0 126 -24 236 -86 338c-82 141 -194 183 -308 183h-20z" />
    <glyph glyph-name="Otilde" unicode="&#xd5;" horiz-adv-x="1263" 
d="M346.84 1478.32c57 102 114 137 174 137c102 0 199 -95 273 -95c37 0 69 23 94 87l81 -70c-60 -97 -120 -126 -180 -126c-97 0 -189 92 -263 92c-32 0 -59 -22 -84 -82zM652 1334h23c149 0 307 -71 409 -245c72 -124 101 -256 101 -405v-49c-5 -117 -15 -261 -109 -417
c-87 -144 -255 -223 -446 -223h-25c-129 5 -255 37 -364 139c-92 87 -169 236 -176 360c-2 32 -3 62 -3 89c0 322 132 499 206 583l2 2c84 89 226 159 382 166zM657 1215c-122 -5 -242 -67 -302 -129c-67 -74 -176 -210 -176 -498c0 -27 0 -57 2 -87c5 -72 81 -223 141 -280
c84 -79 174 -104 288 -109h27c154 0 274 61 338 168c79 131 89 246 94 360c0 17 2 37 2 54c0 126 -24 236 -86 338c-82 141 -194 183 -308 183h-20z" />
    <glyph glyph-name="Odieresis" unicode="&#xd6;" horiz-adv-x="1263" 
d="M733.64 1544.72h129v-129l-129 -2v131zM391.64 1542.72h130v-129l-130 -3v132zM652 1334h23c149 0 307 -71 409 -245c72 -124 101 -256 101 -405v-49c-5 -117 -15 -261 -109 -417c-87 -144 -255 -223 -446 -223h-25c-129 5 -255 37 -364 139c-92 87 -169 236 -176 360
c-2 32 -3 62 -3 89c0 322 132 499 206 583l2 2c84 89 226 159 382 166zM657 1215c-122 -5 -242 -67 -302 -129c-67 -74 -176 -210 -176 -498c0 -27 0 -57 2 -87c5 -72 81 -223 141 -280c84 -79 174 -104 288 -109h27c154 0 274 61 338 168c79 131 89 246 94 360
c0 17 2 37 2 54c0 126 -24 236 -86 338c-82 141 -194 183 -308 183h-20z" />
    <glyph glyph-name="Oslash" unicode="&#xd8;" horiz-adv-x="1249" 
d="M652 1215c-122 -5 -242 -67 -302 -129c-67 -74 -176 -210 -176 -498c0 -27 0 -57 2 -87c5 -72 81 -223 141 -280c2 -2 8 -5 10 -10c52 107 144 292 233 476c62 126 122 251 169 345c37 77 67 138 77 158c-45 17 -89 25 -134 25h-20zM647 1334h20c62 0 126 -10 186 -37
c10 20 20 40 25 57l104 -45c-10 -20 -20 -44 -32 -71c50 -37 92 -87 129 -149c72 -124 101 -256 101 -405v-49c-5 -117 -15 -261 -109 -417c-87 -144 -255 -223 -446 -223h-25c-79 2 -156 15 -228 50c-20 -42 -32 -65 -32 -65l-97 60s10 17 30 62c-12 10 -25 20 -37 32
c-92 87 -169 236 -176 360c-2 32 -3 62 -3 89c0 322 132 499 206 583l2 2c84 89 226 159 382 166zM424 149c55 -25 114 -35 181 -37h27c154 0 274 61 338 168c79 131 89 246 94 360c0 17 2 37 2 54c0 126 -24 236 -86 338c-25 40 -50 74 -77 99c-15 -27 -40 -80 -72 -149
c-47 -94 -109 -219 -171 -345c-92 -191 -186 -386 -236 -488z" />
    <glyph glyph-name="multiply" unicode="&#xd7;" horiz-adv-x="987" 
d="M134 945c25 -22 70 -59 112 -99c7 -5 15 -16 32 -33l67 -67c42 -42 89 -94 144 -151c2 2 7 8 9 10c181 174 350 332 350 332l80 -86s-167 -156 -348 -330l-10 -10c131 -136 261 -273 286 -298l2 -2c45 -42 67 -70 67 -70l-87 -69s-14 20 -59 62h-3
c-27 27 -156 161 -287 300c-151 -149 -293 -295 -330 -342l-95 72c52 67 196 206 345 352c-55 57 -104 112 -146 154c-27 27 -48 50 -65 67l-29 29c-40 37 -79 72 -109 97z" />
    <glyph glyph-name="Ugrave" unicode="&#xd9;" horiz-adv-x="1223" 
d="M428.22 1701.52c124 -97 273 -151 417 -196l-36 -94c-149 42 -326 103 -443 200zM1013 1344l111 -17c-10 -62 -15 -84 -15 -139c0 -154 3 -287 3 -404c0 -97 -3 -184 -8 -261c-12 -169 -44 -297 -131 -389c-89 -94 -226 -136 -357 -141h-27c-122 0 -243 30 -320 109
c-89 92 -135 208 -152 362s-13 354 -15 642v109c0 40 1 80 3 127l114 -5c-2 -47 -3 -85 -3 -122v-109c2 -288 -2 -489 15 -630s47 -220 119 -292c45 -45 139 -77 241 -77h20c109 5 220 42 280 106c60 62 87 159 99 318c5 62 8 131 8 208c0 126 -5 275 -5 449
c0 64 10 96 20 156z" />
    <glyph glyph-name="Uacute" unicode="&#xda;" horiz-adv-x="1223" 
d="M804.82 1696.56l62 -90c-117 -97 -295 -158 -444 -200l-35 94c144 45 293 99 417 196zM1013 1344l111 -17c-10 -62 -15 -84 -15 -139c0 -154 3 -287 3 -404c0 -97 -3 -184 -8 -261c-12 -169 -44 -297 -131 -389c-89 -94 -226 -136 -357 -141h-27c-122 0 -243 30 -320 109
c-89 92 -135 208 -152 362s-13 354 -15 642v109c0 40 1 80 3 127l114 -5c-2 -47 -3 -85 -3 -122v-109c2 -288 -2 -489 15 -630s47 -220 119 -292c45 -45 139 -77 241 -77h20c109 5 220 42 280 106c60 62 87 159 99 318c5 62 8 131 8 208c0 126 -5 275 -5 449
c0 64 10 96 20 156z" />
    <glyph glyph-name="Ucircumflex" unicode="&#xdb;" horiz-adv-x="1223" 
d="M606.74 1705.68l294 -213l-56 -87l-238 159l-238 -159l-58 87zM1013 1344l111 -17c-10 -62 -15 -84 -15 -139c0 -154 3 -287 3 -404c0 -97 -3 -184 -8 -261c-12 -169 -44 -297 -131 -389c-89 -94 -226 -136 -357 -141h-27c-122 0 -243 30 -320 109
c-89 92 -135 208 -152 362s-13 354 -15 642v109c0 40 1 80 3 127l114 -5c-2 -47 -3 -85 -3 -122v-109c2 -288 -2 -489 15 -630s47 -220 119 -292c45 -45 139 -77 241 -77h20c109 5 220 42 280 106c60 62 87 159 99 318c5 62 8 131 8 208c0 126 -5 275 -5 449
c0 64 10 96 20 156z" />
    <glyph glyph-name="Udieresis" unicode="&#xdc;" horiz-adv-x="1223" 
d="M702.62 1544.72h129v-129l-129 -2v131zM360.62 1542.72h130v-129l-130 -3v132zM1013 1344l111 -17c-10 -62 -15 -84 -15 -139c0 -154 3 -287 3 -404c0 -97 -3 -184 -8 -261c-12 -169 -44 -297 -131 -389c-89 -94 -226 -136 -357 -141h-27c-122 0 -243 30 -320 109
c-89 92 -135 208 -152 362s-13 354 -15 642v109c0 40 1 80 3 127l114 -5c-2 -47 -3 -85 -3 -122v-109c2 -288 -2 -489 15 -630s47 -220 119 -292c45 -45 139 -77 241 -77h20c109 5 220 42 280 106c60 62 87 159 99 318c5 62 8 131 8 208c0 126 -5 275 -5 449
c0 64 10 96 20 156z" />
    <glyph glyph-name="Yacute" unicode="&#xdd;" horiz-adv-x="1125" 
d="M754 1701.52l62 -90c-117 -97 -295 -158 -444 -200l-35 94c144 45 293 99 417 196zM145 1359c32 -62 146 -235 250 -389c79 -117 126 -176 156 -221c32 42 78 101 162 218c109 151 229 330 261 390l105 -57c-45 -84 -159 -251 -268 -405c-104 -146 -196 -270 -206 -282
c0 -50 -2 -104 -2 -164c-2 -139 -5 -287 -5 -332v-3v-64v-52l-117 4v45v62v3c0 52 3 198 5 339c2 62 3 121 3 171c-20 27 -99 144 -191 278c-104 154 -219 320 -261 402z" />
    <glyph glyph-name="ntilde" unicode="&#xf1;" horiz-adv-x="1016" 
d="M173.25 1249.58c57 102 114 137 174 137c102 0 199 -95 273 -95c37 0 69 23 94 87l81 -70c-60 -97 -120 -126 -180 -126c-97 0 -189 92 -263 92c-32 0 -59 -22 -84 -82zM228 1034c7 -32 10 -69 10 -119c126 62 221 102 313 107h44c67 -5 126 -35 171 -72
c45 -35 82 -78 82 -142v-2c-2 -84 -2 -169 -2 -253c0 -122 2 -243 7 -360c2 -42 10 -59 22 -74c12 -17 35 -32 70 -59l-51 -74c-40 7 -85 31 -110 66c-27 37 -40 82 -45 139c-5 114 -7 235 -7 357c0 87 0 173 2 260c0 0 -10 35 -40 60s-76 45 -111 47h-13
c-77 0 -166 -47 -332 -124c0 -226 0 -674 -5 -793l-114 4c2 94 5 466 5 707v191c0 47 -8 105 -10 112z" />
    <glyph glyph-name="ograve" unicode="&#xf2;" horiz-adv-x="1056" 
d="M349.75 1449.2c124 -97 273 -151 417 -196l-36 -94c-149 42 -326 103 -443 200zM513 1030c196 0 318 -85 395 -219c45 -79 70 -173 70 -270c0 -37 -4 -77 -11 -114c-42 -226 -184 -435 -454 -435c-203 0 -335 100 -399 234c-32 69 -47 149 -47 233c0 211 74 377 196 476
c69 57 156 95 250 95zM590 908c-22 2 -42 5 -62 5c-77 0 -143 -28 -193 -70c-89 -72 -151 -213 -151 -384c0 -69 12 -133 37 -183c45 -97 141 -170 297 -170c82 0 145 27 200 72c79 69 143 202 143 363c0 193 -107 340 -271 367z" />
    <glyph glyph-name="oacute" unicode="&#xf3;" horiz-adv-x="1056" 
d="M718.75 1465.9l62 -90c-117 -97 -295 -158 -444 -200l-34 94c144 45 292 99 416 196zM513 1030c196 0 318 -85 395 -219c45 -79 70 -173 70 -270c0 -37 -4 -77 -11 -114c-42 -226 -184 -435 -454 -435c-203 0 -335 100 -399 234c-32 69 -47 149 -47 233
c0 211 74 377 196 476c69 57 156 95 250 95zM590 908c-22 2 -42 5 -62 5c-77 0 -143 -28 -193 -70c-89 -72 -151 -213 -151 -384c0 -69 12 -133 37 -183c45 -97 141 -170 297 -170c82 0 145 27 200 72c79 69 143 202 143 363c0 193 -107 340 -271 367z" />
    <glyph glyph-name="ocircumflex" unicode="&#xf4;" horiz-adv-x="1056" 
d="M525.75 1457.9l294 -213l-56 -87l-238 159l-238 -159l-58 87zM513 1030c196 0 318 -85 395 -219c45 -79 70 -173 70 -270c0 -37 -4 -77 -11 -114c-42 -226 -184 -435 -454 -435c-203 0 -335 100 -399 234c-32 69 -47 149 -47 233c0 211 74 377 196 476
c69 57 156 95 250 95zM590 908c-22 2 -42 5 -62 5c-77 0 -143 -28 -193 -70c-89 -72 -151 -213 -151 -384c0 -69 12 -133 37 -183c45 -97 141 -170 297 -170c82 0 145 27 200 72c79 69 143 202 143 363c0 193 -107 340 -271 367z" />
    <glyph glyph-name="otilde" unicode="&#xf5;" horiz-adv-x="1056" 
d="M216.75 1248.9c57 102 114 137 174 137c102 0 199 -95 273 -95c37 0 69 23 94 87l81 -70c-60 -97 -120 -126 -180 -126c-97 0 -189 92 -263 92c-32 0 -59 -22 -84 -82zM513 1030c196 0 318 -85 395 -219c45 -79 70 -173 70 -270c0 -37 -4 -77 -11 -114
c-42 -226 -184 -435 -454 -435c-203 0 -335 100 -399 234c-32 69 -47 149 -47 233c0 211 74 377 196 476c69 57 156 95 250 95zM590 908c-22 2 -42 5 -62 5c-77 0 -143 -28 -193 -70c-89 -72 -151 -213 -151 -384c0 -69 12 -133 37 -183c45 -97 141 -170 297 -170
c82 0 145 27 200 72c79 69 143 202 143 363c0 193 -107 340 -271 367z" />
    <glyph glyph-name="odieresis" unicode="&#xf6;" horiz-adv-x="1056" 
d="M616.561 1326.8h129v-129l-129 -2v131zM274.561 1324.8h130v-129l-130 -3v132zM513 1030c196 0 318 -85 395 -219c45 -79 70 -173 70 -270c0 -37 -4 -77 -11 -114c-42 -226 -184 -435 -454 -435c-203 0 -335 100 -399 234c-32 69 -47 149 -47 233c0 211 74 377 196 476
c69 57 156 95 250 95zM590 908c-22 2 -42 5 -62 5c-77 0 -143 -28 -193 -70c-89 -72 -151 -213 -151 -384c0 -69 12 -133 37 -183c45 -97 141 -170 297 -170c82 0 145 27 200 72c79 69 143 202 143 363c0 193 -107 340 -271 367z" />
    <glyph glyph-name="oslash" unicode="&#xf8;" horiz-adv-x="1091" 
d="M618 905c-22 2 -42 5 -62 5c-77 0 -144 -27 -194 -69c-89 -72 -151 -214 -151 -385c0 -64 10 -124 32 -171c82 84 186 196 293 308c82 87 166 171 233 240c-42 37 -91 62 -151 72zM960 1044l84 -74c-27 -30 -67 -79 -114 -129l-10 -10c5 -7 10 -16 15 -23
c45 -79 70 -173 70 -270c0 -37 -4 -77 -11 -114c-42 -226 -185 -431 -453 -431c-136 0 -241 45 -313 114c-17 -17 -28 -31 -35 -38h-2c-50 -55 -79 -81 -79 -81l-75 84s20 19 70 74h2v3c7 7 25 22 47 47l-15 30c-32 69 -47 146 -47 230c0 211 74 377 196 476
c69 57 157 95 251 95c134 0 233 -40 307 -109c42 47 82 94 112 126zM308 191c55 -50 134 -84 238 -84c82 0 143 27 198 72c79 69 144 198 144 359c0 77 -18 149 -50 206c-64 -67 -143 -146 -220 -228c-114 -119 -228 -238 -310 -325z" />
    <glyph glyph-name="ugrave" unicode="&#xf9;" horiz-adv-x="997" 
d="M307.875 1449.67c124 -97 273 -151 417 -196l-36 -94c-149 42 -326 103 -443 200zM222 1027c7 -32 13 -87 15 -112v-40v-79c0 -62 -3 -141 -3 -223v-233c0 -32 3 -62 3 -84v-37c7 -45 27 -70 52 -87s57 -22 89 -22c69 2 116 12 171 47c52 32 112 92 189 181v575v109
l116 -5c0 -25 -2 -67 -2 -104v-521v-178c2 -45 10 -62 20 -77c12 -15 35 -32 72 -59l-70 -92c-35 25 -67 44 -94 79c-20 27 -33 65 -40 107c-45 -47 -87 -85 -129 -112c-69 -45 -144 -65 -228 -67h-12c-47 0 -100 15 -147 45c-50 32 -87 89 -99 161c-2 17 -5 32 -5 54v87
v233s3 164 3 226v76v30c-2 17 -11 87 -13 99z" />
    <glyph glyph-name="uacute" unicode="&#xfa;" horiz-adv-x="997" 
d="M676.875 1466.38l62 -90c-117 -97 -295 -158 -444 -200l-34 94c144 45 292 99 416 196zM222 1027c7 -32 13 -87 15 -112v-40v-79c0 -62 -3 -141 -3 -223v-233c0 -32 3 -62 3 -84v-37c7 -45 27 -70 52 -87s57 -22 89 -22c69 2 116 12 171 47c52 32 112 92 189 181v575v109
l116 -5c0 -25 -2 -67 -2 -104v-521v-178c2 -45 10 -62 20 -77c12 -15 35 -32 72 -59l-70 -92c-35 25 -67 44 -94 79c-20 27 -33 65 -40 107c-45 -47 -87 -85 -129 -112c-69 -45 -144 -65 -228 -67h-12c-47 0 -100 15 -147 45c-50 32 -87 89 -99 161c-2 17 -5 32 -5 54v87
v233s3 164 3 226v76v30c-2 17 -11 87 -13 99z" />
    <glyph glyph-name="ucircumflex" unicode="&#xfb;" horiz-adv-x="997" 
d="M483.875 1458.38l294 -213l-56 -87l-238 159l-238 -159l-58 87zM222 1027c7 -32 13 -87 15 -112v-40v-79c0 -62 -3 -141 -3 -223v-233c0 -32 3 -62 3 -84v-37c7 -45 27 -70 52 -87s57 -22 89 -22c69 2 116 12 171 47c52 32 112 92 189 181v575v109l116 -5
c0 -25 -2 -67 -2 -104v-521v-178c2 -45 10 -62 20 -77c12 -15 35 -32 72 -59l-70 -92c-35 25 -67 44 -94 79c-20 27 -33 65 -40 107c-45 -47 -87 -85 -129 -112c-69 -45 -144 -65 -228 -67h-12c-47 0 -100 15 -147 45c-50 32 -87 89 -99 161c-2 17 -5 32 -5 54v87v233
s3 164 3 226v76v30c-2 17 -11 87 -13 99z" />
    <glyph glyph-name="udieresis" unicode="&#xfc;" horiz-adv-x="997" 
d="M599.04 1329.8h129v-129l-129 -2v131zM257.04 1327.8h130v-129l-130 -3v132zM222 1027c7 -32 13 -87 15 -112v-40v-79c0 -62 -3 -141 -3 -223v-233c0 -32 3 -62 3 -84v-37c7 -45 27 -70 52 -87s57 -22 89 -22c69 2 116 12 171 47c52 32 112 92 189 181v575v109l116 -5
c0 -25 -2 -67 -2 -104v-521v-178c2 -45 10 -62 20 -77c12 -15 35 -32 72 -59l-70 -92c-35 25 -67 44 -94 79c-20 27 -33 65 -40 107c-45 -47 -87 -85 -129 -112c-69 -45 -144 -65 -228 -67h-12c-47 0 -100 15 -147 45c-50 32 -87 89 -99 161c-2 17 -5 32 -5 54v87v233
s3 164 3 226v76v30c-2 17 -11 87 -13 99z" />
    <glyph glyph-name="plusminus" unicode="&#xb1;" horiz-adv-x="1344" 
d="M72 327c191 5 357 8 511 8c0 94 2 211 2 325v29c-139 0 -300 3 -516 13l8 112c211 -7 372 -10 508 -10v190c0 92 3 150 3 167v19c0 47 -5 95 -5 137v20l114 -8v-12c0 -30 5 -82 5 -137v-24v-162v-190c193 2 349 10 570 10v-112c-218 0 -374 -8 -570 -13v-29
c0 -114 -3 -231 -3 -325c198 -2 380 -6 573 -8l-2 -111c-236 2 -455 5 -705 5c-149 0 -307 0 -488 -5z" />
    <glyph glyph-name="divide" unicode="&#xf7;" horiz-adv-x="962" 
d="M417 1019h131l-2 -114h-127zM407 117h131l-3 -117h-126zM74 511v54c184 5 290 6 372 6c141 0 206 -4 442 -6l-3 -114c-238 2 -300 8 -441 8c-79 0 -186 -3 -365 -8z" />
    <glyph glyph-name="yacute" unicode="&#xfd;" horiz-adv-x="1080" 
d="M790.666 1462.27l62 -90c-117 -97 -295 -158 -444 -200l-34 94c144 45 292 99 416 196zM7 1027c30 0 57 0 82 -5s48 -15 70 -35c84 -74 183 -228 282 -407c74 -134 144 -278 201 -404c104 238 209 484 271 707c2 10 7 39 9 64s3 55 3 55l112 15v-23c0 -20 -1 -37 -3 -57
c-2 -30 -5 -59 -12 -84c-92 -332 -269 -702 -410 -1022c-30 -67 -64 -124 -116 -166c-45 -35 -101 -59 -161 -59c-10 0 -23 0 -33 2c-74 10 -138 47 -183 107s-72 139 -92 238l109 20c17 -89 42 -151 72 -191s59 -55 109 -62h20c32 0 60 10 87 32c32 27 62 71 87 126
c22 52 44 104 69 159c-57 139 -146 323 -238 489c-97 174 -203 330 -255 377c-5 5 -13 8 -23 10c-12 2 -30 0 -57 2v112z" />
    <glyph glyph-name="ydieresis" unicode="&#xff;" horiz-adv-x="1080" 
d="M653 1328.52h129v-129l-129 -2v131zM311 1326.52h130v-129l-130 -3v132zM7 1027c30 0 57 0 82 -5s48 -15 70 -35c84 -74 183 -228 282 -407c74 -134 144 -278 201 -404c104 238 209 484 271 707c2 10 7 39 9 64s3 55 3 55l112 15v-23c0 -20 -1 -37 -3 -57
c-2 -30 -5 -59 -12 -84c-92 -332 -269 -702 -410 -1022c-30 -67 -64 -124 -116 -166c-45 -35 -101 -59 -161 -59c-10 0 -23 0 -33 2c-74 10 -138 47 -183 107s-72 139 -92 238l109 20c17 -89 42 -151 72 -191s59 -55 109 -62h20c32 0 60 10 87 32c32 27 62 71 87 126
c22 52 44 104 69 159c-57 139 -146 323 -238 489c-97 174 -203 330 -255 377c-5 5 -13 8 -23 10c-12 2 -30 0 -57 2v112z" />
    <glyph glyph-name="OE" unicode="&#x152;" horiz-adv-x="1398" 
d="M1012 1332h290v-114c-141 0 -266 -1 -484 -3c-2 -22 -2 -45 -2 -67v-327h136h214l2 -114h-216h-136v-52c0 -236 -3 -476 -3 -538h318h84l-15 2c0 1 1 1 5 1h10c17 0 51 2 109 19l33 -109c-42 -12 -82 -24 -154 -26h-5l10 -2h-77h-251h-74l-92 -4h-17
c-32 -2 -65 -3 -97 -3c-129 5 -255 37 -364 139c-92 87 -169 236 -176 360c-2 32 -3 61 -3 91c0 320 129 504 208 583c84 87 229 169 395 169c27 0 55 -3 82 -8c74 2 171 3 270 3zM704 1215h-29c-136 0 -263 -65 -325 -129c-67 -74 -176 -210 -176 -498c0 -27 0 -57 2 -87
c5 -72 81 -223 141 -280c84 -79 174 -104 288 -109h27c25 0 47 0 67 2v541c0 122 3 243 3 335v163c0 20 0 42 2 62z" />
    <glyph glyph-name="yen" unicode="&#xa5;" horiz-adv-x="1125" 
d="M149 1359c32 -62 146 -235 250 -389c47 -69 82 -119 109 -159c30 0 60 0 90 2c27 37 61 85 111 154c109 151 229 330 261 390l109 -57c-45 -84 -159 -251 -268 -405c-20 -27 -40 -55 -57 -82c89 2 186 3 285 3v-112c-129 0 -253 -2 -367 -2c-37 -50 -62 -84 -67 -89v-43
c131 -2 278 -2 434 -2v-112h-436v-7c-2 -139 -5 -287 -5 -332v-3v-64v-52l-117 4v45v62v3c0 52 3 198 5 339v8c-159 0 -298 -1 -412 -3l3 65l2 47c112 2 251 2 410 2v52c-7 12 -28 40 -55 77c-139 0 -263 0 -360 5l3 65l2 47c82 -5 177 -5 281 -5c-20 27 -40 57 -62 89
c-104 154 -219 320 -261 402z" />
    <glyph glyph-name="Ntilde" unicode="&#xd1;" horiz-adv-x="1231" 
d="M303.04 1500.64c57 102 114 137 174 137c102 0 199 -95 273 -95c37 0 69 23 94 87l81 -70c-60 -97 -120 -126 -180 -126c-97 0 -189 92 -263 92c-32 0 -59 -22 -84 -82zM123 1158c-2 64 -8 129 -10 174l112 7l2 3c15 -17 32 -45 62 -85s65 -91 107 -153
c84 -122 188 -278 290 -432c114 -174 223 -337 300 -451v441c0 124 3 243 3 335v166c2 69 8 134 10 176l116 -7c-2 -45 -10 -110 -12 -174v-161v-337c0 -246 -3 -496 -3 -546v-2v-60v-45l-116 -7v5c-2 2 -194 297 -397 600c-102 154 -206 307 -290 429c-20 30 -40 59 -57 84
v-121v-335c0 -246 2 -500 2 -545v-65v-52l-114 7s0 31 -2 105v2v548c0 124 -3 404 -3 496z" />
    <glyph glyph-name="Eth" unicode="&#xd0;" horiz-adv-x="1220" 
d="M456 1238c-47 0 -94 -6 -129 -8c0 -10 3 -17 3 -27c2 -79 3 -183 3 -295c109 0 218 3 369 3v-115c-146 2 -260 3 -369 3c0 -305 -8 -633 -8 -685c107 -2 181 -7 248 -7c45 0 86 2 131 7c146 15 288 92 330 283c12 55 18 114 18 171c0 166 -46 332 -120 434
c-92 126 -191 206 -327 226c-47 7 -102 10 -149 10zM456 1355c52 0 107 -4 164 -11c174 -25 305 -134 407 -275c92 -126 144 -307 144 -491c0 -69 -8 -139 -23 -206c-52 -241 -250 -357 -431 -374c-57 -5 -109 -8 -166 -8c-74 0 -157 3 -276 8l-69 -5s0 42 2 119
c0 52 8 382 8 687c-55 2 -112 3 -174 5l5 114c62 -2 117 -5 169 -7c0 112 -1 212 -3 289c-2 69 -10 139 -10 139l87 8c35 2 87 8 144 8h22z" />
    <glyph glyph-name="currency" unicode="&#xa4;" horiz-adv-x="1001" 
d="M161 930l132 -126c5 7 12 12 19 19c52 42 117 65 189 70c22 0 47 -3 72 -5c64 -12 121 -42 166 -84l119 119l79 -82l-131 -129c27 -55 40 -117 40 -181c0 -27 -3 -58 -8 -85c-12 -62 -32 -118 -64 -168l141 -139l-77 -79l-139 133c-55 -42 -124 -67 -201 -67
c-20 0 -42 3 -64 5c-64 12 -117 37 -159 72l-126 -124l-80 82l137 132c0 2 -3 5 -3 7c-25 52 -34 111 -34 171c0 37 3 72 10 109c10 50 24 92 44 132l-141 139zM511 781c-2 0 -5 0 -5 -2c-47 0 -87 -18 -122 -45c-45 -35 -79 -95 -94 -174c-5 -30 -7 -59 -7 -89
c0 -45 7 -86 22 -121c25 -57 67 -92 149 -107c17 -2 34 -5 49 -5c55 0 97 17 132 47c45 40 77 102 92 184c5 22 7 44 7 64c0 52 -13 102 -35 142c-32 55 -79 91 -143 101c-17 2 -30 5 -45 5z" />
    <glyph glyph-name="sterling" unicode="&#xa3;" horiz-adv-x="1145" 
d="M620 1327c144 0 248 -92 278 -201l-109 -30c-17 60 -72 117 -169 117c-67 0 -112 -10 -139 -25s-42 -35 -52 -62c-10 -22 -12 -50 -12 -82c0 -52 10 -114 22 -183c2 -17 8 -33 10 -50h206c99 0 193 0 265 5l8 -114c-77 -5 -174 -8 -276 -8c-57 0 -118 3 -178 3
c15 -67 30 -137 37 -206c5 -37 7 -75 7 -112c0 -55 -7 -111 -24 -163c112 -67 233 -107 342 -107c89 0 107 23 114 35s5 27 5 59l117 -2v-20c0 -22 -3 -59 -23 -94c-30 -55 -101 -92 -213 -92c-134 0 -271 45 -397 119c-35 -45 -70 -75 -107 -92c-42 -22 -82 -24 -114 -24
c-69 0 -124 47 -146 99c-12 27 -17 57 -17 87c0 25 4 49 9 74c15 52 42 104 97 129c15 7 33 10 50 10c45 0 89 -20 129 -60c17 -17 37 -34 54 -49c7 30 10 64 10 101c0 27 -3 58 -5 90c-10 69 -25 144 -42 218c-62 2 -121 2 -176 2v114h151c-2 7 -5 16 -5 23
c-15 69 -27 137 -27 201c0 47 7 89 22 131c17 47 55 92 105 119s114 40 193 40zM218 285c-20 0 -35 -27 -42 -57c-2 -15 -4 -29 -4 -44s2 -33 7 -43c7 -22 12 -29 39 -29c25 0 45 2 65 12c17 10 37 25 62 57c-30 22 -58 47 -85 74c-22 22 -35 30 -42 30z" />
    <glyph glyph-name="cent" unicode="&#xa2;" horiz-adv-x="739" 
d="M439 1015l2 -167c17 -2 33 -8 48 -10c74 -17 121 -72 146 -134l-107 -42c-17 47 -22 55 -67 67c-22 5 -44 8 -69 8c-60 0 -126 -18 -166 -70c-20 -25 -47 -69 -47 -156c0 -30 2 -62 9 -102c2 -27 40 -94 67 -111c40 -30 80 -38 132 -38h20c89 0 146 35 176 80l94 -62
c-47 -74 -137 -122 -241 -129l3 -144l-112 -3l-5 149c-45 7 -89 25 -134 55c-64 45 -102 116 -114 183c-5 40 -7 74 -7 109c0 119 34 196 69 241c52 64 122 97 191 107l-2 166z" />
    <glyph glyph-name="percent" unicode="%" horiz-adv-x="1039" 
d="M129 -32c20 42 199 404 325 664c62 129 124 256 171 353c47 99 82 169 84 171c27 60 53 118 70 158l106 -47c-17 -37 -42 -99 -72 -161c-5 -10 -37 -74 -84 -171s-109 -226 -173 -355c-126 -258 -256 -523 -278 -568c-32 -69 -50 -104 -50 -104zM327 1250
c64 0 122 -22 162 -62c42 -40 61 -99 61 -161c0 -67 -24 -132 -66 -184c-42 -50 -104 -92 -176 -92c-131 0 -239 110 -239 241c0 69 33 132 80 179s109 79 178 79zM327 1136c-30 0 -66 -17 -96 -47s-48 -67 -48 -97c0 -69 56 -124 125 -124c27 0 59 18 86 50
c25 32 42 74 42 109c0 37 -12 62 -29 79s-43 30 -80 30zM739 496h7c126 -5 229 -110 229 -236v-12c-2 -69 -37 -131 -87 -176c-47 -42 -107 -72 -174 -72h-7c-64 2 -122 27 -159 69c-37 40 -57 94 -57 154v10c2 67 32 129 77 179c40 47 97 84 164 84h7zM737 382
c-27 0 -57 -17 -82 -47c-27 -30 -47 -75 -47 -107v-10c0 -32 9 -55 24 -72s40 -29 77 -29h8c30 0 64 15 94 42s48 64 50 94v5c0 67 -52 122 -119 124h-5z" />
    <glyph glyph-name="guillemotleft" unicode="&#xab;" horiz-adv-x="967" 
d="M441 950l119 -32c-45 -176 -208 -300 -347 -407c146 -119 273 -236 328 -397l-117 -40c-47 139 -178 254 -347 390v96c154 122 332 259 364 390zM789 947l114 -44c-52 -134 -164 -285 -310 -397c144 -107 240 -231 292 -387l-116 -40c-52 156 -149 271 -318 375v104
c159 97 291 267 338 389z" />
    <glyph glyph-name="guillemotright" unicode="&#xbb;" horiz-adv-x="967" 
d="M496 932l47 15c45 -139 178 -253 347 -389v-97c-151 -122 -332 -258 -364 -389l-119 32c45 176 208 300 347 407c-146 119 -272 236 -327 397zM198 942c52 -156 149 -270 318 -374v-104c-159 -97 -290 -268 -337 -390l-115 45c50 134 164 285 310 397
c-144 104 -240 231 -292 387z" />
    <glyph glyph-name="section" unicode="&#xa7;" horiz-adv-x="957" 
d="M464 1350c77 0 148 -16 208 -58s100 -109 112 -193l-114 -18c-10 60 -33 92 -65 117c-32 22 -79 35 -141 35s-132 -25 -174 -67c-30 -30 -50 -65 -50 -112c0 -20 6 -42 13 -69c15 -57 89 -115 198 -177c107 -62 241 -128 353 -230c55 -47 84 -109 84 -176
c0 -20 -3 -37 -8 -57c-17 -62 -59 -115 -126 -152c27 -30 47 -64 59 -104c10 -32 16 -64 16 -94c0 -82 -33 -153 -83 -203c-69 -67 -163 -100 -257 -100c-77 0 -149 16 -206 58c-60 42 -99 109 -114 193l117 17c10 -60 32 -94 64 -116s79 -35 139 -35c64 0 134 25 176 67
c30 27 47 62 47 112c0 20 -3 42 -10 69c-17 57 -92 114 -199 176c-109 62 -242 129 -354 228c-52 50 -85 114 -85 181c0 17 3 38 8 55c17 62 62 114 129 151c-27 30 -48 62 -60 104c-10 32 -15 65 -15 97c0 79 32 151 82 198c67 69 164 103 256 103zM300 764
c-74 -25 -104 -62 -114 -97c-2 -10 -5 -20 -5 -30c0 -30 15 -62 47 -89c94 -84 220 -149 332 -213c32 -20 65 -37 95 -57c74 25 104 61 114 96c2 7 2 18 2 28c0 30 -12 62 -44 92c-97 84 -221 149 -335 213c-30 20 -62 37 -92 57z" />
    <glyph glyph-name="braceleft" unicode="{" horiz-adv-x="704" 
d="M667 1416l3 -57l5 -59c-122 -5 -254 -43 -296 -100c-10 -15 -19 -51 -24 -101c-2 -25 -3 -52 -3 -82c0 -27 1 -59 3 -89c2 -50 5 -100 5 -147c0 -72 -8 -141 -38 -198c-20 -40 -52 -57 -84 -72c37 -22 72 -54 87 -104c25 -74 30 -151 30 -223c0 -50 -3 -99 -3 -144v-35
c0 -94 10 -163 47 -198c60 -57 154 -74 251 -79l-8 -112c-102 5 -228 23 -320 112c-69 64 -84 155 -84 247c0 22 3 45 3 67c0 42 2 87 2 129c0 72 -5 141 -25 201c-2 15 -25 38 -57 55s-72 29 -97 34v109c25 5 67 18 102 33s52 27 57 32c15 32 20 116 20 213v75
c-2 37 -2 74 -2 109c0 25 0 49 2 74c5 60 13 111 45 156c82 119 245 147 379 154z" />
    <glyph glyph-name="bar" unicode="|" horiz-adv-x="327" 
d="M104 1411l112 -2v-70c0 -169 5 -474 12 -786c2 -156 5 -318 5 -464c0 -191 -5 -359 -12 -478l-112 10c7 104 10 257 10 431c0 156 -3 330 -5 499c-5 312 -10 612 -10 786v74z" />
    <glyph glyph-name="braceright" unicode="}" horiz-adv-x="709" 
d="M32 1412c122 -5 258 -35 360 -122c47 -40 69 -97 79 -152c7 -37 10 -77 10 -114c0 -20 -2 -39 -2 -59c-2 -52 -5 -104 -5 -154c0 -67 4 -131 24 -186c2 -7 16 -17 43 -27s67 -18 104 -25l-3 -109c-35 -7 -66 -15 -91 -30c-27 -12 -43 -27 -55 -57
c-12 -32 -15 -79 -15 -136c0 -55 3 -114 5 -174v-47c0 -112 -13 -228 -97 -305c-104 -92 -240 -95 -329 -102l-8 114c92 5 199 12 263 72c45 40 59 129 59 236v27c-2 62 -7 124 -7 184c0 62 5 119 25 171c15 40 39 72 69 94c-30 17 -55 40 -67 77c-30 74 -34 151 -34 225
c0 55 3 107 5 157c0 25 2 47 2 67c0 32 -3 59 -5 81c-7 40 -20 67 -42 87c-72 60 -189 90 -293 95z" />
    <glyph glyph-name="at" unicode="@" horiz-adv-x="1696" 
d="M851 1322c432 0 781 -365 781 -811c0 -149 -40 -289 -107 -411c-15 -22 -42 -63 -92 -93c-27 -15 -57 -19 -84 -19h-17c-32 5 -64 14 -94 34c-35 27 -82 75 -97 157c-45 -47 -104 -95 -181 -132c-55 -25 -127 -45 -201 -45c-64 0 -131 16 -191 53
c-82 52 -129 146 -129 243c0 74 30 150 92 210c104 99 238 132 357 132c17 0 34 -3 49 -3c67 -5 127 -22 179 -39c5 -2 10 -6 15 -8c-2 20 -3 40 -5 62c-7 114 -44 174 -94 209c-47 37 -109 49 -169 49c-136 -2 -214 -40 -303 -191l-96 57c102 174 235 244 399 246h15
c69 0 154 -18 223 -70c74 -57 127 -153 137 -292c7 -89 7 -151 7 -201v-132c0 -30 0 -64 2 -104c5 -77 22 -84 57 -109c7 -5 23 -12 40 -14c15 0 30 2 35 4c25 17 37 35 47 52c60 104 94 226 94 355c0 387 -299 697 -669 697s-670 -310 -670 -697s300 -699 670 -699
c124 0 240 36 339 96l60 -94c-117 -72 -253 -114 -399 -114c-432 0 -782 365 -782 811s350 811 782 811zM875 528c-94 -2 -190 -29 -267 -101c-40 -37 -57 -84 -57 -129c0 -60 32 -117 79 -149c32 -22 79 -33 126 -33c57 0 117 16 154 33c134 64 203 166 223 201v111
c-12 10 -34 20 -59 30c-40 17 -91 30 -146 35c-17 0 -36 2 -53 2z" />
    <glyph glyph-name="brokenbar" unicode="&#xa6;" horiz-adv-x="327" 
d="M114 670c-5 278 -10 526 -10 677v64l112 -2v-90c0 -144 2 -354 7 -649h-109zM234 370v-196c0 -223 -3 -432 -13 -563l-112 10c7 112 13 220 13 359c0 107 -3 234 -5 390h37h80z" />
    <glyph glyph-name="copyright" unicode="&#xa9;" horiz-adv-x="1713" 
d="M858 1337c477 0 804 -362 804 -829c0 -454 -360 -828 -804 -828s-803 374 -803 828c0 456 323 829 803 829zM858 1223c-379 0 -686 -318 -686 -715c0 -394 307 -711 686 -711s687 317 687 711v18c0 390 -311 697 -687 697zM536 866c64 74 176 136 300 148c17 0 32 3 47 3
c114 -2 233 -47 317 -166l-91 -67c-64 89 -142 119 -224 119c-12 0 -25 -1 -37 -3c-92 -10 -183 -61 -223 -106c-42 -50 -104 -136 -104 -300c0 -37 3 -79 10 -124s77 -156 124 -191c64 -50 129 -65 211 -65h17c129 2 221 57 268 136l99 -57c-69 -117 -204 -191 -365 -193
h-17c-99 0 -194 20 -283 87c-82 62 -153 163 -168 260c-7 50 -13 97 -13 139c0 198 80 320 132 380z" />
    <glyph glyph-name="registered" unicode="&#xae;" horiz-adv-x="1686" 
d="M843 1332c439 0 794 -370 794 -819s-355 -818 -794 -818s-793 369 -793 818s354 819 793 819zM843 1218c-374 0 -679 -316 -679 -705c0 -392 305 -704 679 -704s680 312 680 704c0 389 -306 705 -680 705zM521 10l-5 94v228v556v134h77c27 0 55 2 82 2h29
c72 0 137 -3 199 -15c92 -17 173 -54 230 -126c47 -57 68 -131 73 -203v-30c0 -62 -13 -122 -50 -169c-47 -60 -115 -89 -184 -99c69 -87 168 -208 218 -260c2 -2 16 -13 28 -20c11 -6 25 -14 25 -15h-1l-44 -114c-17 7 -28 15 -45 25s-35 22 -52 39
c-82 84 -241 285 -283 340c-60 5 -123 15 -185 25c0 -139 -1 -206 -3 -236v-62c2 -47 5 -82 5 -82zM694 908h-61v-15v-375c94 -15 183 -27 257 -27c82 0 137 15 174 62c12 15 25 60 25 107v12c-2 55 -23 109 -45 139c-37 45 -90 69 -164 84c-52 10 -114 13 -186 13z" />
    <glyph glyph-name="germandbls" unicode="&#xdf;" horiz-adv-x="2539" 
d="M397 1334c69 0 136 -7 193 -39c64 -35 149 -102 169 -216c2 -15 2 -32 2 -47c0 -37 -5 -74 -15 -109c-17 -52 -46 -105 -96 -137c74 -22 139 -54 201 -106c82 -67 114 -164 121 -251c2 -17 3 -35 3 -50c0 -67 -13 -124 -30 -166c-37 -94 -139 -213 -303 -213
c-87 0 -166 13 -230 60c-62 45 -100 126 -100 225h117c0 -77 20 -109 52 -134c32 -22 87 -37 161 -37c107 0 171 80 196 144c10 22 20 74 20 131v30c-5 67 -29 129 -79 174c-114 92 -228 109 -464 109v59v58c82 0 126 0 156 7c32 7 60 19 112 54c25 15 42 42 52 77
c7 25 12 50 12 72c0 12 0 23 -2 30c-10 64 -64 112 -109 134c-30 17 -82 27 -139 27c-47 0 -99 -27 -124 -52c-47 -47 -62 -109 -62 -166c5 -154 10 -357 10 -533c0 -87 -1 -167 -3 -231c-2 -62 -5 -101 -12 -136c-2 -35 -22 -62 -42 -82s-42 -35 -62 -47l-57 99
c12 7 30 20 37 30c10 7 10 15 10 10v7l2 7c0 2 8 53 10 115c0 62 3 141 3 228c0 174 -5 377 -10 528v12c0 79 22 169 94 241c47 45 122 84 206 84z" />
    <glyph glyph-name="ampersand" unicode="&#x26;" horiz-adv-x="1120" 
d="M498 1334c72 0 144 -19 201 -64c55 -45 95 -117 95 -201c0 -60 -25 -119 -72 -171c-47 -50 -117 -97 -216 -147c15 -17 30 -32 47 -54c64 -74 146 -171 223 -263c42 -47 43 -49 80 -94c30 67 47 153 47 270v22l114 3v-32c0 -151 -30 -268 -82 -357
c55 -62 149 -174 149 -174l-90 -74s-86 101 -128 151c-10 -10 -20 -20 -30 -27c-109 -97 -246 -122 -345 -122c-112 0 -216 27 -298 89c-79 64 -129 164 -129 288c0 99 36 191 100 268c42 50 94 97 158 139c-55 55 -124 138 -124 260c0 67 22 137 72 194
c52 57 131 96 228 96zM498 1220c-69 0 -111 -25 -141 -57c-30 -35 -45 -82 -45 -119c0 -82 52 -141 107 -193c2 -2 6 -8 8 -10c7 5 14 8 19 10c97 47 159 89 191 126c32 35 40 60 40 92c0 52 -20 84 -50 111c-32 25 -79 40 -129 40zM402 694c-64 -40 -114 -79 -149 -121
c-50 -62 -72 -122 -72 -196c0 -94 32 -154 84 -196c55 -42 134 -67 226 -67c82 0 186 22 268 94c12 7 22 20 32 30c-45 55 -50 60 -102 122c-79 92 -159 185 -223 262c-25 27 -44 52 -64 72z" />
    <glyph glyph-name="uni00B5" unicode="&#xb5;" horiz-adv-x="979" 
d="M97 -10v265v87v231s2 164 2 226v76v30c-2 17 -10 87 -12 99l111 23c7 -32 14 -87 16 -112v-40v-79c0 -62 -3 -141 -3 -223v-231c0 -32 3 -62 3 -84v-37c7 -45 26 -70 51 -87s58 -22 90 -22c69 2 116 12 171 47c52 32 111 92 188 181v573v104l117 -5c0 -25 -3 -62 -3 -99
v-519v-178c2 -45 10 -60 20 -75c12 -15 35 -32 72 -59l-69 -92c-35 25 -68 44 -95 79c-20 27 -32 63 -39 105c-45 -47 -87 -85 -129 -112c-69 -45 -144 -65 -228 -67h-13c-42 0 -84 7 -126 32l-7 5c-2 0 -1 -149 -6 -273c-2 -84 -34 -166 -34 -166c-45 10 -70 21 -105 33
c7 20 20 49 25 128c2 104 3 226 3 236z" />
    <glyph glyph-name="paragraph" unicode="&#xb6;" horiz-adv-x="1006" 
d="M806 122c0 37 0 195 -2 379c-35 -2 -72 -3 -107 -3v-178c0 -159 -6 -253 -8 -293l-2 -27l-112 12s5 50 5 112c0 40 3 198 3 379c-55 2 -104 8 -154 18c-119 25 -221 74 -295 163c-57 72 -79 167 -79 256c0 92 21 179 76 243c84 94 206 129 330 144c30 5 144 8 251 8
c92 0 181 -4 203 -11v-334c2 -89 3 -208 3 -330c2 -241 2 -484 2 -536c2 -64 8 -112 8 -112l-112 -10s-10 48 -10 120zM583 1218h-23c-32 0 -59 -3 -86 -5c-112 -12 -201 -42 -256 -104c-27 -32 -49 -100 -49 -169s19 -139 54 -184c55 -67 126 -102 228 -124
c40 -7 85 -13 132 -15v43c2 122 2 241 2 330v111s0 102 -2 117zM699 1218v-117v-111c0 -89 0 -208 -2 -330v-47c35 0 70 2 107 2v45c0 122 -1 238 -3 330v111v52v62c-32 0 -67 1 -102 3z" />
    <glyph glyph-name="periodcentered" unicode="&#xb7;" horiz-adv-x="376" 
d="M109 568h132l-3 -117h-126z" />
    <glyph glyph-name="questiondown" unicode="&#xbf;" horiz-adv-x="858" 
d="M531 903h-132l3 117h126zM441 -305h-37c-47 2 -96 10 -141 30c-102 50 -203 154 -203 300c0 97 29 168 74 225c45 55 99 100 159 162c69 77 111 123 111 235v28v96h117v-121c0 -149 -55 -221 -144 -318c-64 -67 -119 -111 -151 -153s-49 -80 -49 -154
c0 -92 63 -159 135 -194c17 -10 60 -17 100 -19h22c32 0 59 2 69 7c62 17 147 74 172 156c5 22 9 42 9 62c0 45 -17 80 -42 117l95 69c40 -52 61 -116 61 -188c0 -30 -2 -60 -12 -92c-40 -134 -153 -209 -250 -236c-27 -10 -60 -12 -95 -12z" />
    <glyph glyph-name="dieresis" unicode="&#xa8;" horiz-adv-x="989" 
d="M565 1262h129v-129l-129 -2v131zM223 1260h130v-129l-130 -3v132z" />
    <glyph glyph-name="uni0080" horiz-adv-x="838" 
d="M87 476c64 109 129 144 193 144c107 0 211 -99 290 -99c37 0 70 25 97 92l85 -75c-60 -99 -122 -134 -182 -134c-107 0 -203 97 -282 97c-40 0 -72 -20 -102 -89z" />
    <glyph glyph-name="acute" unicode="&#xb4;" horiz-adv-x="466" 
d="M382 1580l62 -90c-117 -97 -295 -158 -444 -200l-35 94c144 45 293 99 417 196z" />
    <glyph glyph-name="degree" unicode="&#xb0;" horiz-adv-x="2539" 
d="M243 1151c0 97 102 178 226 178s223 -81 223 -178s-99 -176 -223 -176s-226 79 -226 176zM350 1153c0 -50 52 -94 116 -94s117 44 117 94s-53 89 -117 89s-116 -39 -116 -89z" />
    <glyph glyph-name="macron" unicode="&#xaf;" horiz-adv-x="1031" 
d="M541 1344v-99c-64 0 -145 -3 -229 -3s-171 1 -245 3v102c60 -2 144 -3 228 -3h246z" />
    <glyph glyph-name="dotlessi" unicode="&#x131;" horiz-adv-x="500" 
d="M298 1029c0 0 4 -37 4 -92v-158c0 -171 -2 -392 -4 -568c5 -42 12 -63 24 -80c12 -15 35 -32 70 -57l-60 -76c-35 15 -79 34 -104 69s-39 79 -44 136v3c2 176 4 402 4 573v158v87z" />
    <glyph glyph-name="Amacron" unicode="&#x100;" horiz-adv-x="1195" 
d="M851 1512.64v-99c-64 0 -145 -3 -229 -3s-171 1 -245 3v102c60 -2 144 -3 228 -3h246zM556 1332h109l481 -1320l-109 -39l-194 525c-45 0 -129 0 -221 -2c-67 -2 -135 -5 -190 -10c-30 -2 -58 -7 -75 -12l-186 -496l-109 39zM608 1141l-201 -538h12c60 5 134 10 201 12
h64h117z" />
    <glyph glyph-name="amacron" unicode="&#x101;" horiz-adv-x="1010" 
d="M734.96 1298.62v-99c-64 0 -145 -3 -229 -3s-171 1 -245 3v102c60 -2 144 -3 228 -3h246zM564 637c70 -5 119 -19 169 -44v62c0 111 -28 171 -75 208c-47 35 -111 52 -171 52c-141 -2 -219 -42 -308 -193l-94 57c102 174 231 246 400 248h14c72 0 157 -17 226 -72
c77 -57 122 -151 122 -293v-447c0 -35 10 -62 22 -77c10 -12 35 -32 70 -57l-70 -91c-32 25 -64 47 -91 79c-17 27 -33 62 -38 102c-42 -45 -79 -98 -156 -133c-55 -25 -130 -45 -204 -45c-64 0 -128 13 -188 50c-84 55 -132 152 -132 251c0 74 28 154 90 214
c102 97 233 132 352 132c20 0 42 -1 62 -3zM733 459c-15 7 -39 22 -64 32c-40 15 -63 27 -118 32c-15 2 -34 3 -49 3c-97 0 -196 -30 -273 -104c-40 -37 -57 -85 -57 -130c0 -62 30 -125 77 -155c32 -20 79 -30 124 -30c60 0 124 15 161 32c134 64 179 145 199 180v140z" />
    <glyph glyph-name="Cacute" unicode="&#x106;" horiz-adv-x="1096" 
d="M761.44 1696.56l62 -90c-117 -97 -295 -158 -444 -200l-35 94c144 45 293 99 417 196zM613 1339c129 -2 263 -67 357 -221l-100 -59c-77 124 -166 161 -255 161c-12 0 -27 0 -42 -2c-104 -12 -208 -80 -258 -144v-3c-50 -69 -124 -193 -124 -424c0 -52 5 -109 12 -171
c10 -74 90 -221 147 -273c77 -69 148 -86 240 -86h20c146 5 253 74 310 191l104 -53c-77 -151 -225 -250 -411 -255h-15c-114 0 -229 28 -328 117c-89 82 -166 225 -183 344c-10 64 -13 124 -13 179c0 263 92 422 147 501c69 94 193 176 337 193c17 2 38 5 55 5z" />
    <glyph glyph-name="cacute" unicode="&#x107;" horiz-adv-x="967" 
d="M659.76 1448.62l62 -90c-117 -97 -295 -158 -444 -200l-35 94c144 45 293 99 417 196zM541 1047c45 0 89 -10 131 -20c109 -25 171 -97 208 -191l-109 -47c-30 82 -47 104 -126 124c-40 7 -82 17 -124 17c-107 0 -216 -37 -288 -124c-35 -45 -79 -126 -79 -280
c0 -45 8 -94 15 -156c7 -52 71 -159 121 -196c74 -50 144 -67 233 -67h23c149 2 253 59 310 143l99 -64c-77 -119 -223 -194 -402 -196h-22c-109 0 -208 20 -310 87c-92 67 -156 176 -171 273c-10 64 -13 123 -13 173c0 184 52 293 102 360c102 122 245 164 379 164h23z" />
    <glyph glyph-name="Ccircumflex" unicode="&#x108;" horiz-adv-x="1096" 
d="M588.16 1705.68l294 -213l-56 -87l-238 159l-238 -159l-58 87zM613 1339c129 -2 263 -67 357 -221l-100 -59c-77 124 -166 161 -255 161c-12 0 -27 0 -42 -2c-104 -12 -208 -80 -258 -144v-3c-50 -69 -124 -193 -124 -424c0 -52 5 -109 12 -171c10 -74 90 -221 147 -273
c77 -69 148 -86 240 -86h20c146 5 253 74 310 191l104 -53c-77 -151 -225 -250 -411 -255h-15c-114 0 -229 28 -328 117c-89 82 -166 225 -183 344c-10 64 -13 124 -13 179c0 263 92 422 147 501c69 94 193 176 337 193c17 2 38 5 55 5z" />
    <glyph glyph-name="ccircumflex" unicode="&#x109;" horiz-adv-x="967" 
d="M490 1458.96l294 -213l-56 -87l-238 159l-238 -159l-58 87zM541 1047c45 0 89 -10 131 -20c109 -25 171 -97 208 -191l-109 -47c-30 82 -47 104 -126 124c-40 7 -82 17 -124 17c-107 0 -216 -37 -288 -124c-35 -45 -79 -126 -79 -280c0 -45 8 -94 15 -156
c7 -52 71 -159 121 -196c74 -50 144 -67 233 -67h23c149 2 253 59 310 143l99 -64c-77 -119 -223 -194 -402 -196h-22c-109 0 -208 20 -310 87c-92 67 -156 176 -171 273c-10 64 -13 123 -13 173c0 184 52 293 102 360c102 122 245 164 379 164h23z" />
    <glyph glyph-name="Cdotaccent" unicode="&#x10a;" horiz-adv-x="1096" 
d="M498.12 1594.36l152 -2l-3 -149h-149v151zM613 1339c129 -2 263 -67 357 -221l-100 -59c-77 124 -166 161 -255 161c-12 0 -27 0 -42 -2c-104 -12 -208 -80 -258 -144v-3c-50 -69 -124 -193 -124 -424c0 -52 5 -109 12 -171c10 -74 90 -221 147 -273
c77 -69 148 -86 240 -86h20c146 5 253 74 310 191l104 -53c-77 -151 -225 -250 -411 -255h-15c-114 0 -229 28 -328 117c-89 82 -166 225 -183 344c-10 64 -13 124 -13 179c0 263 92 422 147 501c69 94 193 176 337 193c17 2 38 5 55 5z" />
    <glyph glyph-name="cdotaccent" unicode="&#x10b;" horiz-adv-x="967" 
d="M426 1328h129v-129l-129 -3v132zM541 1047c45 0 89 -10 131 -20c109 -25 171 -97 208 -191l-109 -47c-30 82 -47 104 -126 124c-40 7 -82 17 -124 17c-107 0 -216 -37 -288 -124c-35 -45 -79 -126 -79 -280c0 -45 8 -94 15 -156c7 -52 71 -159 121 -196
c74 -50 144 -67 233 -67h23c149 2 253 59 310 143l99 -64c-77 -119 -223 -194 -402 -196h-22c-109 0 -208 20 -310 87c-92 67 -156 176 -171 273c-10 64 -13 123 -13 173c0 184 52 293 102 360c102 122 245 164 379 164h23z" />
    <glyph glyph-name="Ccaron" unicode="&#x10c;" horiz-adv-x="1096" 
d="M583 1401l-295 216l57 84l238 -158l238 158l57 -84zM613 1339c129 -2 263 -67 357 -221l-100 -59c-77 124 -166 161 -255 161c-12 0 -27 0 -42 -2c-104 -12 -208 -80 -258 -144v-3c-50 -69 -124 -193 -124 -424c0 -52 5 -109 12 -171c10 -74 90 -221 147 -273
c77 -69 148 -86 240 -86h20c146 5 253 74 310 191l104 -53c-77 -151 -225 -250 -411 -255h-15c-114 0 -229 28 -328 117c-89 82 -166 225 -183 344c-10 64 -13 124 -13 179c0 263 92 422 147 501c69 94 193 176 337 193c17 2 38 5 55 5z" />
    <glyph glyph-name="ccaron" unicode="&#x10d;" horiz-adv-x="967" 
d="M507 1150l-298 216l60 84l238 -158l236 158l59 -84c-98 -72 -197 -132 -295 -216zM541 1047c45 0 89 -10 131 -20c109 -25 171 -97 208 -191l-109 -47c-30 82 -47 104 -126 124c-40 7 -82 17 -124 17c-107 0 -216 -37 -288 -124c-35 -45 -79 -126 -79 -280
c0 -45 8 -94 15 -156c7 -52 71 -159 121 -196c74 -50 144 -67 233 -67h23c149 2 253 59 310 143l99 -64c-77 -119 -223 -194 -402 -196h-22c-109 0 -208 20 -310 87c-92 67 -156 176 -171 273c-10 64 -13 123 -13 173c0 184 52 293 102 360c102 122 245 164 379 164h23z" />
    <glyph glyph-name="Dcaron" unicode="&#x10e;" horiz-adv-x="1168" 
d="M451 1414l-295 215l57 85l238 -159l238 159l57 -85zM332 1337c280 0 462 -82 593 -266c92 -126 144 -307 144 -491c0 -69 -7 -139 -22 -206c-52 -241 -251 -357 -432 -374c-57 -5 -109 -7 -166 -7c-74 0 -156 2 -275 7h-70s1 37 3 114c0 57 7 467 7 799v148v124
c-2 69 -10 139 -10 139l89 8c35 2 82 5 139 5zM228 1218c2 -47 3 -107 3 -171v-134c0 -332 -8 -739 -8 -796c107 -2 181 -7 248 -7c45 0 87 2 132 7c146 15 287 91 329 282c12 55 18 114 18 171c0 166 -45 332 -119 434c-119 164 -238 216 -474 216c-47 0 -94 0 -129 -2z
" />
    <glyph glyph-name="emacron" unicode="&#x113;" horiz-adv-x="1051" 
d="M782.6 1312.76v-99c-64 0 -145 -3 -229 -3s-171 1 -245 3v102c60 -2 144 -3 228 -3h246zM543 1042c256 0 394 -162 427 -382c2 -37 5 -75 5 -97v-22l-5 -52l-55 -2s-169 -8 -345 -13c-151 -7 -292 -14 -376 -19c12 -112 49 -214 111 -274c67 -62 149 -81 233 -81
c37 0 85 5 122 12c139 30 218 131 218 131l94 -74s-106 -129 -290 -169c-47 -7 -94 -14 -146 -14c-104 0 -218 27 -310 114c-107 102 -157 257 -157 426c0 17 1 33 3 50c13 249 189 466 471 466zM192 579c89 7 234 16 388 21c144 5 236 8 276 8c0 17 -1 20 -3 45
c-22 167 -145 275 -310 275c-215 0 -345 -163 -351 -349z" />
    <glyph glyph-name="Emacron" unicode="&#x112;" horiz-adv-x="1048" 
d="M724.24 1515.12v-99c-64 0 -145 -3 -229 -3s-171 1 -245 3v102c60 -2 144 -3 228 -3h246zM428 1330h114c154 0 301 -3 385 -3v-114h-447h-245c-2 -22 -2 -43 -2 -65v-5v-158v-167h252h229l2 -114h-231h-252v-52c0 -236 -3 -476 -3 -538h317h278c62 2 82 8 124 20l32 -109
c-42 -12 -81 -23 -153 -25h-281h-325l-109 -5s1 37 3 114v3v540c0 122 2 243 2 335v164c2 69 8 131 10 173v3c77 2 186 3 300 3z" />
    <glyph glyph-name="uniE038" unicode="&#xe038;" horiz-adv-x="686" 
d="M647 1419l-12 -112c-50 10 -94 15 -129 15c-94 0 -144 -30 -176 -50c-40 -32 -77 -89 -77 -178v-72c55 0 164 -3 248 -3c87 -2 149 -17 149 -17l-25 -109s-45 17 -124 17c-11 1 -26 1 -42 1c-33 0 -73 -1 -99 -1h-23c-27 0 -54 -3 -79 -5c0 -92 5 -655 5 -848v-57h-114
v139c0 162 1 430 1 604c0 87 0 148 -1 162h-99v114h94c0 45 -3 60 -3 67v23c5 117 52 203 119 253s147 64 214 64c2 0 131 -2 173 -7z" />
    <glyph glyph-name="asterisk" unicode="*" horiz-adv-x="1051" 
d="M474 1019h114v-419c119 40 364 124 379 129l35 -109c-146 -50 -266 -94 -380 -131c42 -50 266 -360 266 -360l-94 -69c-22 35 -149 218 -263 362c-117 -144 -239 -327 -261 -362l-96 71s223 308 265 358c-114 37 -233 81 -379 131l34 112c15 -5 261 -92 380 -132v89v241
v89z" />
    <glyph glyph-name="t_y" unicode="&#xe03d;" horiz-adv-x="1805" 
d="M898 -164c10 -21 20 -39 31 -54c30 -40 59 -55 109 -62h20c32 0 60 10 87 32c32 27 62 71 87 126c22 52 44 104 69 159c-57 139 -146 323 -238 489c-97 174 -201 323 -253 370c-5 5 -12 8 -22 10c-12 2 -34 1 -54 2l-295 -3c-55 0 -114 -2 -169 -2v-8
c-10 -216 -7 -359 -12 -463v-43c0 -79 7 -131 32 -183c30 -60 80 -87 164 -94c15 0 27 -2 42 -2c69 0 92 7 124 24c67 32 94 97 94 97l104 -43s-39 -101 -148 -156c-57 -30 -85 -39 -172 -39c-17 0 -37 0 -54 2c-107 10 -206 52 -258 161c-35 72 -42 144 -42 233v45
c5 112 5 253 12 466c-45 -2 -81 -8 -106 -10l-15 114c32 5 74 8 124 10c0 67 2 142 2 211l117 -2c0 -64 -3 -136 -3 -203h164h295c30 0 57 0 82 -5s48 -15 70 -35c84 -74 177 -221 276 -400c74 -134 144 -278 201 -404c104 238 209 484 271 707c2 10 7 39 9 64s3 55 3 55
l112 15v-23c0 -20 -1 -37 -3 -57c-2 -30 -5 -59 -12 -84c-92 -332 -269 -702 -410 -1022c-30 -67 -64 -124 -116 -166c-45 -35 -101 -59 -161 -59c-10 0 -23 0 -33 2c-74 10 -138 47 -183 107c-16 21 -29 44 -41 70z" />
    <glyph glyph-name="gravecomb" unicode="&#x300;" 
d="M55 1452c124 -97 273 -151 417 -196l-36 -94c-149 42 -326 103 -443 200z" />
    <glyph glyph-name="acutecomb" unicode="&#x301;" 
d="M412 1467l62 -90c-117 -97 -295 -158 -444 -200l-34 94c144 45 292 99 416 196z" />
    <glyph glyph-name="uni0302" unicode="&#x302;" 
d="M351 1459l294 -213l-56 -87l-238 159l-238 -159l-58 87z" />
    <glyph glyph-name="tildecomb" unicode="&#x303;" 
d="M110 1251c57 102 114 137 174 137c102 0 199 -95 273 -95c37 0 69 23 94 87l81 -70c-60 -97 -120 -126 -180 -126c-97 0 -189 92 -263 92c-32 0 -59 -22 -84 -82z" />
    <glyph glyph-name="uni0304" unicode="&#x304;" 
d="M541 1344v-99c-64 0 -145 -3 -229 -3s-171 1 -245 3v102c60 -2 144 -3 228 -3h246z" />
    <glyph glyph-name="uni0305" unicode="&#x305;" 
d="M796 1344v-99c-64 0 -400 -3 -484 -3s-171 1 -245 3v102c60 -2 144 -3 228 -3h501z" />
    <glyph glyph-name="uni0306" unicode="&#x306;" 
d="M512 1307c135 0 237 84 245 188l115 -32c-24 -177 -197 -264 -362 -264c-126 0 -308 48 -356 273l109 35c33 -156 133 -200 249 -200z" />
    <glyph glyph-name="uni0307" unicode="&#x307;" 
d="M162 1331h130v-128l-130 -3v131z" />
    <glyph glyph-name="uni0308" unicode="&#x308;" 
d="M564 1333h129v-129l-129 -2v131zM222 1331h130v-129l-130 -3v132z" />
    <glyph glyph-name="hookabovecomb" unicode="&#x309;" 
d="M626 953l-146 4v188c28 -10 30 -17 78 -17s86 25 86 54v2c-3 38 -44 58 -80 58c-51 0 -91 -24 -124 -42l-38 106c56 36 128 61 194 61c84 0 184 -67 184 -168c0 -104 -58 -166 -155 -171c0 -3 0 -67 1 -75z" />
    <glyph glyph-name="uni030A" unicode="&#x30a;" 
d="M243 1151c0 97 102 178 226 178s223 -81 223 -178s-99 -176 -223 -176s-226 79 -226 176zM350 1153c0 -50 52 -94 116 -94s117 44 117 94s-53 89 -117 89s-116 -39 -116 -89z" />
    <glyph glyph-name="uni030B" unicode="&#x30b;" 
d="M445 1273c117 95 243 261 313 402l154 -100c-65 -144 -234 -323 -352 -417zM109 1280c117 95 243 261 313 402l154 -99c-65 -144 -235 -324 -353 -418z" />
    <glyph glyph-name="uni030C" unicode="&#x30c;" 
d="M521 1218l-352 282l86 123l266 -203l266 203l88 -123z" />
    <glyph glyph-name="uni030D" unicode="&#x30d;" 
d="M423 1628h159v-348h-159v348z" />
    <glyph glyph-name="uni030E" unicode="&#x30e;" 
d="M587 1628h159v-348h-159v348zM323 1628h159v-348h-159v348z" />
    <glyph glyph-name="uni030F" unicode="&#x30f;" 
d="M903 1295l-125 -104c-108 105 -259 302 -310 451l164 83c56 -147 164 -324 271 -430zM577 1266l-125 -104c-108 105 -259 302 -310 451l164 83c56 -147 164 -324 271 -430z" />
    <glyph glyph-name="uni0310" unicode="&#x310;" 
d="M510 1510c-93 0 -173 -33 -200 -150l-156 30c48 225 230 273 356 273c165 0 338 -87 362 -264l-166 -30c-6 78 -88 141 -196 141z" />
    <glyph glyph-name="uni0311" unicode="&#x311;" 
d="M277 1283c38 112 64 221 109 372l152 -34c-18 -142 -46 -283 -67 -386z" />
    <glyph glyph-name="uni0312" unicode="&#x312;" 
d="M428 1597h220v-215c0 -151 -67 -227 -196 -283l-53 127c60 28 86 51 86 150h-57v221z" />
    <glyph glyph-name="uni0313" unicode="&#x313;" 
d="M631 1597v-221h-57c0 -99 26 -122 86 -150l-53 -127c-129 56 -196 132 -196 283v215h220z" />
    <glyph glyph-name="ogonek" unicode="&#x2db;" horiz-adv-x="2048" 
d="M1466 25l134 -21c-70 -70 -224 -150 -238 -242c-1 -5 -1 -10 -1 -14c0 -36 25 -55 55 -55c39 0 59 12 107 65l75 -78c-66 -71 -87 -97 -189 -97c-100 0 -165 54 -165 147c0 18 3 39 8 60c33 128 153 179 214 235z" />
    <glyph glyph-name="aogonek" unicode="&#x105;" horiz-adv-x="1028" 
d="M573 637c70 -5 119 -19 169 -44v62c0 111 -28 171 -75 208c-47 35 -111 52 -171 52c-141 -2 -219 -42 -308 -193l-94 57c102 174 231 246 400 248h14c72 0 157 -17 226 -72c77 -57 122 -151 122 -293v-444c0 -35 10 -62 22 -77c10 -12 35 -32 70 -57l-70 -91
c-62 -75 -209 -132 -251 -238c-3 -8 -4 -16 -4 -22c0 -42 61 -48 90 -48c39 0 70 15 118 68l75 -78c-66 -71 -117 -100 -200 -100c-101 0 -204 49 -204 152c0 20 4 41 13 65c40 108 195 193 275 276c-1 1 -2 3 -3 4c-17 27 -33 62 -38 102c-42 -45 -79 -99 -156 -134
c-55 -25 -130 -45 -204 -45c-64 0 -128 13 -188 50c-84 55 -132 151 -132 250c0 74 28 153 90 213c102 97 233 132 352 132c20 0 42 -1 62 -3zM742 459c-15 7 -39 22 -64 32c-40 15 -63 27 -118 32c-15 2 -34 3 -49 3c-97 0 -196 -30 -273 -104c-40 -37 -57 -84 -57 -129
c0 -62 30 -124 77 -154c32 -20 79 -30 124 -30c60 0 124 15 161 32c134 64 179 144 199 179v139z" />
    <glyph glyph-name="eogonek" unicode="&#x119;" horiz-adv-x="1039" 
d="M192 579c89 7 234 16 388 21c144 5 236 8 276 8c0 17 -1 20 -3 45c-22 167 -145 275 -310 275c-215 0 -345 -163 -351 -349zM543 1042c256 0 394 -162 427 -382c2 -37 5 -75 5 -97v-22l-5 -52l-55 -2s-169 -8 -345 -13c-151 -7 -292 -14 -376 -19
c12 -112 49 -214 111 -274c67 -62 149 -81 233 -81c37 0 85 5 122 12c139 30 218 131 218 131l94 -74c-81 -107 -240 -169 -352 -422c-3 -8 -5 -16 -5 -22c0 -42 62 -48 91 -48c39 0 70 15 118 68l75 -78c-66 -71 -117 -100 -200 -100c-101 0 -204 49 -204 152
c0 20 3 43 13 66c40 90 90 157 142 211c-37 -5 -74 -10 -114 -10c-104 0 -218 27 -310 114c-107 102 -157 257 -157 426c0 17 1 33 3 50c13 249 189 466 471 466z" />
    <glyph glyph-name="quoteright" unicode="&#x2019;" horiz-adv-x="466" 
d="M315 1413c5 -30 8 -59 8 -89c0 -79 -18 -161 -40 -230c-32 -99 -72 -177 -129 -224l-75 95c17 12 65 81 92 163c20 64 35 137 35 204c0 22 -3 42 -5 62z" />
    <glyph glyph-name="Abreve" unicode="&#x102;" horiz-adv-x="1195" 
d="M609.5 1484c135 0 237 84 245 188l115 -32c-24 -177 -197 -264 -362 -264c-126 0 -308 48 -356 273l109 35c33 -156 133 -200 249 -200zM556 1332h109l481 -1320l-109 -39l-194 525c-45 0 -129 0 -221 -2c-67 -2 -135 -5 -190 -10c-30 -2 -58 -7 -75 -12l-186 -496
l-109 39zM608 1141l-201 -538h12c60 5 134 10 201 12h64h117z" />
    <glyph glyph-name="abreve" unicode="&#x103;" horiz-adv-x="1010" 
d="M490 1305.95c135 0 237 84 245 188l115 -32c-24 -177 -197 -264 -362 -264c-126 0 -308 48 -356 273l109 35c33 -156 133 -200 249 -200zM564 637c70 -5 119 -19 169 -44v62c0 111 -28 171 -75 208c-47 35 -111 52 -171 52c-141 -2 -219 -42 -308 -193l-94 57
c102 174 231 246 400 248h14c72 0 157 -17 226 -72c77 -57 122 -151 122 -293v-447c0 -35 10 -62 22 -77c10 -12 35 -32 70 -57l-70 -91c-32 25 -64 47 -91 79c-17 27 -33 62 -38 102c-42 -45 -79 -98 -156 -133c-55 -25 -130 -45 -204 -45c-64 0 -128 13 -188 50
c-84 55 -132 152 -132 251c0 74 28 154 90 214c102 97 233 132 352 132c20 0 42 -1 62 -3zM733 459c-15 7 -39 22 -64 32c-40 15 -63 27 -118 32c-15 2 -34 3 -49 3c-97 0 -196 -30 -273 -104c-40 -37 -57 -85 -57 -130c0 -62 30 -125 77 -155c32 -20 79 -30 124 -30
c60 0 124 15 161 32c134 64 179 145 199 180v140z" />
    <glyph glyph-name="ebreve" unicode="&#x115;" horiz-adv-x="1051" 
d="M544 1311.83c135 0 237 84 245 188l115 -32c-24 -177 -197 -264 -362 -264c-126 0 -308 48 -356 273l109 35c33 -156 133 -200 249 -200zM543 1042c256 0 394 -162 427 -382c2 -37 5 -75 5 -97v-22l-5 -52l-55 -2s-169 -8 -345 -13c-151 -7 -292 -14 -376 -19
c12 -112 49 -214 111 -274c67 -62 149 -81 233 -81c37 0 85 5 122 12c139 30 218 131 218 131l94 -74s-106 -129 -290 -169c-47 -7 -94 -14 -146 -14c-104 0 -218 27 -310 114c-107 102 -157 257 -157 426c0 17 1 33 3 50c13 249 189 466 471 466zM192 579
c89 7 234 16 388 21c144 5 236 8 276 8c0 17 -1 20 -3 45c-22 167 -145 275 -310 275c-215 0 -345 -163 -351 -349z" />
    <glyph glyph-name="ecaron" unicode="&#x11b;" horiz-adv-x="1039" 
 />
    <glyph glyph-name="gbreve" unicode="&#x11f;" horiz-adv-x="1063" 
d="M515.5 1305.43c135 0 237 84 245 188l115 -32c-24 -177 -197 -264 -362 -264c-126 0 -308 48 -356 273l109 35c33 -156 133 -200 249 -200zM636 179h8c169 0 350 -52 350 -243c0 -273 -264 -328 -539 -328c-213 0 -374 87 -374 288v12c0 102 49 151 116 201
c-72 30 -96 114 -96 191c0 82 29 129 54 159c5 7 13 15 18 22c-45 47 -75 107 -75 179c0 201 184 367 417 367c109 0 201 -25 275 -75c35 35 95 65 159 70c25 5 52 5 52 5l5 -122c-20 0 -87 -7 -99 -17c-10 -5 -23 -15 -35 -27c22 -42 35 -89 35 -144
c0 -92 -18 -172 -75 -236c-64 -74 -195 -126 -339 -126c-79 0 -154 20 -221 52l-27 -28c-15 -17 -22 -36 -22 -76c0 -109 54 -127 218 -127c52 0 118 3 195 3zM788 717c0 141 -119 188 -273 188c-179 0 -295 -119 -295 -245c0 -119 149 -181 280 -181c112 0 211 44 243 81
c30 35 45 83 45 157zM331 60c-99 -50 -129 -82 -131 -154c0 -57 13 -92 40 -117c35 -32 114 -59 218 -59c166 0 387 22 409 146c2 20 5 40 5 57c-2 112 -116 129 -290 129c-74 0 -159 0 -251 -2z" />
    </font>
</defs>
</svg>
