<?xml version="1.0" encoding="UTF-8" standalone="no"?>
<!-- Created with Inkscape (http://www.inkscape.org/) -->

<svg
   xmlns:dc="http://purl.org/dc/elements/1.1/"
   xmlns:cc="http://creativecommons.org/ns#"
   xmlns:rdf="http://www.w3.org/1999/02/22-rdf-syntax-ns#"
   xmlns:svg="http://www.w3.org/2000/svg"
   xmlns="http://www.w3.org/2000/svg"
   xmlns:sodipodi="http://sodipodi.sourceforge.net/DTD/sodipodi-0.dtd"
   xmlns:inkscape="http://www.inkscape.org/namespaces/inkscape"
   id="svg2"
   version="1.1"
   inkscape:version="0.91 r13725"
   width="72"
   height="72"
   viewBox="0 0 72 72"
   sodipodi:docname="bitbucket_ico.svg"
   inkscape:export-filename="/home/jord/code/forivall.com/forivall.github.io/images/bitbucket_ico.png"
   inkscape:export-xdpi="45"
   inkscape:export-ydpi="45">
  <metadata
     id="metadata8">
    <rdf:RDF>
      <cc:Work
         rdf:about="">
        <dc:format>image/svg+xml</dc:format>
        <dc:type
           rdf:resource="http://purl.org/dc/dcmitype/StillImage" />
        <dc:title />
      </cc:Work>
    </rdf:RDF>
  </metadata>
  <defs
     id="defs6" />
  <sodipodi:namedview
     pagecolor="#ffffff"
     bordercolor="#666666"
     borderopacity="1"
     objecttolerance="10"
     gridtolerance="10"
     guidetolerance="10"
     inkscape:pageopacity="0"
     inkscape:pageshadow="2"
     inkscape:window-width="875"
     inkscape:window-height="747"
     id="namedview4"
     showgrid="false"
     inkscape:zoom="3.9333333"
     inkscape:cx="36.57319"
     inkscape:cy="34.782041"
     inkscape:window-x="661"
     inkscape:window-y="117"
     inkscape:window-maximized="0"
     inkscape:current-layer="svg2"
     fit-margin-top="0"
     fit-margin-left="0"
     fit-margin-right="0"
     fit-margin-bottom="0" />
  <path
     style="fill:#000000"
     d="m 25.971819,67.69508 c -7.614531,-2.05219 -8.748862,-3.308333 -10.351425,-11.463004 -0.640792,-3.260681 -1.02861,-6.064977 -0.861818,-6.231773 0.166792,-0.166791 2.219568,0.646035 4.561722,1.806285 5.315224,2.633029 9.819767,3.607197 16.679723,3.607197 6.859954,0 11.364502,-0.974168 16.679726,-3.607197 2.342152,-1.16025 4.394932,-1.973076 4.56172,-1.806285 0.166795,0.166796 -0.224051,3.005158 -0.868544,6.30748 -1.074426,5.505268 -1.324635,6.158359 -3.010947,7.859048 -2.933299,2.958329 -7.317095,4.121807 -16.342619,4.337409 -6.099217,0.145696 -8.029078,0.0047 -11.047538,-0.80916 z M 29.720214,49.827179 C 25.817218,49.339366 19.849215,47.642477 17.148473,46.252637 16.16397,45.745999 14.696384,44.63447 13.88717,43.782562 12.488801,42.310428 12.290647,41.483654 9.8894082,27.102463 7.365549,11.986888 7.3639597,11.969898 8.3495589,10.638902 11.754602,6.0405852 21.730129,3.4453476 36.000021,3.4453476 c 14.269896,0 24.24542,2.5952376 27.650467,7.1935544 0.985599,1.330998 0.984013,1.347957 -1.540755,16.468954 -2.503394,14.993046 -2.543149,15.15287 -4.192317,16.854382 -4.246777,4.381559 -17.691381,7.178001 -28.197202,5.864941 z m 9.717784,-6.392333 c 2.421075,-1.011589 3.578869,-2.08418 4.770945,-4.419849 2.139722,-4.192415 0.560305,-9.595434 -3.500632,-11.975302 -6.24462,-3.659589 -13.882314,0.704095 -13.882314,7.931453 0,6.517858 6.626325,10.964675 12.612001,8.463698 z m -6.315591,-5.521654 c -1.921098,-1.652462 -1.894904,-4.616593 0.05563,-6.294363 4.258917,-3.663365 9.745177,2.598997 5.568753,6.356527 -1.649735,1.484259 -3.854881,1.459888 -5.624375,-0.06217 z M 44.608679,15.14451 c 5.963467,-0.747756 9.441769,-1.969627 9.643573,-3.38763 C 54.471413,10.216858 52.443855,9.2581194 46.936923,8.2977907 35.355426,6.2781472 17.651972,8.2220031 17.651972,11.513306 c 0,1.663078 3.596363,2.862481 11.467531,3.824475 3.363711,0.411105 11.47651,0.309875 15.489176,-0.193271 z"
     id="path3340"
     inkscape:connector-curvature="0" />
</svg>
