<svg xmlns="http://www.w3.org/2000/svg" viewBox="0 0 72 72"><path d="m25.972 67.7c-7.615-2.052-8.749-3.308-10.351-11.463-.641-3.261-1.029-6.06-.862-6.232.167-.167 2.22.646 4.562 1.806 5.315 2.633 9.82 3.607 16.68 3.607 6.86 0 11.365-.974 16.68-3.607 2.342-1.16 4.395-1.973 4.562-1.806.167.167-.224 3.01-.869 6.307-1.074 5.505-1.325 6.158-3.01 7.859-2.933 2.958-7.317 4.122-16.343 4.337-6.099.146-8.03.005-11.05-.809m3.748-17.868c-3.903-.488-9.871-2.185-12.572-3.575-.985-.507-2.452-1.618-3.261-2.47-1.398-1.472-1.597-2.299-3.998-16.68-2.524-15.12-2.525-15.13-1.54-16.464 3.405-4.598 13.381-7.194 27.65-7.194 14.27 0 24.25 2.595 27.65 7.194.986 1.331.984 1.348-1.541 16.469-2.503 14.993-2.543 15.15-4.192 16.854-4.247 4.382-17.691 7.178-28.2 5.865m9.718-6.392c2.421-1.012 3.579-2.084 4.771-4.42 2.14-4.192.56-9.595-3.501-11.975-6.245-3.66-13.882.704-13.882 7.931 0 6.518 6.626 10.965 12.612 8.464m-6.316-5.522c-1.921-1.652-1.895-4.617.056-6.294 4.259-3.663 9.745 2.599 5.569 6.357-1.65 1.484-3.855 1.46-5.624-.062m11.486-22.769c5.963-.748 9.442-1.97 9.644-3.388.219-1.54-1.808-2.499-7.315-3.459-11.581-2.02-29.28-.076-29.28 3.216 0 1.663 3.596 2.862 11.468 3.824 3.364.411 11.477.31 15.489-.193"/></svg>