<svg xmlns="http://www.w3.org/2000/svg" viewBox="0 0 36 36"><defs><clipPath id="0"><path d="m0 500h1024v-500h-1024v500"/></clipPath></defs><g transform="matrix(1.25 0 0-1.25-794.44 186.69)"><g clip-path="url(#0)" transform="translate(-19.332-1.757)"><path d="m-207.04-237.94h-22.774c-.78 0-1.413-.632-1.413-1.413v-22.774c0-.78.632-1.413 1.413-1.413h12.261v9.914h-3.336v3.864h3.336v2.849c0 3.306 2.02 5.107 4.969 5.107 1.413 0 2.627-.105 2.981-.152v-3.456l-2.046-.0001c-1.604 0-1.915-.762-1.915-1.881v-2.467h3.826l-.498-3.864h-3.328v-9.914h6.524c.78 0 1.413.633 1.413 1.413v22.774c0 .78-.633 1.413-1.413 1.413" transform="translate(887.72 387.45)"/></g></g></svg>