<?xml version="1.0" encoding="UTF-8" standalone="no"?>
<svg xmlns="http://www.w3.org/2000/svg" xmlns:sodipodi="http://sodipodi.sourceforge.net/DTD/sodipodi-0.dtd" xmlns:inkscape="http://www.inkscape.org/namespaces/inkscape" version="1.1" width="36" height="36" viewBox="0 0 36 36">
 <metadata id="metadata8"/>
 <defs id="defs6">
  <clipPath id="clipPath40">
   <path d="M 0,500 1024,500 1024,0 0,0 0,500 Z" id="path42"/>
  </clipPath>
 </defs>
 <g id="g10" inkscape:groupmode="layer" inkscape:label="FB-fLogo-online-broadcast" transform="matrix(1.25,0,0,-1.25,-794.441,186.69038)">
  <g id="g36">
   <g id="g38" clip-path="url(#clipPath40)" transform="translate(-19.332162,-1.7574693)">
    <g id="g44" transform="translate(887.7168,387.4473)">
     <path d="m -207.04471,-237.93753 -22.77426,0 c -0.78038,0 -1.41287,-0.63248 -1.41287,-1.41287 l 0,-22.77412 c 0,-0.78029 0.63249,-1.41296 1.41287,-1.41296 l 12.26094,0 0,9.91367 -3.33622,0 0,3.86357 3.33622,0 0,2.84923 c 0,3.30647 2.01946,5.10695 4.96914,5.10695 1.41297,0 2.6273,-0.10513 2.98115,-0.15214 l 0,-3.45553 -2.04575,-0.001 c -1.60413,0 -1.91482,-0.76226 -1.91482,-1.88086 l 0,-2.46671 3.8259,0 -0.49811,-3.86356 -3.32779,0 0,-9.91367 6.5236,0 c 0.78029,0 1.41287,0.63268 1.41287,1.41296 l 0,22.77413 c 0,0.78037 -0.63258,1.41286 -1.41287,1.41286" id="path46" inkscape:connector-curvature="0"/>
    </g>
   </g>
  </g>
 </g>
</svg>
