<svg xmlns="http://www.w3.org/2000/svg" viewBox="0 0 36 36"><path d="m5.868 2c-2.135 0-3.868 1.733-3.868 3.868v24.26c0 2.135 1.733 3.868 3.868 3.868h24.26c2.135 0 3.868-1.733 3.868-3.868v-24.26c0-2.135-1.733-3.868-3.868-3.868m-4.607 3.528h3.824c.708 0 1.278.57 1.278 1.278v3.824c0 .708-.57 1.278-1.278 1.278h-3.824c-.708 0-1.278-.57-1.278-1.278v-3.824c0-.708.57-1.278 1.278-1.278zm-7.403 6.172c2.02.016 4.04.896 5.217 2.643 2.77 3.626-.052 9.09-4.271 9.93-4.781.714-9.163-4.946-6.577-9.31 1.058-2.192 3.343-3.282 5.63-3.264m-11.911 3.714c.192.004.437.04.746.04.789 0 1.274.031 1.525.133-.029.31-.056.633-.08.971-.457 3.231.664 6.647 3.204 8.768 4.03 3.87 11.193 3.108 14.335-1.495 2.01-2.248 1.892-5.432 1.924-7.988.059-.115.099-.224.122-.33.279-.044.682-.059 1.233-.059 1.649-.0001 1.487-1 1.444 7.079-.036 6.747-.02 6.097-.026 6.763-.007.665-.644 1.258-1.141 1.285-.497.026-22.645-.029-22.904-.016-.617-.056-1.028-.487-1.018-1.065-.043-.113-.065-2.422-.065-6.955 0-6.577-.135-7.148.699-7.13"/></svg>