<?xml version="1.0" encoding="UTF-8" standalone="no"?>
<!-- Created with Inkscape (http://www.inkscape.org/) -->

<svg
   xmlns:dc="http://purl.org/dc/elements/1.1/"
   xmlns:cc="http://creativecommons.org/ns#"
   xmlns:rdf="http://www.w3.org/1999/02/22-rdf-syntax-ns#"
   xmlns:svg="http://www.w3.org/2000/svg"
   xmlns="http://www.w3.org/2000/svg"
   xmlns:sodipodi="http://sodipodi.sourceforge.net/DTD/sodipodi-0.dtd"
   xmlns:inkscape="http://www.inkscape.org/namespaces/inkscape"
   id="svg2"
   version="1.1"
   inkscape:version="0.91 r13725"
   width="36"
   height="36"
   viewBox="0 0 36 36"
   sodipodi:docname="instagram.svg"
   inkscape:export-filename="/home/jord/code/forivall.com/forivall.github.io/images/instagram.png"
   inkscape:export-xdpi="90"
   inkscape:export-ydpi="90">
  <metadata
     id="metadata8">
    <rdf:RDF>
      <cc:Work
         rdf:about="">
        <dc:format>image/svg+xml</dc:format>
        <dc:type
           rdf:resource="http://purl.org/dc/dcmitype/StillImage" />
        <dc:title></dc:title>
      </cc:Work>
    </rdf:RDF>
  </metadata>
  <defs
     id="defs6" />
  <sodipodi:namedview
     pagecolor="#ffffff"
     bordercolor="#666666"
     borderopacity="1"
     objecttolerance="10"
     gridtolerance="10"
     guidetolerance="10"
     inkscape:pageopacity="0"
     inkscape:pageshadow="2"
     inkscape:window-width="920"
     inkscape:window-height="517"
     id="namedview4"
     showgrid="false"
     inkscape:zoom="5.6568543"
     inkscape:cx="12.195391"
     inkscape:cy="15.051488"
     inkscape:window-x="312"
     inkscape:window-y="167"
     inkscape:window-maximized="0"
     inkscape:current-layer="svg2" />
  <path
     style="fill:#000000;fill-opacity:1"
     d="M 5.8682749,2 C 3.7334014,2 2,3.7334009 2,5.8682754 L 2,30.131725 C 2,32.266599 3.7334014,34 5.8682749,34 L 30.131627,34 C 32.266502,34 34,32.266599 34,30.131725 L 34,5.8682754 C 34,3.7334009 32.266502,2 30.131627,2 Z m 19.6564841,3.5275806 3.824399,0 c 0.708125,0 1.278238,0.5701126 1.278238,1.2782372 l 0,3.8243032 c 0,0.708123 -0.570113,1.278236 -1.278238,1.278236 l -3.824399,0 c -0.708124,0 -1.27814,-0.570113 -1.27814,-1.278236 l 0,-3.8243032 c 0,-0.7081246 0.570016,-1.2782372 1.27814,-1.2782372 z m -7.402861,6.1723914 c 2.017889,0.01618 4.037342,0.895513 5.217046,2.643057 2.77039,3.626338 -0.05217,9.086596 -4.27065,9.930344 -4.7812,0.714032 -9.1632644,-4.945893 -6.576514,-9.309855 1.058229,-2.191603 3.343179,-3.281881 5.630118,-3.263546 z M 6.2113046,15.413951 c 0.1924694,0.004 0.4365374,0.03951 0.7457924,0.0396 0.7886883,2.51e-4 1.2735063,0.0314 1.5254404,0.132893 -0.029438,0.30966 -0.056232,0.63283 -0.080067,0.970815 -0.4570358,3.231345 0.6642542,6.647247 3.2043006,8.767583 4.025203,3.870145 11.192932,3.108249 14.335246,-1.494697 2.007787,-2.247599 1.891819,-5.43248 1.92441,-7.987936 0.05852,-0.114551 0.09857,-0.224077 0.122481,-0.329508 0.278824,-0.04376 0.681631,-0.05898 1.232806,-0.05915 1.649329,-5.02e-4 1.48707,-1.002591 1.4444,7.079192 -0.03562,6.74656 -0.01969,6.097392 -0.02632,6.762555 -0.0066,0.665162 -0.643852,1.258215 -1.141099,1.284629 C 29.001443,30.606333 6.8534355,30.550515 6.5945166,30.563968 5.9774851,30.5081 5.5665013,30.077039 5.5769072,29.499467 5.5337757,29.386025 5.5123097,27.077758 5.5123097,22.54422 c 0,-6.577418 -0.1350361,-7.147858 0.6989979,-7.130266 z"
     id="path4145"
     inkscape:connector-curvature="0"
     sodipodi:nodetypes="ssssssssssssssssssscccssccccccccszzccss" />
</svg>
