<svg xmlns="http://www.w3.org/2000/svg" viewBox="0 0 36 36"><path d="m4.496 2c-1.383 0-2.496 1.113-2.496 2.496v27.01c0 1.383 1.113 2.496 2.496 2.496h27.01c1.383 0 2.496-1.113 2.496-2.496v-27.01c0-1.383-1.113-2.496-2.496-2.496h-27.01zm4.801 4.727c.39 0 .756.071 1.096.211.35.14.656.336.916.586.26.25.463.539.613.869.15.33.227.684.227 1.064 0 .37-.077.721-.227 1.051-.15.32-.353.605-.613.855-.26.24-.566.434-.916.584-.34.14-.706.211-1.096.211-.38 0-.734-.071-1.064-.211-.33-.15-.625-.344-.885-.584-.25-.25-.45-.535-.6-.855-.14-.33-.211-.681-.211-1.051 0-.38.071-.734.211-1.064.15-.33.35-.619.6-.869.26-.25.555-.446.885-.586.33-.14.684-.211 1.064-.211zm14.885 6.75c.85 0 1.6.151 2.25.451.66.29 1.216.7 1.666 1.23.45.52.79 1.145 1.02 1.875.23.72.346 1.504.346 2.354v9.887h-4.65v-9.887c0-.76-.175-1.35-.525-1.77-.35-.43-.865-.645-1.545-.645-.51 0-.989.11-1.439.33-.45.22-.881.515-1.291.885v11.09h-4.648v-15.557h2.879c.29 0 .531.065.721.195.2.13.34.326.42.586l.27.9c.3-.28.61-.541.93-.781.32-.24.66-.44 1.02-.6.37-.17.766-.301 1.186-.391.43-.1.895-.15 1.395-.15zm-17.225.24h4.65v15.557h-4.65v-15.557z" stroke="#000" stroke-width=".191"/></svg>