<?xml version="1.0" encoding="UTF-8" standalone="no"?>
<!-- Created with Inkscape (http://www.inkscape.org/) -->

<svg
   xmlns:dc="http://purl.org/dc/elements/1.1/"
   xmlns:cc="http://creativecommons.org/ns#"
   xmlns:rdf="http://www.w3.org/1999/02/22-rdf-syntax-ns#"
   xmlns:svg="http://www.w3.org/2000/svg"
   xmlns="http://www.w3.org/2000/svg"
   xmlns:sodipodi="http://sodipodi.sourceforge.net/DTD/sodipodi-0.dtd"
   xmlns:inkscape="http://www.inkscape.org/namespaces/inkscape"
   id="svg2"
   version="1.1"
   inkscape:version="0.91 r13725"
   width="36"
   height="36"
   viewBox="0 0 36 36"
   sodipodi:docname="linkedin.svg"
   inkscape:export-filename="/home/jord/code/forivall.com/forivall.github.io/images/linkedin.png"
   inkscape:export-xdpi="90"
   inkscape:export-ydpi="90">
  <metadata
     id="metadata8">
    <rdf:RDF>
      <cc:Work
         rdf:about="">
        <dc:format>image/svg+xml</dc:format>
        <dc:type
           rdf:resource="http://purl.org/dc/dcmitype/StillImage" />
        <dc:title />
      </cc:Work>
    </rdf:RDF>
  </metadata>
  <defs
     id="defs6" />
  <sodipodi:namedview
     pagecolor="#ffffff"
     bordercolor="#666666"
     borderopacity="1"
     objecttolerance="10"
     gridtolerance="10"
     guidetolerance="10"
     inkscape:pageopacity="0"
     inkscape:pageshadow="2"
     inkscape:window-width="1077"
     inkscape:window-height="521"
     id="namedview4"
     showgrid="false"
     inkscape:zoom="4.892815"
     inkscape:cx="-38.97603"
     inkscape:cy="12.186927"
     inkscape:window-x="356"
     inkscape:window-y="162"
     inkscape:window-maximized="0"
     inkscape:current-layer="svg2"
     inkscape:snap-nodes="false" />
  <path
     style="opacity:1;fill:#000000;fill-opacity:1;stroke:#000000;stroke-width:0.191;stroke-miterlimit:4;stroke-dasharray:none;stroke-opacity:1"
     d="M 4.4960938 2 C 3.1129625 2 2 3.1129625 2 4.4960938 L 2 31.503906 C 2 32.887038 3.1129625 34 4.4960938 34 L 31.503906 34 C 32.887038 34 34 32.887038 34 31.503906 L 34 4.4960938 C 34 3.1129625 32.887038 2 31.503906 2 L 4.4960938 2 z M 9.296875 6.7265625 C 9.686875 6.7265625 10.052578 6.7975 10.392578 6.9375 C 10.742578 7.0775 11.048594 7.2734375 11.308594 7.5234375 C 11.568594 7.7734375 11.771875 8.0625781 11.921875 8.3925781 C 12.071875 8.7225781 12.148438 9.0770312 12.148438 9.4570312 C 12.148438 9.8270312 12.071875 10.177812 11.921875 10.507812 C 11.771875 10.827812 11.568594 11.113281 11.308594 11.363281 C 11.048594 11.603281 10.742578 11.797266 10.392578 11.947266 C 10.052578 12.087266 9.686875 12.158203 9.296875 12.158203 C 8.916875 12.158203 8.5624219 12.087266 8.2324219 11.947266 C 7.9024219 11.797266 7.6076563 11.603281 7.3476562 11.363281 C 7.0976562 11.113281 6.8980469 10.827812 6.7480469 10.507812 C 6.6080469 10.177812 6.5371094 9.8270313 6.5371094 9.4570312 C 6.5371094 9.0770312 6.6080469 8.7225781 6.7480469 8.3925781 C 6.8980469 8.0625781 7.0976562 7.7734375 7.3476562 7.5234375 C 7.6076563 7.2734375 7.9024219 7.0775 8.2324219 6.9375 C 8.5624219 6.7975 8.916875 6.7265625 9.296875 6.7265625 z M 24.181641 13.476562 C 25.031641 13.476562 25.781641 13.627734 26.431641 13.927734 C 27.091641 14.217734 27.647656 14.628203 28.097656 15.158203 C 28.547656 15.678203 28.887187 16.303203 29.117188 17.033203 C 29.347188 17.753203 29.462891 18.536719 29.462891 19.386719 L 29.462891 29.273438 L 24.8125 29.273438 L 24.8125 19.386719 C 24.8125 18.626719 24.637109 18.037187 24.287109 17.617188 C 23.937109 17.187188 23.422188 16.972656 22.742188 16.972656 C 22.232187 16.972656 21.752734 17.082734 21.302734 17.302734 C 20.852734 17.522734 20.421719 17.8175 20.011719 18.1875 L 20.011719 29.273438 L 15.363281 29.273438 L 15.363281 13.716797 L 18.242188 13.716797 C 18.532188 13.716797 18.772891 13.782109 18.962891 13.912109 C 19.162891 14.042109 19.302812 14.238047 19.382812 14.498047 L 19.652344 15.398438 C 19.952344 15.118437 20.262031 14.857188 20.582031 14.617188 C 20.902031 14.377187 21.241562 14.177578 21.601562 14.017578 C 21.971563 13.847578 22.367109 13.716953 22.787109 13.626953 C 23.217109 13.526953 23.681641 13.476562 24.181641 13.476562 z M 6.9570312 13.716797 L 11.607422 13.716797 L 11.607422 29.273438 L 6.9570312 29.273438 L 6.9570312 13.716797 z "
     id="rect6678" />
  <g
     transform="scale(1.0469898,0.95511914)"
     style="font-style:normal;font-variant:normal;font-weight:normal;font-stretch:normal;font-size:33.11654282px;line-height:125%;font-family:sans-serif;-inkscape-font-specification:sans-serif;letter-spacing:0px;word-spacing:0px;fill:#000000;fill-opacity:1;stroke:#000000;stroke-width:1px;stroke-linecap:butt;stroke-linejoin:miter;stroke-opacity:1"
     id="text6680" />
  <g
     inkscape:groupmode="layer"
     id="layer1"
     inkscape:label="Layer 1"
     style="display:none">
    <path
       transform="scale(1.0469898,0.95511914)"
       d="m 7.2996242,11.329407 q -0.4967481,-0.529865 -0.4967481,-1.291545 0,-0.7616806 0.4967481,-1.2584288 0.5298647,-0.5298646 1.2915452,-0.5298646 0.7616805,0 1.2584286,0.5298646 0.529865,0.4967482 0.529865,1.2584288 0,0.76168 -0.529865,1.291545 -0.4967481,0.496748 -1.2584286,0.496748 -0.7616805,0 -1.2915452,-0.496748 z m 0.1655828,19.008896 0,-15.498542 2.2519249,0 0,15.498542 -2.2519249,0 z"
       style="font-style:normal;font-variant:normal;font-weight:normal;font-stretch:normal;font-size:33.11654282px;line-height:125%;font-family:'Didact Gothic';-inkscape-font-specification:'Didact Gothic';letter-spacing:0px;word-spacing:0px;fill:#000000;fill-opacity:1;stroke:#000000;stroke-width:1px;stroke-linecap:butt;stroke-linejoin:miter;stroke-opacity:1"
       id="path6692"
       inkscape:connector-curvature="0" />
    <g
       transform="scale(1.0469898,0.95511914)"
       style="font-style:normal;font-variant:normal;font-weight:normal;font-stretch:normal;font-size:29.63445282px;line-height:125%;font-family:sans-serif;-inkscape-font-specification:sans-serif;letter-spacing:0px;word-spacing:0px;fill:#000000;fill-opacity:1;stroke:#000000;stroke-width:1px;stroke-linecap:butt;stroke-linejoin:miter;stroke-opacity:1"
       id="text6684">
      <path
         d="m 26.887729,21.377956 0,8.771798 -2.015143,0 0,-8.771798 q 0,-1.570626 -1.126109,-2.637467 -1.126109,-1.096475 -2.99308,-1.096475 -1.86697,0 -2.993079,1.600261 -1.126109,1.60026 -1.126109,3.971017 l 0,6.934462 -2.015143,0 0,-13.868924 2.015143,0 0,1.244647 q 1.659529,-1.718799 4.119188,-1.718799 2.637467,0 4.3859,1.511357 1.748432,1.481723 1.748432,4.059921 z"
         style="font-style:normal;font-variant:normal;font-weight:normal;font-stretch:normal;font-family:'Didact Gothic';-inkscape-font-specification:'Didact Gothic';stroke:#000000;stroke-opacity:1"
         id="path6689"
         inkscape:connector-curvature="0" />
    </g>
  </g>
</svg>
