<svg xmlns="http://www.w3.org/2000/svg" viewBox="0 0 128 128" enable-background="new"><g transform="translate(-434.62-419.34)" fill-opacity=".333"><path d="m463.88 502.27l-11.467-7.92q12.13-19.799 21.284-19.799 10.229 0 15.509 6.435 7.26 8.827 10.06 8.827 3.96 0 8.497-5.445-18.726-14.602-18.726-35.556 0-14.189 6.6-21.449 7.342-7.92 18.561-7.92 9.569 0 17.572 7.92 6.93 6.847 6.93 21.449 0 18.726-8.827 32.833 14.932 13.447 14.932 29.2 0 16-10.394 27.06-8.745 9.322-29.533 9.322v-13.364q11.05 0 18.561-6.105 6.02-4.95 6.02-17.08 0-7.26-9.817-16.664-11.302 10.394-20.294 10.394-9.322 0-15.427-8.58-4.125-5.775-8.497-5.775-4.207 0-11.549 12.209m53.54-30.11q5.61-8.909 5.61-23.346 0-7.095-2.227-11.137-2.887-5.197-7.01-5.197-4.29 0-7.01 5.197-2.062 3.96-2.062 11.137 0 13.694 12.704 23.346"/><g transform="translate(434.62 93.79)"><path d="m110.88 421.78q0 6.523-2.653 11.38-2.561 4.857-7.318 8.466-4.665 3.678-11.159 6.315-6.494 2.706-14.269 4.857l-3.842-6.384q6.129-2.151 10.336-4.441 4.208-2.29 6.769-4.996 2.653-2.706 3.842-6.04 1.189-3.331 1.189-7.702 0-3.539-1.372-7.217-1.281-3.678-3.567-7.425-2.287-3.747-5.397-7.494-3.02-3.816-6.403-7.702l-13.08 28.728h-12.989l-10.976-23.801-13.812 23.801h-9.06v-3.4l23.05-39.553h5.946l13.812 29.907 10.702-22.899q-4.299-4.719-8.415-9.507-4.116-4.788-7.318-9.507-3.201-4.788-5.214-9.507-1.921-4.719-1.921-9.437 0-4.857 2.01-8.882 2.01-4.094 5.488-6.939 3.476-2.914 8.05-4.51 4.665-1.596 9.787-1.596 10.245 0 15.367 5.135 5.122 5.135 5.122 14.85 0 5.759-2.01 13.601-2.01 7.772-7.04 18.666 4.756 5.204 9.421 10.617 4.756 5.412 8.507 10.894 3.75 5.412 6.04 10.894 2.378 5.482 2.378 10.825m-26.526-75.57q0-1.874-.457-4.163-.366-2.359-1.464-4.372-1.098-2.01-3.02-3.4-1.921-1.388-4.939-1.388-3.201 0-5.305 1.388-2.01 1.388-3.201 3.47-1.189 2.01-1.646 4.302-.366 2.29-.366 4.094 0 2.845 1.098 5.829 1.098 2.984 3.02 6.176 1.921 3.192 4.482 6.523 2.561 3.331 5.58 6.731 1.555-3.608 2.744-7.147 1.189-3.608 1.921-6.87.823-3.261 1.189-6.106.366-2.845.366-5.066"/><path d="m53.99 423.52l-9.658-21.994-14.733 20.373h-4.794l24.744-34.401 9.517 21.783 12.901-19.03q-3.102-9.587-5.01-19.1-1.903-9.587-1.903-16.284 0-8.248 3.102-14.804 3.102-6.627 8.53-10.151 5.499-3.595 12.196-3.595 6.767 0 10.504 3.666 3.807 3.666 3.807 10.222 0 5.781-4.582 15.438-4.582 9.587-16.14 26.506 3.102 10.856 5.287 21.289 2.185 10.363 2.185 19.809 0 12.83-7.613 21.15-7.543 8.389-19.245 8.389-5.499 0-9.869-1.339l2.538-14.451h3.454l1.692 8.671q2.044 1.48 5.499 1.48 6.204 0 9.446-5.64 3.313-5.569 3.313-15.861 0-14.1-5.287-31.09l-19.879 28.973m42.861-81.21q0-4.371-2.115-6.908-2.044-2.608-5.851-2.608-5.992 0-9.305 5.146-3.243 5.146-3.243 14.522 0 5.569 1.198 12.971 1.269 7.331 2.89 12.407 16.425-25.66 16.425-35.529"/></g></g></svg>