<svg xmlns="http://www.w3.org/2000/svg" viewBox="0 0 128 128" enable-background="new"><defs><filter id="0" color-interpolation-filters="sRGB"><feBlend mode="multiply" in2="BackgroundImage"/></filter><filter id="1" color-interpolation-filters="sRGB"><feBlend mode="multiply" in2="BackgroundImage"/></filter><filter id="2" color-interpolation-filters="sRGB"><feBlend mode="multiply" in2="BackgroundImage"/></filter></defs><path d="m81.7 1.93c-1.743.589-3.415 1.39-5.01 2.432-1.352.878-2.595 1.9-3.73 3.066.483-.057.986-.086 1.514-.086 2.01 0 3.659.463 4.939 1.389.674.487 1.267 1.034 1.789 1.637 2.025-2.068 4.582-3.115 7.684-3.115.281 0 .552.016.818.037-.384-.493-.793-.962-1.234-1.404-1.786-1.79-4.052-3.101-6.771-3.955m-16.547 24.742c-.055.868-.094 1.746-.094 2.645 0 4.465.635 9.894 1.904 16.285 1.212 6.06 2.8 12.14 4.74 18.242.481.397.954.797 1.455 1.188-1.367 1.64-2.691 2.89-3.979 3.789l-7.637 11.264-1.611 3.449-.295-.637-.57.842-9.516-21.783-6.564 9.127c2.157.721 4.268 2.526 6.332 5.416 3.661 5.145 8.193 7.968 13.59 8.484l10.963-15.977c.369 1.185.709 2.353 1.039 3.518l2.127-4.672c2.256 2.591 4.39 5.157 6.402 7.701.086.103.163.207.248.311.45-.394.895-.76 1.352-1.18.94.901 1.793 1.781 2.598 2.652-1.434-6.78-3.152-13.691-5.166-20.738.788-1.153 1.534-2.263 2.273-3.365-.069-.076-.138-.154-.207-.23 3.354-7.263 5.701-13.485 7.04-18.666.225-.879.404-1.709.592-2.549-1.316 2.75-2.912 5.768-4.785 9.05-.916 4.594-2.44 8.59-4.576 11.982-.627-.476-1.222-.962-1.803-1.453-.202.318-.374.607-.58.93-.195-.61-.381-1.273-.568-1.932-4.245-3.872-7.099-8.186-8.572-12.939-1.189-1.635-2.262-3.243-3.215-4.826-1.228-2.041-2.197-4.02-2.92-5.93zm20.809 87.21c-1.178.887-2.498 1.736-3.984 2.545-2.805 1.527-6.25 3.01-10.336 4.441l2.469 4.102c3.06-1.396 5.802-3.431 8.221-6.121 1.408-1.538 2.614-3.197 3.631-4.967" fill-opacity=".627" filter="url(#2)" fill="#4a4c0f"/><path d="m79.59.107c-2.14 0-4.169.222-6.098.654 3.089.031 5.819.421 8.195 1.166 1.308-.442 2.656-.764 4.049-.951-1.992-.575-4.04-.869-6.146-.869m10.111 7.182c2.59 3.325 3.887 7.805 3.887 13.445 0 3.176-.484 6.856-1.402 10.982 3.082-6.45 4.662-11.46 4.662-14.947 0-2.914-.703-5.218-2.113-6.91-1.212-1.546-2.892-2.399-5.03-2.57m-16.744.139c-1.471.172-2.735.606-3.791 1.303-1.342.925-2.408 2.081-3.201 3.469-.793 1.342-1.342 2.776-1.646 4.303-.244 1.527-.365 2.891-.365 4.094 0 1.897.366 3.841 1.098 5.83.03.081.067.163.098.244.283-4.445 1.28-8.5 3.01-12.156 1.295-2.768 2.895-5.13 4.799-7.086zm8.242 2.941c-.582.595-1.128 1.263-1.621 2.029-.149.236-.281.495-.42.744.007 0 .013-.002.02-.002 1.593 0 3.043.6 4.359 1.764-.27-.972-.631-1.9-1.107-2.773-.346-.635-.761-1.22-1.23-1.762m21.598 7.951c-.627 3.274-2.01 7.188-4.186 11.771-2.743 5.738-7.378 13.463-13.871 23.14 3.1 3.397 6.173 6.857 9.215 10.387 3.171 3.608 6.01 7.238 8.506 10.893 2.5 3.608 4.513 7.24 6.04 10.895.721 1.663 1.269 3.315 1.662 4.959-.35-10.07-5.306-19.42-14.896-28.06 5.885-9.404 8.826-20.348 8.826-32.832 0-4.201-.433-7.918-1.293-11.156zm-45.38 26.816c2.535 6.257 6.683 11.966 12.455 17.12l.76-1.627c-2.866-3.146-5.67-6.314-8.414-9.506-1.725-2.01-3.317-4-4.801-5.992m-18.33 10.08c-6.105 0-13.199 6.6-21.283 19.799l7.06 4.877 14.379-24.672c-.053 0-.105-.004-.158-.004zm8.402 1.383l12.146 26.299 1.906-2.813 4.588-9.818c-.496.124-.986.211-1.469.211-1.87 0-5.225-2.943-10.06-8.828-1.891-2.305-4.263-3.985-7.107-5.05m27.42 15.924l-5.4 11.859c2.391-.666 4.887-1.804 7.494-3.439-.58-2.743-1.281-5.55-2.094-8.42m18.658 28.482c-.998 3.165-2.572 5.643-4.734 7.42-.207.169-.42.329-.631.49-.595 1.747-1.347 3.402-2.246 4.969 1.047-.788 1.983-1.606 2.787-2.455 1.768-1.804 3.049-3.817 3.842-6.04.476-1.333.792-2.804.982-4.387m10.236 12.549c-.888.886-1.847 1.731-2.895 2.525-3.11 2.452-6.831 4.557-11.16 6.314-4.33 1.804-9.08 3.423-14.268 4.857l-1.379-2.293c-1.228.559-2.501 1.027-3.832 1.379v1.557c13.859 0 23.704-3.108 29.533-9.322 1.499-1.594 2.825-3.269 4-5.02m-26.949.375c-2.078.4-4.273.602-6.584.602v6.393c2.284-.844 4.149-2.488 5.574-4.967.372-.625.7-1.313 1.01-2.027" fill="#ff0" fill-opacity=".941"/><path d="m88.88.766c-1.059 0-2.09.087-3.104.225 4.03 1.172 7.822 3.513 11.383 7.04 2.626 2.595 4.501 6.03 5.635 10.293.254-1.325.396-2.556.396-3.666 0-4.371-1.269-7.779-3.807-10.223-2.491-2.444-5.992-3.666-10.504-3.666m-9.723 12.377c-2.852.007-5.183 1.738-6.994 5.195-1.375 2.64-2.063 6.354-2.063 11.139 0 2.776.397 5.425 1.18 7.951.409.562.831 1.127 1.268 1.695 1.707 2.221 3.568 4.464 5.58 6.73.136-.315.251-.625.383-.939-.341-1.586-.671-3.237-.98-5.02-.799-4.935-1.199-9.258-1.199-12.971 0-5.821.951-10.402 2.826-13.777zm-38.48 61.14l-8.109 11.275-6.266 10.799h3.291l12.984-17.955-1.9-4.119m43 1.58c-2.303 2.01-4.54 3.735-6.695 5.086 1.433 6.77 2.166 13.158 2.166 19.14 0 5.706-.774 10.306-2.301 13.834 4.267-.822 8.04-2.492 11.328-5 1.163-3.401 1.758-7.139 1.758-11.23 0-4.789-.423-9.756-1.266-14.898-1.428-2.312-3.093-4.623-4.99-6.936m-30.31 20.715l.615 1.4.961-1.4h-1.576m2.377 14.865l-2.537 14.451c2.914.893 6.203 1.34 9.869 1.34 2.544 0 4.938-.302 7.186-.898v-5.414c-1.18.436-2.464.672-3.873.672-2.303 0-4.135-.494-5.498-1.48l-1.691-8.67h-3.455" fill-opacity=".627" fill="#f0f"/><g fill-opacity=".706"><path d="m73.1.75c-3.415 0-6.677.532-9.787 1.596-3.049 1.064-5.734 2.569-8.05 4.512-2.317 1.897-4.147 4.208-5.488 6.938-1.342 2.683-2.01 5.645-2.01 8.883 0 3.146.641 6.292 1.922 9.438 1.342 3.146 3.079 6.314 5.213 9.506.79 1.164 1.635 2.332 2.508 3.502-1.972-4.883-2.977-10.09-2.977-15.646 0-9.459 2.2-16.609 6.6-21.449 3.495-3.769 7.653-6.187 12.465-7.266-.134-.0001-.257-.012-.393-.012m10.439 14.156c.144.52.269 1.048.354 1.596.305 1.527.457 2.915.457 4.164 0 1.48-.121 3.168-.365 5.064-.244 1.897-.641 3.933-1.189 6.107-.488 2.174-1.127 4.464-1.92 6.869-.689 2.051-1.488 4.122-2.361 6.207.42 1.956.862 3.766 1.33 5.416.38.348.76.695 1.162 1.035 2.391-3.762 4.527-7.28 6.375-10.521.688-3.451 1.035-7.238 1.035-11.367 0-4.73-.742-8.444-2.227-11.139-.809-1.456-1.695-2.587-2.65-3.432zm-43.37 38.721l-.928 1.592c3.09.015 5.837.476 8.244 1.379l-1.371-2.971h-5.945m29.695 8.641l-3.74 8.01c.994-.243 2.01-.74 3.059-1.467l2.781-4.102c-.092-.285-.173-.569-.264-.854-.626-.523-1.239-1.05-1.836-1.584m-29.05 8.455c-2.805 0-6.654 4.071-11.549 12.211l-4.404-3.043-7.744 13.289v3.398h9.06l.129-.221h-1.502l7.768-10.799 7.416-12.781.693 1.506 2.303-3.201c-.717-.24-1.439-.359-2.166-.359m3.514 5.262l-1.75 2.418 8.383 18.18h2.41l-9.04-20.594m43.3 1.354c.039.182.083.367.121.549.349 1.655.655 3.292.92 4.912.051.083.108.165.158.248 1.525 2.498 2.715 4.974 3.568 7.426.915 2.452 1.371 4.858 1.371 7.217 0 1.165-.08 2.26-.207 3.314.855-2.712 1.287-5.926 1.287-9.656 0-4.145-2.419-8.817-7.219-14.01m-18.13 7.05c-1.637.455-3.225.688-4.762.688-.624 0-1.234-.038-1.836-.096l-7.955 11.596h9l5.549-12.188m40.658 5.975c.013.382.035.763.035 1.146 0 8.361-2.137 15.705-6.393 22.04 1.799-1.795 3.279-3.772 4.422-5.939 1.768-3.238 2.652-7.03 2.652-11.379 0-1.941-.246-3.898-.717-5.867" fill="#0ff"/><path d="m71.29 37.428c1.472 4.751 4.324 9.06 8.564 12.934-.468-1.665-.912-3.485-1.334-5.447-.131.314-.247.625-.383.939-2.01-2.267-3.873-4.51-5.58-6.73-.437-.568-.859-1.133-1.268-1.695m16.1 3.404c-1.848 3.244-3.983 6.766-6.379 10.537.58.491 1.174.977 1.801 1.453 2.137-3.394 3.662-7.393 4.578-11.99m-15.686 23.01c.091.287.173.574.266.861l-2.789 4.115c1.288-.899 2.612-2.149 3.979-3.789-.501-.39-.974-.79-1.455-1.188m-28.717 7.238l-2.303 3.201 1.9 4.119 1.75-2.418 9.04 20.594h1.576l7.955-11.596c-5.397-.517-9.929-3.339-13.59-8.484-2.064-2.89-4.175-4.696-6.332-5.416m42.05 3.602c-.456.42-.901.786-1.352 1.18 1.898 2.312 3.562 4.623 4.99 6.936-.265-1.62-.571-3.257-.92-4.912-.038-.183-.082-.368-.121-.551-.805-.871-1.658-1.752-2.598-2.652zm-52.46 10.875l-7.768 10.799h1.502l6.266-10.799" filter="url(#1)" fill="#4b4dff"/></g><g fill-opacity=".627"><path d="m73.49.762c-4.812 1.078-8.97 3.496-12.465 7.266-4.4 4.84-6.6 11.99-6.6 21.449 0 5.552 1 10.763 2.977 15.646 1.487 1.993 3.082 3.995 4.811 6.01 2.744 3.192 5.548 6.36 8.414 9.506l-.764 1.633c.597.533 1.209 1.061 1.836 1.584-1.942-6.105-3.53-12.188-4.742-18.25-1.269-6.392-1.904-11.82-1.904-16.285 0-.899.039-1.776.094-2.645-.031-.081-.068-.165-.098-.246-.732-1.989-1.098-3.933-1.098-5.83 0-1.203.121-2.567.365-4.094.305-1.527.854-2.961 1.646-4.303.793-1.388 1.86-2.544 3.201-3.469 1.056-.697 2.322-1.132 3.793-1.305 1.135-1.165 2.378-2.187 3.729-3.064 1.587-1.038 3.253-1.837 4.99-2.426-2.379-.743-5.097-1.143-8.186-1.174m15.391 6.49c-3.102 0-5.658 1.048-7.684 3.117.47.542.884 1.126 1.23 1.762.477.874.84 1.803 1.109 2.775.955.844 1.841 1.975 2.65 3.432 1.485 2.695 2.227 6.409 2.227 11.139 0 4.129-.347 7.917-1.035 11.367 1.874-3.287 3.47-6.306 4.787-9.06.928-4.155 1.42-7.858 1.42-11.05 0-5.64-1.295-10.121-3.885-13.445-.267-.021-.539-.037-.82-.037zm-9.04 43.08c.191.672.382 1.347.58 1.969.207-.323.379-.614.582-.934-.402-.34-.782-.688-1.162-1.035m4.896 2.902c-.739 1.102-1.486 2.212-2.273 3.365 2.01 7.05 3.732 13.96 5.166 20.74 4.799 5.193 7.219 9.865 7.219 14.01 0 3.731-.432 6.945-1.287 9.656-.19 1.582-.507 3.054-.982 4.387-.793 2.221-2.073 4.233-3.842 6.04-.802.848-1.737 1.661-2.781 2.447-1.018 1.771-2.224 3.431-3.633 4.971-2.418 2.69-5.161 4.725-8.221 6.121l1.373 2.283c5.183-1.434 9.938-3.053 14.268-4.857 4.33-1.758 8.05-3.863 11.16-6.314 1.048-.795 2.01-1.641 2.896-2.527 4.255-6.334 6.393-13.678 6.393-22.04 0-.384-.022-.765-.035-1.146-.393-1.644-.941-3.296-1.662-4.959-1.525-3.655-3.537-7.286-6.04-10.895-2.5-3.655-5.335-7.284-8.506-10.893-3.042-3.529-6.115-6.99-9.215-10.387m-45.498 1.986l-14.379 24.672 4.404 3.043c4.895-8.14 8.744-12.211 11.549-12.211.727 0 1.449.12 2.166.359l6.564-9.127 9.516 21.783.57-.842-12.146-26.299c-2.407-.903-5.154-1.364-8.244-1.379zm29.941 13.588c-1.045.726-2.065 1.224-3.059 1.467l-4.584 9.811 7.643-11.277m4.684.199l-10.963 15.977c.602.058 1.212.096 1.836.096 1.536 0 3.124-.232 4.762-.688l5.404-11.867c-.33-1.164-.67-2.332-1.039-3.518" fill="#48ff0f" filter="url(#0)"/><path d="m85.74.977c-1.393.188-2.741.509-4.049.951 2.723.854 4.992 2.165 6.779 3.957.441.442.85.911 1.234 1.404 2.141.171 3.821 1.024 5.03 2.57 1.41 1.692 2.113 3.996 2.113 6.91 0 3.488-1.581 8.497-4.662 14.947-.192.862-.378 1.716-.609 2.619-1.342 5.181-3.689 11.403-7.04 18.666.069.076.138.154.207.23 6.493-9.678 11.129-17.402 13.871-23.14 2.175-4.583 3.559-8.498 4.186-11.771-1.133-4.265-3.01-7.698-5.635-10.293-3.574-3.537-7.383-5.883-11.426-7.05m-11.266 6.365c-.527 0-1.031.029-1.514.086-1.904 1.956-3.503 4.318-4.799 7.086-1.73 3.656-2.726 7.712-3.01 12.156.723 1.914 1.691 3.89 2.92 5.932.955 1.588 2.03 3.201 3.223 4.84-.786-2.531-1.188-5.184-1.188-7.965 0-4.785.688-8.499 2.063-11.139 1.811-3.457 4.141-5.187 6.992-5.195.139-.25.271-.508.42-.744.493-.766 1.039-1.434 1.621-2.029-.522-.603-1.115-1.151-1.789-1.639-1.281-.925-2.927-1.389-4.939-1.389m2.563 60.51l-2.127 4.67c.813 2.87 1.514 5.677 2.094 8.42 2.155-1.352 4.389-3.054 6.691-5.068-.087-.107-.167-.214-.256-.32-2.01-2.544-4.146-5.111-6.402-7.701zm-15.494 12.232l-1.906 2.813.295.637 1.611-3.449m26.66 28.83c-3.291 2.516-7.07 4.191-11.348 5.01-.309.715-.638 1.402-1.01 2.027-1.426 2.479-3.29 4.122-5.574 4.967v5.414c1.331-.352 2.604-.82 3.832-1.379l-2.463-4.092c4.086-1.434 7.531-2.915 10.336-4.441 1.484-.808 2.804-1.656 3.98-2.541.9-1.567 1.651-3.221 2.246-4.969" filter="url(#2)" fill="#ff210f"/></g></svg>