<?xml version="1.0" encoding="UTF-8" standalone="no"?>
<svg xmlns="http://www.w3.org/2000/svg" xmlns:sodipodi="http://sodipodi.sourceforge.net/DTD/sodipodi-0.dtd" xmlns:inkscape="http://www.inkscape.org/namespaces/inkscape" version="1.1" viewBox="0 0 128 128" height="128" width="128" enable-background="new">
 <defs id="defs4">
  <filter id="filter8118" inkscape:label="filter1" color-interpolation-filters="sRGB">
   <feBlend mode="multiply" id="feBlend8120" in2="SourceGraphic" in="FillPaint"/>
  </filter>
  <filter inkscape:collect="always" id="filter8134" color-interpolation-filters="sRGB">
   <feBlend inkscape:collect="always" mode="multiply" in2="BackgroundImage" id="feBlend8136"/>
  </filter>
  <filter inkscape:collect="always" id="filter8138" color-interpolation-filters="sRGB">
   <feBlend inkscape:collect="always" mode="multiply" in2="BackgroundImage" id="feBlend8140"/>
  </filter>
  <filter inkscape:collect="always" id="filter8142" color-interpolation-filters="sRGB">
   <feBlend inkscape:collect="always" mode="multiply" in2="BackgroundImage" id="feBlend8144"/>
  </filter>
 </defs>
 <metadata id="metadata7"/>
 <g inkscape:groupmode="layer" id="layer5" inkscape:label="K">
  <path d="m 81.697266,1.9296875 c -1.743299,0.5889009 -3.415299,1.3903822 -5.007813,2.4316406 -1.351644,0.8776916 -2.595192,1.9002243 -3.730469,3.0664063 0.482746,-0.056502 0.986238,-0.085937 1.513672,-0.085937 2.01235,0 3.658868,0.4634585 4.939453,1.3886719 0.674029,0.4869768 1.267079,1.0343981 1.789063,1.6367187 2.025073,-2.0684939 4.581771,-3.1152344 7.683594,-3.1152344 0.281022,0 0.551744,0.015787 0.818359,0.037109 C 89.319103,6.7961067 88.909714,6.3268112 88.46875,5.8847656 86.682898,4.094534 84.417044,2.7837014 81.697266,1.9296875 Z M 65.150391,26.671875 c -0.05523,0.868473 -0.09375,1.745935 -0.09375,2.644531 0,4.464663 0.635393,9.893638 1.904297,16.285156 1.211851,6.059243 2.799678,12.140078 4.740234,18.242188 0.480706,0.397302 0.954283,0.797012 1.455078,1.1875 -1.366531,1.639836 -2.690558,2.890056 -3.978516,3.789062 l -7.636718,11.263672 -1.611328,3.449219 -0.294922,-0.636719 -0.570313,0.841797 -9.515625,-21.783203 -6.564453,9.126953 c 2.157262,0.720504 4.267747,2.52602 6.332031,5.416016 3.661103,5.145335 8.192993,7.967701 13.589844,8.484375 L 73.869141,69.005859 c 0.368919,1.185459 0.708756,2.353228 1.039062,3.517579 l 2.126953,-4.671876 c 2.25627,2.590587 4.389993,5.156846 6.402344,7.701172 0.08571,0.103267 0.163276,0.20728 0.248047,0.310547 0.450482,-0.394107 0.895436,-0.760185 1.351562,-1.179687 0.940009,0.900512 1.792662,1.78133 2.597657,2.652344 -1.434244,-6.779958 -3.152497,-13.690964 -5.166016,-20.738282 0.787742,-1.152793 1.534297,-2.263497 2.273438,-3.365234 -0.06941,-0.07604 -0.137594,-0.154493 -0.207032,-0.230469 3.353916,-7.262893 5.7014,-13.484842 7.042969,-18.666015 0.225486,-0.878613 0.40421,-1.709422 0.591797,-2.548829 -1.316295,2.749571 -2.911711,5.767533 -4.785156,9.052735 -0.916021,4.594388 -2.44022,8.590026 -4.576172,11.982422 -0.62686,-0.476251 -1.222271,-0.962112 -1.802735,-1.453125 -0.202364,0.318474 -0.373829,0.607478 -0.580078,0.929687 -0.194782,-0.609752 -0.381208,-1.273054 -0.568359,-1.93164 -4.244729,-3.872034 -7.099224,-8.18552 -8.572266,-12.939454 -1.18916,-1.634576 -2.262007,-3.24282 -3.214844,-4.826172 -1.228232,-2.040982 -2.196554,-4.016369 -2.919921,-5.929687 z m 20.808593,87.207035 c -1.178073,0.88673 -2.498182,1.7361 -3.984375,2.54492 -2.805094,1.5266 -6.250257,3.00733 -10.335937,4.4414 l 2.46875,4.10157 c 3.059866,-1.39612 5.802208,-3.43137 8.220703,-6.1211 1.407809,-1.53816 2.61353,-3.19724 3.630859,-4.96679 z" id="path4473" inkscape:connector-curvature="0" fill-opacity="0.627" filter="url(#filter8142)" fill="#4a4c0f"/>
  <path d="m 79.591797,0.10742188 c -2.139621,0 -4.169436,0.22220936 -6.097656,0.65429687 3.08882,0.0309323 5.818986,0.42084105 8.195312,1.16601565 C 82.997638,1.4860213 84.345435,1.1642227 85.738281,0.9765625 83.74609,0.40117248 81.697867,0.10742188 79.591797,0.10742188 Z M 89.703125,7.2890625 c 2.589909,3.3245745 3.886719,7.8051485 3.886719,13.4453125 0,3.176389 -0.484214,6.856247 -1.402344,10.982422 3.081577,-6.450252 4.662109,-11.459503 4.662109,-14.947266 0,-2.91378 -0.703388,-5.218283 -2.113281,-6.910156 C 93.52435,8.31306 91.844305,7.4601384 89.703125,7.2890625 Z M 72.958984,7.4277344 c -1.470732,0.1721381 -2.735069,0.6061609 -3.791015,1.3027344 -1.341566,0.9252066 -2.408428,2.0809362 -3.201172,3.4687502 -0.792744,1.341553 -1.341583,2.776141 -1.646485,4.302734 -0.243926,1.5266 -0.365234,2.890983 -0.365234,4.09375 0,1.89668 0.365892,3.840878 1.097656,5.830078 0.02971,0.08077 0.06704,0.163145 0.09766,0.244141 0.283281,-4.444739 1.280113,-8.500399 3.009765,-12.15625 1.295476,-2.767607 2.894819,-5.1296029 4.798828,-7.0859376 z m 8.242188,2.9414066 c -0.582422,0.595165 -1.127723,1.262997 -1.621094,2.029297 -0.148828,0.236183 -0.281339,0.494592 -0.419922,0.74414 0.0067,-1.9e-5 0.01286,-0.002 0.01953,-0.002 1.593495,0 3.043011,0.600162 4.359374,1.763672 C 83.269402,13.932405 82.908221,13.004546 82.431639,12.130812 82.085281,11.49583 81.67048,10.910801 81.20117,10.369094 Z m 21.597658,7.951171 c -0.62657,3.273502 -2.01096,7.188122 -4.185549,11.771485 -2.742553,5.73827 -7.378137,13.462782 -13.871093,23.140625 3.100232,3.39653 6.172949,6.85742 9.214843,10.386719 3.170974,3.608313 6.005664,7.237998 8.505859,10.892578 2.50019,3.608313 4.5126,7.239951 6.03711,10.894531 0.72132,1.662664 1.26895,3.31547 1.66211,4.958984 -0.35046,-10.066327 -5.3058,-19.419717 -14.896485,-28.05664 5.884665,-9.404474 8.826175,-20.347724 8.826175,-32.832032 0,-4.20078 -0.43266,-7.918195 -1.29297,-11.15625 z M 57.416016,45.136719 c 2.534961,6.256899 6.683123,11.965951 12.455078,17.125 l 0.759765,-1.626953 C 67.764785,57.489059 64.960911,54.32088 62.216797,51.128906 60.491728,49.122292 58.900096,47.125052 57.416016,45.136719 Z M 39.085938,55.214844 c -6.104662,0 -13.19865,6.599561 -21.283204,19.798828 l 7.0625,4.876953 14.378907,-24.671875 c -0.05333,-2.64e-4 -0.104672,-0.0039 -0.158203,-0.0039 z m 8.402343,1.382812 12.146485,26.298828 1.90625,-2.8125 4.58789,-9.818359 c -0.495667,0.124181 -0.98628,0.210937 -1.46875,0.210937 -1.869893,0 -5.22472,-2.943451 -10.064453,-8.828124 -1.891169,-2.304866 -4.263473,-3.984588 -7.107422,-5.050782 z m 27.419922,15.923828 -5.400391,11.859375 c 2.391303,-0.66582 4.887464,-1.804252 7.494141,-3.439453 -0.579914,-2.743254 -1.28084,-5.549911 -2.09375,-8.419922 z m 18.658203,28.482426 c -0.997542,3.16483 -2.572178,5.64277 -4.734375,7.41992 -0.207285,0.16856 -0.419517,0.32865 -0.630859,0.49023 -0.594853,1.74733 -1.346571,3.40156 -2.246094,4.96875 1.047312,-0.78796 1.98315,-1.60558 2.78711,-2.45508 1.768428,-1.80415 3.049052,-3.8166 3.841796,-6.03711 0.475732,-1.33254 0.792181,-2.80428 0.982422,-4.38671 z m 10.236324,12.54882 c -0.88781,0.88554 -1.847,1.73073 -2.89453,2.52539 -3.109994,2.45181 -6.830554,4.55656 -11.160153,6.31446 -4.329603,1.80416 -9.084252,3.42335 -14.267578,4.85742 l -1.378907,-2.29297 c -1.227838,0.5592 -2.501145,1.0271 -3.832031,1.37891 l 0,1.55664 c 13.859234,0 23.70353,-3.10761 29.533203,-9.32227 1.498616,-1.59376 2.825476,-3.26948 3.999996,-5.01758 z m -26.949214,0.375 c -2.07844,0.40021 -4.272995,0.60157 -6.583985,0.60157 l 0,6.39258 c 2.283901,-0.84437 4.148641,-2.48754 5.574219,-4.9668 0.372054,-0.62537 0.70038,-1.31264 1.009766,-2.02735 z" id="path4442" inkscape:connector-curvature="0" fill="#ffff00" fill-opacity="0.941"/>
  <path d="m 88.884766,0.765625 c -1.059365,0 -2.090023,0.0867912 -3.103516,0.22460938 4.026405,1.17182182 7.821968,3.51297652 11.382812,7.03710942 2.626152,2.5948892 4.501488,6.0274852 5.634768,10.2929682 0.25359,-1.324876 0.39648,-2.555633 0.39648,-3.666015 0,-4.370673 -1.26883,-7.778843 -3.806638,-10.2226564 C 96.897861,1.9878273 93.396426,0.765625 88.884766,0.765625 Z m -9.722657,12.376953 c -2.851643,0.0073 -5.183052,1.737783 -6.99414,5.195313 -1.374927,2.639853 -2.0625,6.353932 -2.0625,11.138671 0,2.775617 0.396824,5.424647 1.179687,7.951172 0.409075,0.562128 0.830579,1.127003 1.267578,1.695313 1.707452,2.2205 3.567729,4.463709 5.580078,6.730469 0.135645,-0.31476 0.251344,-0.625486 0.382813,-0.939454 -0.340598,-1.585584 -0.671265,-3.236929 -0.980469,-5.023437 -0.798939,-4.934627 -1.199218,-9.257983 -1.199218,-12.970703 0,-5.820908 0.951135,-10.401968 2.826171,-13.777344 z m -38.480468,61.140625 -8.109375,11.275391 -6.265625,10.798828 3.291015,0 12.984375,-17.955078 -1.90039,-4.119141 z m 43.003906,1.580078 c -2.302691,2.014521 -4.540078,3.73497 -6.695313,5.085938 1.432532,6.76975 2.166016,13.158342 2.166016,19.144531 0,5.7056 -0.77363,10.30561 -2.300781,13.83398 4.266623,-0.82181 8.041533,-2.49162 11.328125,-5 1.163103,-3.4014 1.757812,-7.13946 1.757812,-11.230464 0,-4.788894 -0.423146,-9.756243 -1.265625,-14.898438 -1.427845,-2.312121 -3.092716,-4.623429 -4.990234,-6.935547 z M 53.375,96.578125 l 0.615234,1.400391 0.960938,-1.400391 -1.576172,0 z m 2.376953,14.865235 -2.537109,14.45117 c 2.913781,0.89293 6.203418,1.33985 9.86914,1.33985 2.54354,0 4.937947,-0.30176 7.185547,-0.89844 l 0,-5.41406 c -1.179828,0.43606 -2.464362,0.67187 -3.873047,0.67187 -2.302825,0 -4.135151,-0.49354 -5.498046,-1.48047 l -1.691407,-8.66992 -3.455078,0 z" id="path4436" inkscape:connector-curvature="0" fill-opacity="0.627" fill="#ff00ff"/>
  <path d="m 73.101562,0.75 c -3.414895,0 -6.677112,0.5317165 -9.787109,1.5957031 -3.049013,1.0639934 -5.733528,2.5687788 -8.050781,4.5117188 -2.317252,1.89668 -4.146715,4.2081331 -5.488281,6.9375001 -1.341566,2.683107 -2.011719,5.644579 -2.011719,8.882812 0,3.145707 0.641289,6.291787 1.921875,9.4375 1.341565,3.145714 3.078581,6.313893 5.212891,9.50586 0.789563,1.163719 1.634795,2.331903 2.507812,3.501953 -1.972377,-4.88341 -2.976562,-10.094032 -2.976562,-15.646485 0,-9.459479 2.199856,-16.609492 6.599609,-21.4492182 C 64.523835,4.2579588 68.682086,1.8399954 73.494141,0.76171875 73.360371,0.76037914 73.23667,0.75 73.101562,0.75 Z m 10.439454,14.15625 c 0.144077,0.519614 0.268582,1.048046 0.353515,1.595703 0.3049,1.5266 0.457031,2.915029 0.457031,4.164063 0,1.480333 -0.121309,3.167773 -0.365234,5.064453 -0.243919,1.896673 -0.640628,3.933175 -1.189453,6.107422 -0.487842,2.17424 -1.127178,4.463594 -1.919922,6.86914 -0.689015,2.050574 -1.488044,4.121659 -2.361328,6.207031 0.420069,1.955549 0.862256,3.766092 1.330078,5.416016 0.379984,0.347598 0.759769,0.694667 1.162109,1.035156 2.390634,-3.76241 4.526602,-7.280364 6.375,-10.521484 0.688224,-3.450664 1.035157,-7.238252 1.035157,-11.367188 0,-4.729739 -0.741649,-8.443818 -2.226563,-11.138671 -0.809128,-1.45643 -1.695498,-2.587421 -2.65039,-3.431641 z M 40.171875,53.626953 39.244141,55.21875 c 3.090165,0.01532 5.836689,0.476065 8.24414,1.378906 l -1.371093,-2.970703 -5.945313,0 z m 29.695313,8.640625 -3.740235,8.00586 c 0.993852,-0.243011 2.013563,-0.740319 3.058594,-1.466797 l 2.78125,-4.101563 c -0.09215,-0.284826 -0.173109,-0.568783 -0.263672,-0.853516 -0.626474,-0.52328 -1.239117,-1.050486 -1.835937,-1.583984 z m -29.048829,8.455078 c -2.804846,0 -6.654101,4.071391 -11.548828,12.210938 l -4.404297,-3.042969 -7.74414,13.289063 0,3.398437 9.05664,0 0.128907,-0.220703 -1.501953,0 7.767578,-10.798828 7.416015,-12.78125 0.69336,1.505859 2.302734,-3.201172 c -0.717136,-0.239758 -1.438702,-0.359375 -2.166016,-0.359375 z m 3.513672,5.261719 -1.75,2.417969 8.382813,18.175781 2.410156,0 -9.042969,-20.59375 z m 43.302735,1.353516 c 0.03856,0.182302 0.08295,0.366718 0.121093,0.548828 0.349012,1.654987 0.65452,3.292184 0.919922,4.912109 0.05107,0.08268 0.107747,0.165369 0.158203,0.248047 1.524508,2.49806 2.714636,4.973975 3.56836,7.425781 0.914704,2.451807 1.371094,4.857517 1.371094,7.216797 0,1.165449 -0.08026,2.259965 -0.207032,3.314457 0.854858,-2.711747 1.28711,-5.925711 1.28711,-9.656254 0,-4.144556 -2.419333,-8.816579 -7.21875,-14.009765 z m -18.13086,7.052734 c -1.637496,0.455155 -3.225369,0.6875 -4.761718,0.6875 -0.624051,0 -1.23353,-0.03802 -1.835938,-0.0957 l -7.955078,11.595703 9.003906,0 5.548828,-12.1875 z m 40.658204,5.974609 c 0.0133,0.381798 0.0352,0.76263 0.0352,1.146485 0,8.36071 -2.13743,15.704611 -6.39258,22.039061 1.7988,-1.79456 3.27889,-3.77175 4.42187,-5.93945 1.76844,-3.23824 2.65235,-7.03042 2.65235,-11.378908 0,-1.941482 -0.24579,-3.898221 -0.7168,-5.867188 z" id="path4439" inkscape:connector-curvature="0" fill-opacity="0.706" fill="#00ffff"/>
  <path d="m 71.285156,37.427734 c 1.472221,4.751282 4.323634,9.063227 8.564453,12.933594 -0.46802,-1.665024 -0.912463,-3.484962 -1.333984,-5.447266 -0.131469,0.313969 -0.247168,0.624694 -0.382813,0.939454 -2.012349,-2.266762 -3.872627,-4.509965 -5.580078,-6.730469 -0.436999,-0.568309 -0.858504,-1.133185 -1.267578,-1.695313 z m 16.101563,3.404297 c -1.847818,3.2444 -3.982985,6.766102 -6.378907,10.53711 0.580116,0.490683 1.17433,0.977184 1.800782,1.453125 2.13716,-3.394317 3.662279,-7.392561 4.578125,-11.990235 z M 71.701172,63.84375 c 0.09137,0.287292 0.172646,0.573939 0.265625,0.861328 l -2.789063,4.115234 c 1.287958,-0.899006 2.611985,-2.149225 3.978516,-3.789062 -0.500795,-0.390488 -0.974372,-0.790198 -1.455078,-1.1875 z m -28.716797,7.238281 -2.302734,3.201172 1.90039,4.119141 1.75,-2.417969 9.042969,20.59375 1.576172,0 7.955078,-11.595703 C 57.5094,84.465747 52.977509,81.643385 49.316406,76.498047 47.252118,73.608054 45.141635,71.802534 42.984375,71.082031 Z m 42.052734,3.601563 c -0.456125,0.419502 -0.90108,0.78558 -1.351562,1.179687 1.897519,2.312117 3.562389,4.623428 4.990234,6.935547 -0.265402,-1.619925 -0.57091,-3.257123 -0.919922,-4.912109 -0.03827,-0.182714 -0.0824,-0.367874 -0.121093,-0.550781 -0.804996,-0.871014 -1.657647,-1.751832 -2.597657,-2.652344 z m -52.464843,10.875 -7.767578,10.798828 1.501953,0 6.265625,-10.798828 z" id="path4448" inkscape:connector-curvature="0" fill-opacity="0.706" filter="url(#filter8138)" fill="#4b4dff"/>
  <path d="M 73.494141,0.76171875 C 68.682085,1.8399954 64.52383,4.2579585 61.029297,8.0273438 56.629541,12.867075 54.429688,20.017087 54.429688,29.476562 c 0,5.552456 1.004185,10.763074 2.976562,15.646485 1.486883,1.992775 3.081587,3.994718 4.810547,6.005859 2.744114,3.191971 5.547988,6.360149 8.414062,9.50586 l -0.763671,1.632812 c 0.59682,0.533498 1.209463,1.060704 1.835937,1.583984 -1.941677,-6.104693 -3.529827,-12.188211 -4.742187,-18.25 -1.268904,-6.391519 -1.904297,-11.820496 -1.904297,-16.285156 0,-0.898596 0.03852,-1.776058 0.09375,-2.644531 -0.0308,-0.08146 -0.06777,-0.164861 -0.09766,-0.246094 -0.731764,-1.9892 -1.097656,-3.933399 -1.097656,-5.830078 0,-1.202772 0.121309,-2.567155 0.365234,-4.09375 0.304903,-1.526595 0.853741,-2.961181 1.646485,-4.302734 C 66.759538,10.811405 67.8264,9.6556779 69.167966,8.7304688 70.224361,8.0336043 71.489578,7.59801 72.960938,7.4257812 74.095692,6.2604266 75.338577,5.2385198 76.689453,4.3613281 78.276614,3.3235693 79.942754,2.5239839 81.679688,1.9355469 79.30112,1.1929013 76.582444,0.79264586 73.494141,0.76171875 Z M 88.884766,7.2519531 c -3.102332,0 -5.658366,1.0480159 -7.683594,3.1171879 0.469961,0.542079 0.883869,1.126294 1.230469,1.761718 0.476964,0.874434 0.839666,1.802688 1.109375,2.775391 0.954892,0.84422 1.841262,1.97521 2.65039,3.431641 1.484919,2.69485 2.226563,6.408934 2.226563,11.138671 0,4.128936 -0.346934,7.916524 -1.035157,11.367188 1.874338,-3.286603 3.470332,-6.306061 4.78711,-9.056641 0.928345,-4.154995 1.419922,-7.858468 1.419922,-11.052734 0,-5.640081 -1.295175,-10.120751 -3.884766,-13.4453125 -0.267216,-0.021424 -0.538621,-0.037109 -0.820312,-0.037109 z M 79.845703,50.330078 c 0.190618,0.672274 0.381532,1.347216 0.580078,1.96875 0.207068,-0.323487 0.37888,-0.613871 0.582031,-0.933594 -0.40234,-0.340489 -0.782125,-0.687558 -1.162109,-1.035156 z m 4.896485,2.902344 c -0.739141,1.101737 -1.485696,2.212441 -2.273438,3.365234 2.013703,7.047961 3.731694,13.959681 5.166016,20.740235 4.799415,5.193188 7.21875,9.865211 7.21875,14.009765 0,3.730542 -0.432253,6.944506 -1.28711,9.656254 -0.190241,1.58243 -0.50669,3.05418 -0.982422,4.38671 -0.792744,2.22052 -2.073369,4.23296 -3.841796,6.03711 -0.802235,0.84768 -1.736995,1.66088 -2.78125,2.44727 -1.017776,1.77098 -2.224002,3.43144 -3.632813,4.9707 -2.418495,2.68973 -5.160837,4.72498 -8.220703,6.1211 l 1.373047,2.2832 c 5.183326,-1.43408 9.937975,-3.05326 14.267578,-4.85742 4.329599,-1.7579 8.050163,-3.86265 11.160153,-6.31446 1.0483,-0.79524 2.00814,-1.64108 2.89649,-2.52734 4.25515,-6.33445 6.39258,-13.678351 6.39258,-22.039061 0,-0.383855 -0.0219,-0.764686 -0.0352,-1.146485 C 109.76895,88.721719 109.22132,87.068916 108.5,85.40625 106.97549,81.751673 104.96308,78.120035 102.46289,74.511719 99.962697,70.857142 97.128004,67.227455 93.957031,63.619141 90.915138,60.089838 87.842438,56.62897 84.742188,53.232422 Z m -45.498047,1.986328 -14.378907,24.671875 4.404297,3.042969 c 4.894729,-8.139549 8.743983,-12.210938 11.548828,-12.210938 0.727315,0 1.448879,0.119617 2.166016,0.359375 l 6.564453,-9.126953 9.515625,21.783203 0.570313,-0.841797 -12.146485,-26.298828 c -2.407451,-0.902841 -5.153977,-1.36359 -8.24414,-1.378906 z m 29.941406,13.587891 c -1.045031,0.726479 -2.064742,1.223787 -3.058594,1.466797 l -4.583984,9.810546 7.642578,-11.277343 z m 4.683594,0.199218 -10.962891,15.976563 c 0.602408,0.05768 1.211886,0.0957 1.835938,0.0957 1.536349,0 3.124222,-0.232345 4.761718,-0.6875 L 74.908203,72.523438 C 74.577897,71.359087 74.23806,70.191319 73.869141,69.005859 Z" id="path4432" inkscape:connector-curvature="0" fill="#48ff0f" filter="url(#filter8134)" fill-opacity="0.627"/>
  <path d="m 85.738281,0.9765625 c -1.392846,0.1876601 -2.740643,0.5094587 -4.048828,0.9511719 2.723164,0.8539369 4.991791,2.1651412 6.779297,3.9570312 0.440964,0.4420456 0.850353,0.9113411 1.234375,1.4042969 2.14118,0.1710756 3.821226,1.0239959 5.033203,2.5703125 1.409893,1.691872 2.113281,3.996376 2.113281,6.910156 0,3.487765 -1.580532,8.497014 -4.662109,14.947266 -0.191704,0.861537 -0.377644,1.716196 -0.609375,2.619141 -1.341569,5.181173 -3.689053,11.403122 -7.042969,18.666015 0.06944,0.07598 0.137623,0.154427 0.207032,0.230469 6.492956,-9.677845 11.12854,-17.402357 13.871093,-23.140625 2.174589,-4.583363 3.558979,-8.497982 4.185549,-11.771485 C 101.66555,14.05483 99.790216,10.622233 97.164062,8.0273438 93.590469,4.4905913 89.780776,2.1441271 85.738281,0.9765625 Z M 74.472656,7.3417969 c -0.527434,0 -1.030926,0.029436 -1.513672,0.085937 -1.904009,1.9563348 -3.503353,4.3183321 -4.798828,7.0859381 -1.729653,3.655854 -2.726484,7.711511 -3.009765,12.156249 0.723431,1.913839 1.691331,3.890063 2.919921,5.931641 0.955336,1.587504 2.029756,3.200845 3.222657,4.839844 -0.786115,-2.530777 -1.1875,-5.183747 -1.1875,-7.964844 0,-4.784734 0.687574,-8.498818 2.0625,-11.138672 1.810667,-3.456728 4.141445,-5.187252 6.992187,-5.195312 0.138583,-0.249548 0.271094,-0.507957 0.419922,-0.74414 0.493371,-0.7663 1.038672,-1.434131 1.621094,-2.029297 C 80.67895,9.7663594 80.08657,9.2177581 79.412109,8.7304688 78.131524,7.8052554 76.485006,7.3417969 74.472656,7.3417969 Z m 2.5625,60.5097651 -2.126953,4.669922 c 0.81291,2.870012 1.513836,5.676669 2.09375,8.419922 2.155251,-1.352015 4.38871,-3.053735 6.691406,-5.068359 -0.08741,-0.106516 -0.167453,-0.213796 -0.255859,-0.320313 -2.012351,-2.544326 -4.146074,-5.110585 -6.402344,-7.701172 z m -15.49414,12.232422 -1.90625,2.8125 0.294922,0.636719 1.611328,-3.449219 z m 26.660156,28.830076 c -3.291211,2.51628 -7.072609,4.19052 -11.347656,5.01367 -0.309386,0.71471 -0.637712,1.40198 -1.009766,2.02735 -1.425577,2.47927 -3.290318,4.12242 -5.574219,4.9668 l 0,5.41406 c 1.330886,-0.35181 2.604193,-0.81971 3.832031,-1.37891 l -2.46289,-4.0918 c 4.08568,-1.43407 7.530843,-2.9148 10.335937,-4.4414 1.484303,-0.80779 2.803502,-1.65551 3.980469,-2.54102 0.899523,-1.56719 1.651241,-3.22142 2.246094,-4.96875 z" id="path3603" inkscape:connector-curvature="0" fill-opacity="0.627" filter="url(#filter8142)" fill="#ff210f"/>
 </g>
</svg>
