<?xml version="1.0" encoding="UTF-8" standalone="no"?>
<svg xmlns="http://www.w3.org/2000/svg" xmlns:sodipodi="http://sodipodi.sourceforge.net/DTD/sodipodi-0.dtd" xmlns:inkscape="http://www.inkscape.org/namespaces/inkscape" version="1.1" width="36" height="36" viewBox="0 0 36 36">
 <metadata id="metadata8"/>
 <path d="M 13.705222,30.904504 C 8.703568,29.756483 4.8506573,26.084101 3.5914939,21.26465 3.167953,19.643548 3.167953,16.523261 3.5914939,14.902158 3.7662808,14.233161 4.2575121,12.970019 4.6831192,12.095177 5.309886,10.806847 5.7631441,10.201308 7.0680978,8.9089217 9.5152784,6.4853066 12.194633,5.2536765 15.794614,4.89757 c 1.17784,-0.1165114 3.961722,0.1198708 4.686303,0.3979193 0.220836,0.084743 0.268347,0.7749964 0.268347,3.8986666 l 0,3.7956941 -0.962832,-0.282243 c -0.64626,-0.189447 -1.461494,-0.255892 -2.4795,-0.202086 -1.962037,0.103699 -3.607686,0.871018 -4.979985,2.32202 -2.8566446,3.020484 -2.4101776,6.808523 0.978899,8.305427 3.309311,1.46167 7.655125,-0.187131 9.443636,-3.582917 l 0.526065,-0.998816 0.09356,-6.101584 0.09357,-6.1015826 2.512272,1.4690993 c 2.906163,1.6994348 4.865779,2.5074093 6.78946,2.7993843 2.197779,0.333574 2.193825,0.33218 2.315402,0.816574 0.313708,1.249913 -1.357302,3.419757 -3.328257,4.321817 l -1.179969,0.540043 -0.02018,1.783087 c -0.06751,5.965766 -3.637887,10.669385 -9.521445,12.543569 -1.678146,0.534565 -5.572853,0.684969 -7.32474,0.282862 z" id="path4138" inkscape:connector-curvature="0"/>
</svg>
