<svg xmlns="http://www.w3.org/2000/svg" viewBox="0 0 36 36"><path d="m13.705 30.905c-5-1.148-8.855-4.82-10.114-9.64-.424-1.621-.424-4.741 0-6.362.175-.669.666-1.932 1.092-2.807.627-1.288 1.08-1.894 2.385-3.186 2.447-2.424 5.127-3.655 8.727-4.01 1.178-.117 3.962.12 4.686.398.221.085.268.775.268 3.899v3.796l-.963-.282c-.646-.189-1.461-.256-2.48-.202-1.962.104-3.608.871-4.98 2.322-2.857 3.02-2.41 6.809.979 8.305 3.309 1.462 7.655-.187 9.444-3.583l.526-.999.094-6.102.094-6.102 2.512 1.469c2.906 1.699 4.866 2.507 6.789 2.799 2.198.334 2.194.332 2.315.817.314 1.25-1.357 3.42-3.328 4.322l-1.18.54-.02 1.783c-.068 5.966-3.638 10.669-9.521 12.544-1.678.535-5.573.685-7.325.283"/></svg>