<?xml version="1.0" encoding="UTF-8" standalone="no"?>
<!-- Created with Inkscape (http://www.inkscape.org/) -->

<svg
   xmlns:dc="http://purl.org/dc/elements/1.1/"
   xmlns:cc="http://creativecommons.org/ns#"
   xmlns:rdf="http://www.w3.org/1999/02/22-rdf-syntax-ns#"
   xmlns:svg="http://www.w3.org/2000/svg"
   xmlns="http://www.w3.org/2000/svg"
   xmlns:sodipodi="http://sodipodi.sourceforge.net/DTD/sodipodi-0.dtd"
   xmlns:inkscape="http://www.inkscape.org/namespaces/inkscape"
   id="svg2"
   version="1.1"
   inkscape:version="0.91 r13725"
   width="36"
   height="36"
   viewBox="0 0 36 36"
   sodipodi:docname="rdio.svg"
   inkscape:export-filename="/home/jord/code/forivall.com/forivall.github.io/images/rdio.png"
   inkscape:export-xdpi="90"
   inkscape:export-ydpi="90">
  <metadata
     id="metadata8">
    <rdf:RDF>
      <cc:Work
         rdf:about="">
        <dc:format>image/svg+xml</dc:format>
        <dc:type
           rdf:resource="http://purl.org/dc/dcmitype/StillImage" />
        <dc:title></dc:title>
      </cc:Work>
    </rdf:RDF>
  </metadata>
  <defs
     id="defs6" />
  <sodipodi:namedview
     pagecolor="#ffffff"
     bordercolor="#666666"
     borderopacity="1"
     objecttolerance="10"
     gridtolerance="10"
     guidetolerance="10"
     inkscape:pageopacity="0"
     inkscape:pageshadow="2"
     inkscape:window-width="707"
     inkscape:window-height="480"
     id="namedview4"
     showgrid="false"
     inkscape:zoom="2.1185582"
     inkscape:cx="23.415255"
     inkscape:cy="24.629523"
     inkscape:window-x="304"
     inkscape:window-y="271"
     inkscape:window-maximized="0"
     inkscape:current-layer="svg2" />
  <path
     style="fill:#000000;fill-opacity:1"
     d="M 13.705222,30.904504 C 8.703568,29.756483 4.8506573,26.084101 3.5914939,21.26465 3.167953,19.643548 3.167953,16.523261 3.5914939,14.902158 3.7662808,14.233161 4.2575121,12.970019 4.6831192,12.095177 5.309886,10.806847 5.7631441,10.201308 7.0680978,8.9089217 9.5152784,6.4853066 12.194633,5.2536765 15.794614,4.89757 c 1.17784,-0.1165114 3.961722,0.1198708 4.686303,0.3979193 0.220836,0.084743 0.268347,0.7749964 0.268347,3.8986666 l 0,3.7956941 -0.962832,-0.282243 c -0.64626,-0.189447 -1.461494,-0.255892 -2.4795,-0.202086 -1.962037,0.103699 -3.607686,0.871018 -4.979985,2.32202 -2.8566446,3.020484 -2.4101776,6.808523 0.978899,8.305427 3.309311,1.46167 7.655125,-0.187131 9.443636,-3.582917 l 0.526065,-0.998816 0.09356,-6.101584 0.09357,-6.1015826 2.512272,1.4690993 c 2.906163,1.6994348 4.865779,2.5074093 6.78946,2.7993843 2.197779,0.333574 2.193825,0.33218 2.315402,0.816574 0.313708,1.249913 -1.357302,3.419757 -3.328257,4.321817 l -1.179969,0.540043 -0.02018,1.783087 c -0.06751,5.965766 -3.637887,10.669385 -9.521445,12.543569 -1.678146,0.534565 -5.572853,0.684969 -7.32474,0.282862 z"
     id="path4138"
     inkscape:connector-curvature="0" />
</svg>
