<svg xmlns="http://www.w3.org/2000/svg" height="36" width="36" viewBox="0 0 36 36">
 <path d="M 18 1.5 C 8.887 1.5 1.5 8.888 1.5 18 c 0 9.113 7.387 16.5 16.5 16.5 9.113 0 16.5 -7.387 16.5 -16.5 0 -9.112 -7.387 -16.499 -16.5 -16.499 z m 7.567 23.797 c -0.296 0.485 -0.93 0.638 -1.415 0.341 -3.874 -2.366 -8.751 -2.902 -14.494 -1.59 -0.553 0.126 -1.105 -0.221 -1.231 -0.774 -0.127 -0.554 0.219 -1.105 0.774 -1.231 6.285 -1.436 11.677 -0.818 16.03 1.84 0.485 0.298 0.638 0.93 0.341 1.415 z m 2.02 -4.493 c -0.372 0.605 -1.164 0.796 -1.769 0.424 -4.435 -2.726 -11.196 -3.516 -16.442 -1.923 -0.68 0.206 -1.399 -0.178 -1.605 -0.857 -0.205 -0.68 0.179 -1.398 0.858 -1.604 5.992 -1.818 13.442 -0.937 18.535 2.192 0.605 0.372 0.796 1.164 0.424 1.769 z m 0.173 -4.678 c -5.318 -3.159 -14.09 -3.449 -19.17 -1.908 -0.815 0.247 -1.678 -0.213 -1.925 -1.028 -0.247 -0.816 0.213 -1.677 1.029 -1.925 5.828 -1.769 15.517 -1.427 21.64 2.207 0.735 0.435 0.975 1.382 0.54 2.115 -0.433 0.733 -1.383 0.975 -2.114 0.54 z"/>
</svg>
