<?xml version="1.0" encoding="UTF-8" standalone="no"?>
<!-- Generator: Adobe Illustrator 18.1.0, SVG Export Plug-In . SVG Version: 6.00 Build 0)  -->

<svg
   xmlns:dc="http://purl.org/dc/elements/1.1/"
   xmlns:cc="http://creativecommons.org/ns#"
   xmlns:rdf="http://www.w3.org/1999/02/22-rdf-syntax-ns#"
   xmlns:svg="http://www.w3.org/2000/svg"
   xmlns="http://www.w3.org/2000/svg"
   xmlns:sodipodi="http://sodipodi.sourceforge.net/DTD/sodipodi-0.dtd"
   xmlns:inkscape="http://www.inkscape.org/namespaces/inkscape"
   version="1.1"
   id="Layer_1"
   x="0px"
   y="0px"
   width="36"
   height="36"
   viewBox="-135 14 36 36"
   enable-background="new -135 14 240 500"
   xml:space="preserve"
   inkscape:version="0.91 r13725"
   sodipodi:docname="stackoverflow.svg"
   inkscape:export-filename="/home/jord/code/forivall.com/forivall.github.io/images/stackoverflow.png"
   inkscape:export-xdpi="90"
   inkscape:export-ydpi="90"><metadata
     id="metadata134"><rdf:RDF><cc:Work
         rdf:about=""><dc:format>image/svg+xml</dc:format><dc:type
           rdf:resource="http://purl.org/dc/dcmitype/StillImage" /><dc:title></dc:title></cc:Work></rdf:RDF></metadata><defs
     id="defs132" /><sodipodi:namedview
     pagecolor="#ffffff"
     bordercolor="#666666"
     borderopacity="1"
     objecttolerance="10"
     gridtolerance="10"
     guidetolerance="10"
     inkscape:pageopacity="0"
     inkscape:pageshadow="2"
     inkscape:window-width="1210"
     inkscape:window-height="807"
     id="namedview130"
     showgrid="false"
     fit-margin-top="0"
     fit-margin-left="0"
     fit-margin-right="0"
     fit-margin-bottom="0"
     inkscape:zoom="7.552"
     inkscape:cx="20.148288"
     inkscape:cy="13.080229"
     inkscape:window-x="0"
     inkscape:window-y="27"
     inkscape:window-maximized="0"
     inkscape:current-layer="g4262" /><g
     id="Layer_2_1_"
     transform="translate(0,-9.4999985)" /><g
     id="g4"
     transform="translate(0,-9.4999985)"><g
       id="g122"><g
         id="g4262"
         transform="matrix(0.87864909,0,0,0.87864909,-11.615423,5.5193183)"><polygon
           style="fill:#000000;fill-opacity:1"
           id="polygon126"
           points="-108.5,56.2 -108.5,46.3 -105.2,46.3 -105.2,59.5 -135,59.5 -135,46.3 -131.7,46.3 -131.7,56.2 "
           transform="translate(0.16067701,0)" /><path
           style="fill:#000000;fill-opacity:1"
           inkscape:connector-curvature="0"
           id="path128"
           d="m -127.83956,45.4 16.2,3.4 0.7,-3.2 -16.2,-3.4 -0.7,3.2 z m 2.1,-7.8 15,7 1.4,-3 -15,-7 -1.4,3 z m 4.2,-7.4 12.7,10.6 2.1,-2.5 -12.7,-10.6 -2.1,2.5 z m 8.2,-7.8 -2.7,2 9.9,13.3 2.7,-2 -9.9,-13.3 z m -14.9,30.5 16.6,0 0,-3.3 -16.6,0 0,3.3 z" /></g></g></g></svg>