<?xml version="1.0" encoding="UTF-8" standalone="no"?>
<svg xmlns="http://www.w3.org/2000/svg" xmlns:sodipodi="http://sodipodi.sourceforge.net/DTD/sodipodi-0.dtd" xmlns:inkscape="http://www.inkscape.org/namespaces/inkscape" version="1.1" width="36" height="36" viewBox="-135 14 36 36" enable-background="new -135 14 240 500">
 <metadata id="metadata134"/>
 <g id="g4" transform="translate(0,-9.4999985)">
  <g id="g122">
   <g id="g4262" transform="matrix(0.87864909,0,0,0.87864909,-11.615423,5.5193183)">
    <polygon id="polygon126" points="-108.5,56.2 -108.5,46.3 -105.2,46.3 -105.2,59.5 -135,59.5 -135,46.3 -131.7,46.3 -131.7,56.2 " transform="translate(0.16067701,0)"/>
    <path inkscape:connector-curvature="0" id="path128" d="m -127.83956,45.4 16.2,3.4 0.7,-3.2 -16.2,-3.4 -0.7,3.2 z m 2.1,-7.8 15,7 1.4,-3 -15,-7 -1.4,3 z m 4.2,-7.4 12.7,10.6 2.1,-2.5 -12.7,-10.6 -2.1,2.5 z m 8.2,-7.8 -2.7,2 9.9,13.3 2.7,-2 -9.9,-13.3 z m -14.9,30.5 16.6,0 0,-3.3 -16.6,0 0,3.3 z"/>
   </g>
  </g>
 </g>
</svg>
