<svg xmlns="http://www.w3.org/2000/svg" viewBox="0 0 72 72" enable-background="new 0 0 72 72"><path d="m68.812 15.14c-2.348 1.039-4.869 1.743-7.519 2.06 2.703-1.62 4.778-4.187 5.756-7.244-2.529 1.5-5.33 2.592-8.313 3.176-2.387-2.542-5.788-4.133-9.554-4.133-7.229 0-13.09 5.861-13.09 13.09 0 1.026.118 2.02.338 2.981-10.885-.548-20.528-5.757-26.987-13.679-1.126 1.936-1.771 4.184-1.771 6.581 0 4.542 2.312 8.551 5.824 10.898-2.146-.069-4.165-.657-5.93-1.638-.002.055-.002.11-.002.162 0 6.345 4.513 11.638 10.504 12.84-1.101.298-2.256.457-3.449.457-.846 0-1.667-.078-2.465-.231 1.667 5.2 6.499 8.986 12.23 9.09-4.482 3.512-10.129 5.606-16.26 5.606-1.055 0-2.096-.061-3.122-.184 5.794 3.717 12.676 5.882 20.07 5.882 24.08 0 37.25-19.949 37.25-37.25 0-.566-.014-1.134-.039-1.694 2.559-1.847 4.779-4.15 6.533-6.774"/></svg>